<?xml version="1.0" standalone="no"?>
<!DOCTYPE svg PUBLIC "-//W3C//DTD SVG 1.1//EN" "http://www.w3.org/Graphics/SVG/1.1/DTD/svg11.dtd" >
<svg xmlns="http://www.w3.org/2000/svg" xmlns:xlink="http://www.w3.org/1999/xlink" version="1.1" viewBox="0 -64 1024 1024" width="512" height="512">
  <g transform="matrix(1 0 0 -1 0 960)">
   <path fill="currentColor"
d="M751 448q0 -48 -19.5 -93t-50.5 -76t-76 -50.5t-93 -19.5t-93 19.5t-76 50.5t-50.5 76t-19.5 93t19.5 93t50.5 76t76 50.5t93 19.5t93 -19.5t76 -50.5t50.5 -76t19.5 -93zM633 569q-25 24 -54.5 37t-66.5 13t-66.5 -13t-54.5 -37q-24 -25 -37 -54.5t-13 -66.5t13 -66.5
t37 -54.5q25 -24 54.5 -37t66.5 -13t66.5 13t54.5 37q24 25 37 54.5t13 66.5t-13 66.5t-37 54.5v0zM171 107q102 64 198 140q95 76 181.5 162.5t162.5 181.5q76 96 140 198q-102 -64 -198 -140q-95 -76 -181.5 -162.5t-162.5 -181.5q-76 -96 -140 -198v0z" />
  </g>

</svg>
