<?xml version="1.0" standalone="no"?>
<!DOCTYPE svg PUBLIC "-//W3C//DTD SVG 1.1//EN" "http://www.w3.org/Graphics/SVG/1.1/DTD/svg11.dtd" >
<svg xmlns="http://www.w3.org/2000/svg" xmlns:xlink="http://www.w3.org/1999/xlink" version="1.1" viewBox="0 -64 1024 1024" width="512" height="512">
  <g transform="matrix(1 0 0 -1 0 960)">
   <path fill="currentColor"
d="M512 858q-43 0 -72.5 -30t-29.5 -73v-410q-33 -24 -51 -60t-18 -76q0 -71 50 -121t121 -50t121 50t50 121q0 40 -18 76t-51 60v410q0 43 -29.5 73t-72.5 30zM478 550h68v-245q31 -10 49.5 -36.5t18.5 -59.5q0 -42 -30 -72t-72 -30t-72 30t-30 72q0 33 18.5 59.5
t49.5 36.5v245zM683 516h136v-68h-136v68v0zM683 687h136v-68h-136v68z" />
  </g>

</svg>
