<?xml version="1.0" encoding="UTF-8" standalone="no"?>
<!-- Created with Inkscape (http://www.inkscape.org/) -->

<svg
   xmlns:dc="http://purl.org/dc/elements/1.1/"
   xmlns:cc="http://creativecommons.org/ns#"
   xmlns:rdf="http://www.w3.org/1999/02/22-rdf-syntax-ns#"
   xmlns:svg="http://www.w3.org/2000/svg"
   xmlns="http://www.w3.org/2000/svg"
   xmlns:sodipodi="http://sodipodi.sourceforge.net/DTD/sodipodi-0.dtd"
   xmlns:inkscape="http://www.inkscape.org/namespaces/inkscape"
   width="7.9375mm"
   height="7.93751mm"
   viewBox="0 0 7.9375 7.93751"
   version="1.1"
   id="svg8"
   inkscape:version="0.92.4 (5da689c313, 2019-01-14)"
   sodipodi:docname="frame.svg">
  <defs
     id="defs2" />
  <sodipodi:namedview
     id="base"
     pagecolor="#ffffff"
     bordercolor="#666666"
     borderopacity="1.0"
     inkscape:pageopacity="0.0"
     inkscape:pageshadow="2"
     inkscape:zoom="7.9999999"
     inkscape:cx="39.643945"
     inkscape:cy="9.1311686"
     inkscape:document-units="mm"
     inkscape:current-layer="layer1"
     showgrid="false"
     inkscape:snap-bbox="true"
     inkscape:snap-bbox-edge-midpoints="false"
     inkscape:object-paths="false"
     inkscape:snap-smooth-nodes="true"
     inkscape:snap-bbox-midpoints="true"
     inkscape:window-width="1920"
     inkscape:window-height="1057"
     inkscape:window-x="-8"
     inkscape:window-y="-8"
     inkscape:window-maximized="1"
     inkscape:bbox-paths="true"
     inkscape:snap-global="true">
    <inkscape:grid
       type="xygrid"
       id="grid4518"
       originx="-179.91666"
       originy="-488.15624" />
  </sodipodi:namedview>
  <metadata
     id="metadata5">
    <rdf:RDF>
      <cc:Work
         rdf:about="">
        <dc:format>image/svg+xml</dc:format>
        <dc:type
           rdf:resource="http://purl.org/dc/dcmitype/StillImage" />
        <dc:title />
      </cc:Work>
    </rdf:RDF>
  </metadata>
  <g
     inkscape:label="icons"
     inkscape:groupmode="layer"
     id="layer1"
     style="display:inline"
     transform="translate(-66.145833,-126.34374)">
    <path
       style="display:inline;fill:#000000;fill-opacity:1;stroke:none;stroke-width:0.99999994px;stroke-linecap:butt;stroke-linejoin:miter;stroke-opacity:1"
       d="M 13 5 L 12 7 L 7 7 L 7 9 L 11 10 L 11 13 L 13 14 L 14 17 L 16 17 L 17 14 L 19 13 L 19 10 L 23 9 L 23 7 L 18 7 L 17 5 L 13 5 z M 15 7 L 17 9 L 15 11 L 13 9 L 15 7 z M 7 11 L 7 17 L 9 18 L 9 11.5 L 7 11 z M 23 11 L 21 11.5 L 21 18 L 23 17 L 23 11 z M 11 16 L 11 25 L 13 25 L 13 19 L 12 18 L 12 16 L 11 16 z M 18 16 L 18 18 L 17 19 L 17 25 L 19 25 L 19 16 L 18 16 z "
       transform="matrix(0.26458333,0,0,0.26458333,66.145833,126.34374)"
       id="path6191" />
  </g>
</svg>
