<?xml version="1.0" standalone="no"?>
<!DOCTYPE svg PUBLIC "-//W3C//DTD SVG 1.1//EN" "http://www.w3.org/Graphics/SVG/1.1/DTD/svg11.dtd" >
<svg xmlns="http://www.w3.org/2000/svg" xmlns:xlink="http://www.w3.org/1999/xlink" version="1.1" viewBox="0 -64 1024 1024" width="512" height="512">
  <g transform="matrix(1 0 0 -1 0 960)">
   <path fill="currentColor"
d="M35 929v-146l417 -380l-222 47l290 -228q2 22 19 38t40 16q25 0 43 -18t18 -43t-18 -42.5t-43 -17.5q-16 0 -29.5 8t-21.5 21l-210 6l313 -144l-249 -46l86 -30h242q2 8 3.5 16.5t3.5 16.5q-20 6 -33 23.5t-13 39.5q0 27 19.5 46.5t46.5 19.5q10 0 18.5 -2.5t15.5 -7.5
q9 14 19 26.5t21 23.5q-8 6 -13 14.5t-7 18.5q-6 -5 -13.5 -8t-16.5 -3q-19 0 -32 13t-13 32t13 32.5t32 13.5q13 0 24 -7t17 -18q8 12 22 19t30 7q19 0 35 -10t23 -26q19 9 37.5 15.5t38.5 10.5v135l-15 131l-77 -210l-78 329l-57 -223l-186 321l21 -240l-397 410h-164v0z
M571 446q13 0 23.5 -7.5t13.5 -19.5q8 7 18.5 11t21.5 4q26 0 43.5 -18t17.5 -43q0 -26 -17.5 -44t-43.5 -18q-25 0 -43 18t-18 43q-3 -2 -7 -3t-9 -1q-16 0 -27 11.5t-11 27.5t11 27.5t27 11.5v0zM796 396q16 0 27.5 -11.5t11.5 -27.5t-11.5 -27.5t-27.5 -11.5t-27.5 11.5
t-11.5 27.5t11.5 27.5t27.5 11.5v0z" />
  </g>

</svg>
