<?xml version="1.0" standalone="no"?>
<!DOCTYPE svg PUBLIC "-//W3C//DTD SVG 1.1//EN" "http://www.w3.org/Graphics/SVG/1.1/DTD/svg11.dtd" >
<svg xmlns="http://www.w3.org/2000/svg" xmlns:xlink="http://www.w3.org/1999/xlink" version="1.1" viewBox="0 -64 1024 1024" width="512" height="512">
  <g transform="matrix(1 0 0 -1 0 960)">
   <path fill="currentColor"
d="M512 755q-56 0 -96.5 -40t-40.5 -96q0 -24 8 -45t21 -38l-77 -99q-12 5 -26 8t-28 3q-56 0 -96.5 -40t-40.5 -96q0 -57 40.5 -97t96.5 -40t96.5 40t40.5 97q0 23 -8 44t-21 38l77 99q12 -5 26 -8t28 -3t28 3t26 9l77 -100q-13 -17 -21 -38t-8 -44q0 -57 40.5 -97
t96.5 -40t96 40t40 97q0 56 -40 96t-96 40q-14 0 -28 -3t-26 -8l-77 99q13 17 20.5 38t7.5 45q0 56 -40 96t-96 40v0zM512 687q29 0 48.5 -20t19.5 -48q0 -29 -19.5 -49t-48.5 -20t-48.5 20t-19.5 49q0 28 19.5 48t48.5 20zM273 380q29 0 48.5 -20t19.5 -48q0 -29 -19.5 -49
t-48.5 -20t-48.5 20t-19.5 49q0 28 19.5 48t48.5 20zM751 380q29 0 48.5 -20t19.5 -48q0 -29 -19.5 -49t-48.5 -20t-48.5 20t-19.5 49q0 28 19.5 48t48.5 20z" />
  </g>

</svg>
