<?xml version="1.0" standalone="no"?>
<!DOCTYPE svg PUBLIC "-//W3C//DTD SVG 1.1//EN" "http://www.w3.org/Graphics/SVG/1.1/DTD/svg11.dtd" >
<svg xmlns="http://www.w3.org/2000/svg" xmlns:xlink="http://www.w3.org/1999/xlink" version="1.1" viewBox="0 -64 1024 1024" width="512" height="512">
  <g transform="matrix(1 0 0 -1 0 960)">
   <path fill="currentColor"
d="M218 254l136 136q26 26 34.5 85.5t33.5 85.5q26 26 55.5 33.5t81.5 0.5l-89 -87l15 -89l88 -15l88 89q7 -46 -0.5 -78.5t-33.5 -58.5q-25 -25 -85 -33.5t-85 -34.5l-82 -79h-68zM842 638v-380l-330 -191l-330 191v380l330 191zM251 599v-302l261 -151l262 151v302
l-262 151z" />
  </g>

</svg>
