<?xml version="1.0" standalone="no"?>
<!DOCTYPE svg PUBLIC "-//W3C//DTD SVG 1.1//EN" "http://www.w3.org/Graphics/SVG/1.1/DTD/svg11.dtd" >
<svg xmlns="http://www.w3.org/2000/svg" xmlns:xlink="http://www.w3.org/1999/xlink" version="1.1" viewBox="0 -64 1024 1024" width="512" height="512">
  <g transform="matrix(1 0 0 -1 0 960)">
   <path fill="currentColor"
d="M512 789l-296 -170v-342l296 -170l296 170v342zM276 585h472l-236 -410l-118 205zM512 516q-28 0 -48 -20t-20 -48v0v0v0v0v0q0 -28 20 -48t48 -20v0q28 0 48 20t20 48v0v0v0v0v0q0 28 -20 48t-48 20v0z" />
  </g>

</svg>
