<?xml version="1.0" standalone="no"?>
<!DOCTYPE svg PUBLIC "-//W3C//DTD SVG 1.1//EN" "http://www.w3.org/Graphics/SVG/1.1/DTD/svg11.dtd" >
<svg xmlns="http://www.w3.org/2000/svg" xmlns:xlink="http://www.w3.org/1999/xlink" version="1.1" viewBox="0 -64 1024 1024" width="512" height="512">
  <g transform="matrix(1 0 0 -1 0 960)">
   <path fill="currentColor"
d="M730 347l3 -2v-250l-217 -126l-217 126v250v1l-217 125v251l217 125l215 -124l215 124l217 -125v-251zM232 484q0 -15 5.5 -26.5t16.5 -20.5q10 -8 24.5 -12.5t33.5 -4.5q18 0 32 4.5t24 13.5q10 8 15 19t5 24q0 12 -4.5 22t-12.5 16q-6 5 -14 8.5t-19 5.5l-32 8
q-10 2 -16 4t-9 4q-4 2 -6.5 6t-2.5 9q0 6 2.5 10t6.5 7q5 3 11 4.5t14 1.5q6 0 12 -1t11 -3q7 -4 10.5 -10t4.5 -15h38q-1 16 -6.5 27.5t-16.5 18.5q-10 8 -23 12t-28 4q-18 0 -31.5 -4t-22.5 -12q-9 -9 -14 -19.5t-5 -23.5q0 -14 5 -24t15 -17q5 -4 15.5 -7.5t24.5 -6.5
l21 -5q8 -2 14.5 -4t10.5 -5q4 -2 6.5 -6t2.5 -8q0 -8 -4.5 -13.5t-12.5 -8.5q-4 -2 -10 -2.5t-13 -0.5q-11 0 -19.5 3t-13.5 8q-2 4 -4 8.5t-3 11.5h-38zM414 425h39v190h-39v-190zM477 425h147v34h-99l99 124v32h-145v-34h96l-98 -122v-34zM791 615h-139v-190h144v34h-105
v49h92v33h-92v40h100v34zM577 162v32h-82q2 3 4 5.5t5 4.5q2 3 7 6.5t12 8.5l14 10q10 7 16.5 12.5t10.5 11.5q6 8 9 17t3 20q0 13 -4 24t-13 19t-20.5 12t-26.5 4q-19 0 -32 -7t-20 -21q-4 -7 -6 -16.5t-3 -21.5h36q0 8 1 13.5t3 9.5q3 6 8.5 9t14.5 3q6 0 10.5 -2t7.5 -5
q4 -4 5.5 -9t1.5 -11q0 -7 -3 -14t-9 -13q-3 -4 -11.5 -10.5t-20.5 -15.5q-15 -10 -24 -20t-13 -19t-6.5 -18t-2.5 -19h128z" />
  </g>

</svg>
