<?xml version="1.0" standalone="no"?>
<!DOCTYPE svg PUBLIC "-//W3C//DTD SVG 1.1//EN" "http://www.w3.org/Graphics/SVG/1.1/DTD/svg11.dtd" >
<svg xmlns="http://www.w3.org/2000/svg" xmlns:xlink="http://www.w3.org/1999/xlink" version="1.1" viewBox="0 -64 1024 1024" width="512" height="512">
  <g transform="matrix(1 0 0 -1 0 960)">
   <path fill="currentColor"
d="M512 928q-9 -77 -31 -140t-35 -109q-13 -4 -25.5 -9t-24.5 -12q-42 23 -102.5 52t-120.5 77q48 -60 77 -120.5t52 -102.5q-7 -12 -12 -24.5t-9 -25.5q-46 -13 -109 -35t-140 -31q77 -9 140 -31t109 -35q4 -13 9 -25.5t12 -24.5q-23 -42 -52 -102.5t-77 -120.5
q60 48 120.5 77t102.5 52q12 -7 24.5 -12t25.5 -9q13 -46 35 -109t31 -140q9 77 31 140t35 109q13 4 25.5 9t24.5 12q42 -23 102.5 -52t120.5 -77q-48 60 -77 120.5t-52 102.5q7 12 12 24.5t9 25.5q46 13 109 35t140 31q-77 9 -140 31t-109 35q-4 13 -9 25.5t-12 24.5
q23 42 52 102.5t77 120.5q-60 -48 -120.5 -77t-102.5 -52q-12 7 -24.5 12t-25.5 9q-13 46 -35 109t-31 140zM512 568q25 0 47 -9t38 -26q17 -16 26 -38t9 -47t-9 -47t-26 -38q-16 -17 -38 -26t-47 -9t-47 9t-38 26q-17 16 -26 38t-9 47t9 47t26 38q16 17 38 26t47 9z" />
  </g>

</svg>
