<?xml version="1.0" encoding="UTF-8" standalone="no"?>
<!-- Created with Inkscape (http://www.inkscape.org/) -->

<svg
   xmlns:dc="http://purl.org/dc/elements/1.1/"
   xmlns:cc="http://creativecommons.org/ns#"
   xmlns:rdf="http://www.w3.org/1999/02/22-rdf-syntax-ns#"
   xmlns:svg="http://www.w3.org/2000/svg"
   xmlns="http://www.w3.org/2000/svg"
   xmlns:sodipodi="http://sodipodi.sourceforge.net/DTD/sodipodi-0.dtd"
   xmlns:inkscape="http://www.inkscape.org/namespaces/inkscape"
   width="7.9375mm"
   height="7.93751mm"
   viewBox="0 0 7.9375 7.93751"
   version="1.1"
   id="svg8"
   inkscape:version="0.92.4 (5da689c313, 2019-01-14)"
   sodipodi:docname="structure.svg">
  <defs
     id="defs2" />
  <sodipodi:namedview
     id="base"
     pagecolor="#ffffff"
     bordercolor="#666666"
     borderopacity="1.0"
     inkscape:pageopacity="0.0"
     inkscape:pageshadow="2"
     inkscape:zoom="22.627418"
     inkscape:cx="21.874066"
     inkscape:cy="14.25793"
     inkscape:document-units="mm"
     inkscape:current-layer="layer1"
     showgrid="false"
     inkscape:snap-bbox="true"
     inkscape:snap-bbox-edge-midpoints="false"
     inkscape:object-paths="false"
     inkscape:snap-smooth-nodes="true"
     inkscape:snap-bbox-midpoints="true"
     inkscape:window-width="1920"
     inkscape:window-height="1057"
     inkscape:window-x="-8"
     inkscape:window-y="-8"
     inkscape:window-maximized="1"
     inkscape:bbox-paths="true"
     inkscape:snap-global="true">
    <inkscape:grid
       type="xygrid"
       id="grid4518"
       originx="-736.8646"
       originy="-1650.9999" />
  </sodipodi:namedview>
  <metadata
     id="metadata5">
    <rdf:RDF>
      <cc:Work
         rdf:about="">
        <dc:format>image/svg+xml</dc:format>
        <dc:type
           rdf:resource="http://purl.org/dc/dcmitype/StillImage" />
        <dc:title />
      </cc:Work>
    </rdf:RDF>
  </metadata>
  <g
     inkscape:label="icons"
     inkscape:groupmode="layer"
     id="layer1"
     style="display:inline"
     transform="translate(-56.885417,-154.125)">
    <path
       style="color:#000000;font-style:normal;font-variant:normal;font-weight:normal;font-stretch:normal;font-size:medium;line-height:normal;font-family:sans-serif;font-variant-ligatures:normal;font-variant-position:normal;font-variant-caps:normal;font-variant-numeric:normal;font-variant-alternates:normal;font-feature-settings:normal;text-indent:0;text-align:start;text-decoration:none;text-decoration-line:none;text-decoration-style:solid;text-decoration-color:#000000;letter-spacing:normal;word-spacing:normal;text-transform:none;writing-mode:lr-tb;direction:ltr;text-orientation:mixed;dominant-baseline:auto;baseline-shift:baseline;text-anchor:start;white-space:normal;shape-padding:0;clip-rule:nonzero;display:inline;overflow:visible;visibility:visible;opacity:1;isolation:auto;mix-blend-mode:normal;color-interpolation:sRGB;color-interpolation-filters:linearRGB;solid-color:#000000;solid-opacity:1;vector-effect:none;fill:#000000;fill-opacity:1;fill-rule:nonzero;stroke:none;stroke-width:0.5291667;stroke-linecap:butt;stroke-linejoin:miter;stroke-miterlimit:4;stroke-dasharray:none;stroke-dashoffset:0;stroke-opacity:1;color-rendering:auto;image-rendering:auto;shape-rendering:auto;text-rendering:auto;enable-background:accumulate"
       d="m 60.85365,155.0743 c -1.006485,1.00648 -2.012969,2.01297 -3.019454,3.01945 1.005945,1.00702 2.013053,2.01289 3.019454,3.01945 1.007174,-1.00648 2.014347,-2.01297 3.021521,-3.01945 -1.007174,-1.00648 -2.014347,-2.01297 -3.021521,-3.01945 z m 0,0.74775 c 0.75706,0.75724 1.51412,1.51447 2.271179,2.2717 -0.757059,0.75723 -1.514119,1.51446 -2.271179,2.2717 -0.757232,-0.75724 -1.514464,-1.51447 -2.271696,-2.2717 0.757232,-0.75723 1.514464,-1.51446 2.271696,-2.2717 z m 5.17e-4,0.6842 c -0.08418,0.0956 -0.200531,0.17778 -0.264583,0.28167 0,0.34708 0,0.69416 0,1.04125 -0.352778,0 -0.705556,0 -1.058334,0 -0.08819,0.0882 -0.176389,0.17639 -0.264583,0.26458 0.09555,0.0842 0.177778,0.20053 0.281667,0.26458 0.347083,0 0.694166,0 1.04125,0 0,0.35278 0,0.70556 0,1.05834 0.08819,0.0882 0.176389,0.17639 0.264583,0.26458 0.08419,-0.0956 0.200531,-0.17778 0.264583,-0.28167 0,-0.34708 0,-0.69416 0,-1.04125 0.352778,0 0.705556,0 1.058334,0 0.08819,-0.0882 0.176389,-0.17639 0.264583,-0.26458 -0.09555,-0.0842 -0.177778,-0.20053 -0.281667,-0.26458 -0.347083,0 -0.694166,0 -1.04125,0 0,-0.35278 0,-0.70556 0,-1.05834 -0.08819,-0.0882 -0.176389,-0.17639 -0.264583,-0.26458 z"
       id="path6511"
       inkscape:connector-curvature="0" />
  </g>
</svg>
