<?xml version="1.0" standalone="no"?>
<!DOCTYPE svg PUBLIC "-//W3C//DTD SVG 1.1//EN" "http://www.w3.org/Graphics/SVG/1.1/DTD/svg11.dtd" >
<svg xmlns="http://www.w3.org/2000/svg" xmlns:xlink="http://www.w3.org/1999/xlink" version="1.1" viewBox="0 -64 1024 1024" width="512" height="512">
  <g transform="matrix(1 0 0 -1 0 960)">
   <path fill="currentColor"
d="M404 903q-13 0 -22.5 -9.5t-9.5 -23.5q0 -13 9 -22.5t23 -9.5q6 0 11.5 2t9.5 5l117 -43l-21 -60l35 -13l9 27l320 -116l104 19l-66 82l-320 117l9 27l-35 12l-22 -60l-120 44q-3 10 -11.5 16t-19.5 6v0zM590 823l248 -90l22 -27l-30 -7l-252 92l12 32v0zM327 761
q-14 0 -23.5 -9.5t-9.5 -23.5q0 -13 9.5 -22.5t23.5 -9.5q3 0 5.5 0.5t4.5 0.5v0l105 -74l-36 -53l30 -21l16 23l279 -195l106 -8l-42 96l-280 196l16 23l-31 22l-36 -53l-105 73v1.5v0.5q0 14 -9.5 23.5t-22.5 9.5v0zM221 633q-13 0 -22.5 -9.5t-9.5 -23.5q0 -13 9.5 -22.5
t22.5 -9.5h3h3l74 -88l-49 -41l24 -29l21 19l220 -262l99 -33l-16 104l-219 260l21 19l-24 28l-49 -41l-76 91q1 1 1 2.5v2.5q0 14 -9.5 23.5t-23.5 9.5v0zM493 630l215 -150l14 -31l-31 2l-217 152l19 27v0zM86 545q-14 0 -23.5 -9.5t-9.5 -23.5q0 -11 7 -20t18 -11
l48 -104l-58 -27l16 -33l26 12l144 -310l87 -58l11 105l-144 309l26 11l-16 34l-58 -27l-47 101q2 4 3.5 8.5t1.5 10.5q0 13 -9.5 22.5t-22.5 9.5v0zM352 474l168 -200l6 -33l-31 10l-169 202l26 21v0zM174 359l110 -235l-3 -34l-27 17l-110 237l30 15v0z" />
  </g>

</svg>
