<?xml version="1.0" encoding="UTF-8" standalone="no"?>
<svg
   xmlns:dc="http://purl.org/dc/elements/1.1/"
   xmlns:cc="http://creativecommons.org/ns#"
   xmlns:rdf="http://www.w3.org/1999/02/22-rdf-syntax-ns#"
   xmlns:svg="http://www.w3.org/2000/svg"
   xmlns="http://www.w3.org/2000/svg"
   xmlns:sodipodi="http://sodipodi.sourceforge.net/DTD/sodipodi-0.dtd"
   xmlns:inkscape="http://www.inkscape.org/namespaces/inkscape"
   version="1.1"
   viewBox="0 -64 1024 1024"
   width="512"
   height="512"
   id="svg6"
   sodipodi:docname="condition_lockon.svg"
   inkscape:version="0.92.4 (5da689c313, 2019-01-14)">
  <metadata
     id="metadata12">
    <rdf:RDF>
      <cc:Work
         rdf:about="">
        <dc:format>image/svg+xml</dc:format>
        <dc:type
           rdf:resource="http://purl.org/dc/dcmitype/StillImage" />
      </cc:Work>
    </rdf:RDF>
  </metadata>
  <defs
     id="defs10" />
  <sodipodi:namedview
     pagecolor="#ffffff"
     bordercolor="#666666"
     borderopacity="1"
     objecttolerance="10"
     gridtolerance="10"
     guidetolerance="10"
     inkscape:pageopacity="0"
     inkscape:pageshadow="2"
     inkscape:window-width="1920"
     inkscape:window-height="1017"
     id="namedview8"
     showgrid="false"
     inkscape:zoom="0.4609375"
     inkscape:cx="-141.19191"
     inkscape:cy="256"
     inkscape:window-x="-8"
     inkscape:window-y="-8"
     inkscape:window-maximized="1"
     inkscape:current-layer="svg6" />
  <g
     transform="matrix(1,0,0,-1,0,896)"
     id="g4"
     style="fill:#ffffff">
    <path
       d="M 478,823 V 550 l 34,-34 34,34 V 823 H 478 Z M 273,687 V 550 h 68 v 69 h 69 v 68 H 273 Z m 341,0 v -68 h 69 v -69 h 68 V 687 H 614 Z M 410,482 H 137 v -68 h 273 l 34,34 -34,34 z m 204,0 -34,-34 34,-34 h 273 v 68 H 614 Z M 512,380 478,346 V 73 h 68 v 273 l -34,34 z M 273,346 V 209 h 137 v 68 h -69 v 69 h -68 z m 410,0 v -69 h -69 v -68 h 137 v 137 h -68 z"
       id="path2"
       style="fill:#ffffff"
       inkscape:connector-curvature="0" />
  </g>
</svg>
