<?xml version="1.0" encoding="UTF-8" standalone="no"?>
<svg
   version="1.1"
   viewBox="0 -64 1024 1024"
   width="512"
   height="512"
   id="svg1"
   sodipodi:docname="ammo.svg"
   inkscape:version="1.3.1 (91b66b0783, 2023-11-16)"
   xmlns:inkscape="http://www.inkscape.org/namespaces/inkscape"
   xmlns:sodipodi="http://sodipodi.sourceforge.net/DTD/sodipodi-0.dtd"
   xmlns="http://www.w3.org/2000/svg"
   xmlns:svg="http://www.w3.org/2000/svg">
  <defs
     id="defs1" />
  <sodipodi:namedview
     id="namedview1"
     pagecolor="#ffffff"
     bordercolor="#000000"
     borderopacity="0.25"
     inkscape:showpageshadow="2"
     inkscape:pageopacity="0.0"
     inkscape:pagecheckerboard="0"
     inkscape:deskcolor="#d1d1d1"
     inkscape:zoom="1.6230469"
     inkscape:cx="255.69194"
     inkscape:cy="256"
     inkscape:window-width="1920"
     inkscape:window-height="1009"
     inkscape:window-x="1912"
     inkscape:window-y="-8"
     inkscape:window-maximized="1"
     inkscape:current-layer="svg1" />
  <g
     transform="matrix(1 0 0 -1 0 960)"
     id="g1"
     style="fill:#ffffff">
    <path
       fill="currentColor"
       d="M183 606q-9 -35 6.5 -104.5t53.5 -136.5l5 -76l51 -89l178 103l-52 88l-63 42q-39 67 -91.5 115.5t-87.5 57.5v0zM360 709q-9 -35 6.5 -105t54.5 -136l63 -42l52 -89l118 68l-51 89l-64 42q-38 66 -91 114.5t-88 58.5v0zM538 811q-10 -35 6 -105t54 -136l64 -42l51 -89 l118 69l-51 88l-64 42q-38 67 -90.5 115.5t-87.5 57.5v0zM333 141l34 -59l178 102l-34 60zM570 278l34 -59l118 68l-34 59zM747 380l34 -59l118 68l-34 59z"
       id="path1"
       style="fill:#ffffff" />
  </g>
</svg>
