<?xml version="1.0" encoding="UTF-8" standalone="no"?>
<svg
   version="1.1"
   viewBox="0 -64 1024 1024"
   width="512"
   height="512"
   id="svg1"
   sodipodi:docname="ammo.svg"
   inkscape:version="1.2.2 (732a01da63, 2022-12-09)"
   xmlns:inkscape="http://www.inkscape.org/namespaces/inkscape"
   xmlns:sodipodi="http://sodipodi.sourceforge.net/DTD/sodipodi-0.dtd"
   xmlns="http://www.w3.org/2000/svg"
   xmlns:svg="http://www.w3.org/2000/svg">
  <defs
     id="defs1" />
  <sodipodi:namedview
     id="namedview1"
     pagecolor="#ffffff"
     bordercolor="#000000"
     borderopacity="0.25"
     inkscape:showpageshadow="2"
     inkscape:pageopacity="0.0"
     inkscape:pagecheckerboard="0"
     inkscape:deskcolor="#d1d1d1"
     inkscape:zoom="1.6230469"
     inkscape:cx="236.28399"
     inkscape:cy="256.30806"
     inkscape:window-width="1920"
     inkscape:window-height="1009"
     inkscape:window-x="-8"
     inkscape:window-y="-8"
     inkscape:window-maximized="1"
     inkscape:current-layer="svg1"
     showgrid="false" />
  <g
     transform="matrix(1,0,0,-1,-27.346939,894.5)"
     id="g1"
     style="fill:#ffffff">
    <path
       fill="currentColor"
       d="M 183,606 Q 174,571 189.5,501.5 205,432 243,365 l 5,-76 51,-89 178,103 -52,88 -63,42 Q 323,500 270.5,548.5 218,597 183,606 Z M 360,709 Q 351,674 366.5,604 382,534 421,468 l 63,-42 52,-89 118,68 -51,89 -64,42 Q 501,602 448,650.5 395,699 360,709 Z m 178,102 q -10,-35 6,-105 16,-70 54,-136 l 64,-42 51,-89 118,69 -51,88 -64,42 Q 678,705 625.5,753.5 573,802 538,811 Z M 333,141 367,82 545,184 511,244 Z m 237,137 34,-59 118,68 -34,59 z m 177,102 34,-59 118,68 -34,59 z"
       id="path1"
       style="fill:#ffffff" />
  </g>
</svg>
