<?xml version="1.0" encoding="UTF-8" standalone="no"?>
<svg
   width="512"
   height="512"
   viewBox="0 0 24 24"
   version="1.1"
   id="svg1"
   sodipodi:docname="bond.svg"
   inkscape:version="1.4.2 (ebf0e940d0, 2025-05-08)"
   xmlns:inkscape="http://www.inkscape.org/namespaces/inkscape"
   xmlns:sodipodi="http://sodipodi.sourceforge.net/DTD/sodipodi-0.dtd"
   xmlns="http://www.w3.org/2000/svg"
   xmlns:svg="http://www.w3.org/2000/svg">
  <defs
     id="defs1" />
  <sodipodi:namedview
     id="namedview1"
     pagecolor="#ffffff"
     bordercolor="#000000"
     borderopacity="0.25"
     inkscape:showpageshadow="2"
     inkscape:pageopacity="0.0"
     inkscape:pagecheckerboard="0"
     inkscape:deskcolor="#d1d1d1"
     inkscape:zoom="2.8945312"
     inkscape:cx="256"
     inkscape:cy="256"
     inkscape:window-width="2048"
     inkscape:window-height="2235"
     inkscape:window-x="0"
     inkscape:window-y="0"
     inkscape:window-maximized="1"
     inkscape:current-layer="svg1" />
  <path
     d="M3 1C1.89 1 1 1.89 1 3V14C1 15.11 1.89 16 3 16H14C15.11 16 16 15.11 16 14V11H14V14H3V3H14V5H16V3C16 1.89 15.11 1 14 1M9 7C7.89 7 7 7.89 7 9V12H9V9H20V20H9V18H7V20C7 21.11 7.89 22 9 22H20C21.11 22 22 21.11 22 20V9C22 7.89 21.11 7 20 7H9"
     id="path1"
     style="fill:#ffffff;fill-opacity:1" />
</svg>
