<?xml version="1.0" encoding="UTF-8" standalone="no"?>
<svg
   version="1.1"
   viewBox="0 -64 1024 1024"
   width="512"
   height="512"
   id="svg1"
   sodipodi:docname="campaign.svg"
   inkscape:version="1.3.1 (91b66b0783, 2023-11-16)"
   xmlns:inkscape="http://www.inkscape.org/namespaces/inkscape"
   xmlns:sodipodi="http://sodipodi.sourceforge.net/DTD/sodipodi-0.dtd"
   xmlns="http://www.w3.org/2000/svg"
   xmlns:svg="http://www.w3.org/2000/svg">
  <defs
     id="defs1" />
  <sodipodi:namedview
     id="namedview1"
     pagecolor="#ffffff"
     bordercolor="#000000"
     borderopacity="0.25"
     inkscape:showpageshadow="2"
     inkscape:pageopacity="0.0"
     inkscape:pagecheckerboard="0"
     inkscape:deskcolor="#d1d1d1"
     inkscape:zoom="1.6230469"
     inkscape:cx="255.69194"
     inkscape:cy="256"
     inkscape:window-width="1920"
     inkscape:window-height="1009"
     inkscape:window-x="3832"
     inkscape:window-y="-8"
     inkscape:window-maximized="1"
     inkscape:current-layer="svg1" />
  <g
     transform="matrix(1 0 0 -1 0 960)"
     id="g1"
     style="fill:#ffffff">
    <path
       fill="currentColor"
       d="M783 758q-35 0 -84.5 -22t-106.5 -61l-2 -1q-17 6 -37 9.5t-41 3.5q-50 0 -93.5 -19t-75.5 -51v0q-32 -32 -51 -75.5t-19 -93.5q0 -19 3 -38t9 -37v2q-65 -90 -90 -160.5t3 -98.5v0q29 -29 103.5 -1.5t167.5 96.5l2 2q9 -2 19.5 -3t21.5 -1q50 0 93.5 19t75.5 51v0 q32 32 51 75.5t19 93.5q0 12 -1.5 24t-3.5 24v-2q62 87 84.5 154.5t-4.5 95.5v0v0v0q-8 7 -19 11t-25 3h1v0zM733 721q8 1 15.5 -1.5t11.5 -7.5v0q16 -15 4 -53.5t-45 -90.5v-1q-8 14 -17.5 26.5t-20.5 23.5v0q-15 15 -33 27.5t-38 21.5l-1 1q38 25 69.5 39t53.5 15h1v0z M291 357q10 -23 23 -42.5t29 -35.5v0q12 -12 25.5 -22t27.5 -18l2 -1q-61 -42 -106 -58t-63 1v0q-17 18 0.5 65t61.5 110v1v0z"
       id="path1"
       style="fill:#ffffff" />
  </g>
</svg>
