<?xml version="1.0" encoding="UTF-8" standalone="no"?>
<svg
   version="1.1"
   viewBox="0 -64 1024 1024"
   width="512"
   height="512"
   id="svg1"
   sodipodi:docname="campaign.svg"
   inkscape:version="1.2.2 (732a01da63, 2022-12-09)"
   xmlns:inkscape="http://www.inkscape.org/namespaces/inkscape"
   xmlns:sodipodi="http://sodipodi.sourceforge.net/DTD/sodipodi-0.dtd"
   xmlns="http://www.w3.org/2000/svg"
   xmlns:svg="http://www.w3.org/2000/svg">
  <defs
     id="defs1" />
  <sodipodi:namedview
     id="namedview1"
     pagecolor="#ffffff"
     bordercolor="#000000"
     borderopacity="0.25"
     inkscape:showpageshadow="2"
     inkscape:pageopacity="0.0"
     inkscape:pagecheckerboard="0"
     inkscape:deskcolor="#d1d1d1"
     inkscape:zoom="1.6230469"
     inkscape:cx="236.28399"
     inkscape:cy="256.30806"
     inkscape:window-width="1920"
     inkscape:window-height="1009"
     inkscape:window-x="-8"
     inkscape:window-y="-8"
     inkscape:window-maximized="1"
     inkscape:current-layer="svg1"
     showgrid="false" />
  <g
     transform="matrix(1,0,0,-1,0.03259005,877.65752)"
     id="g1"
     style="fill:#ffffff">
    <path
       fill="currentColor"
       d="M 783,758 Q 748,758 698.5,736 649,714 592,675 l -2,-1 q -17,6 -37,9.5 -20,3.5 -41,3.5 -50,0 -93.5,-19 Q 375,649 343,617 v 0 Q 311,585 292,541.5 273,498 273,448 q 0,-19 3,-38 3,-19 9,-37 v 2 Q 220,285 195,214.5 170,144 198,116 v 0 Q 227,87 301.5,114.5 376,142 469,211 l 2,2 q 9,-2 19.5,-3 10.5,-1 21.5,-1 50,0 93.5,19 43.5,19 75.5,51 v 0 q 32,32 51,75.5 19,43.5 19,93.5 0,12 -1.5,24 -1.5,12 -3.5,24 v -2 q 62,87 84.5,154.5 Q 853,716 826,744 v 0 0 0 q -8,7 -19,11 -11,4 -25,3 z m -50,-37 q 8,1 15.5,-1.5 Q 756,717 760,712 v 0 q 16,-15 4,-53.5 Q 752,620 719,568 v -1 q -8,14 -17.5,26.5 Q 692,606 681,617 v 0 q -15,15 -33,27.5 -18,12.5 -38,21.5 l -1,1 q 38,25 69.5,39 31.5,14 53.5,15 z M 291,357 q 10,-23 23,-42.5 13,-19.5 29,-35.5 v 0 q 12,-12 25.5,-22 13.5,-10 27.5,-18 l 2,-1 q -61,-42 -106,-58 -45,-16 -63,1 v 0 q -17,18 0.5,65 17.5,47 61.5,110 z"
       id="path1"
       style="fill:#ffffff" />
  </g>
</svg>
