<?xml version="1.0" encoding="UTF-8" standalone="no"?>
<svg
   xmlns:dc="http://purl.org/dc/elements/1.1/"
   xmlns:cc="http://creativecommons.org/ns#"
   xmlns:rdf="http://www.w3.org/1999/02/22-rdf-syntax-ns#"
   xmlns:svg="http://www.w3.org/2000/svg"
   xmlns="http://www.w3.org/2000/svg"
   xmlns:sodipodi="http://sodipodi.sourceforge.net/DTD/sodipodi-0.dtd"
   xmlns:inkscape="http://www.inkscape.org/namespaces/inkscape"
   version="1.1"
   viewBox="0 -64 1024 1024"
   width="512"
   height="512"
   id="svg6"
   sodipodi:docname="condition_slow.svg"
   inkscape:version="0.92.4 (5da689c313, 2019-01-14)">
  <metadata
     id="metadata12">
    <rdf:RDF>
      <cc:Work
         rdf:about="">
        <dc:format>image/svg+xml</dc:format>
        <dc:type
           rdf:resource="http://purl.org/dc/dcmitype/StillImage" />
      </cc:Work>
    </rdf:RDF>
  </metadata>
  <defs
     id="defs10" />
  <sodipodi:namedview
     pagecolor="#ffffff"
     bordercolor="#666666"
     borderopacity="1"
     objecttolerance="10"
     gridtolerance="10"
     guidetolerance="10"
     inkscape:pageopacity="0"
     inkscape:pageshadow="2"
     inkscape:window-width="1920"
     inkscape:window-height="1017"
     id="namedview8"
     showgrid="false"
     inkscape:zoom="0.4609375"
     inkscape:cx="-96.542373"
     inkscape:cy="256"
     inkscape:window-x="-8"
     inkscape:window-y="-8"
     inkscape:window-maximized="1"
     inkscape:current-layer="svg6" />
  <g
     transform="matrix(1,0,0,-1,0,896)"
     id="g4"
     style="fill:#ffffff">
    <path
       d="M 512,806 Q 499,806 484,793.5 469,781 444,755 L 205,516 q -51,-51 -51,-68 0,-17 51,-68 L 444,141 q 51,-51 68,-51 17,0 68,51 l 239,239 q 51,51 51,68 0,17 -51,68 L 580,755 Q 555,781 540,793.5 525,806 512,806 Z M 432,550 q 21,0 36.5,-9.5 Q 484,531 496,520 q 12,-12 22.5,-25 10.5,-13 20.5,-26 10,-13 19,-24.5 9,-11.5 17,-18.5 8,-8 12.5,-10 l 4.5,-2 q 11,0 22,6.5 11,6.5 24,20.5 13,14 26,31.5 13,17.5 29,33.5 l 48,-48 Q 731,448 718,430.5 705,413 688,395 671,377 647.5,361.5 624,346 592,346 571,346 555.5,355.5 540,365 528,377 q -12,11 -22.5,24 -10.5,13 -20.5,26 -10,13 -19,24.5 -9,11.5 -17,18.5 -8,8 -12.5,10 l -4.5,2 q -11,0 -22,-6.5 Q 399,469 386,455 373,441 360,423 347,405 331,390 l -48,48 q 10,10 23,27.5 13,17.5 30,35.5 17,18 40.5,33.5 Q 400,550 432,550 Z"
       id="path2"
       style="fill:#ffffff"
       inkscape:connector-curvature="0" />
  </g>
</svg>
