<?xml version="1.0" encoding="UTF-8" standalone="no"?>
<svg
   xmlns:dc="http://purl.org/dc/elements/1.1/"
   xmlns:cc="http://creativecommons.org/ns#"
   xmlns:rdf="http://www.w3.org/1999/02/22-rdf-syntax-ns#"
   xmlns:svg="http://www.w3.org/2000/svg"
   xmlns="http://www.w3.org/2000/svg"
   xmlns:sodipodi="http://sodipodi.sourceforge.net/DTD/sodipodi-0.dtd"
   xmlns:inkscape="http://www.inkscape.org/namespaces/inkscape"
   version="1.1"
   viewBox="0 -64 1024 1024"
   width="512"
   height="512"
   id="svg6"
   sodipodi:docname="condition_stunned.svg"
   inkscape:version="0.92.4 (5da689c313, 2019-01-14)">
  <metadata
     id="metadata12">
    <rdf:RDF>
      <cc:Work
         rdf:about="">
        <dc:format>image/svg+xml</dc:format>
        <dc:type
           rdf:resource="http://purl.org/dc/dcmitype/StillImage" />
      </cc:Work>
    </rdf:RDF>
  </metadata>
  <defs
     id="defs10" />
  <sodipodi:namedview
     pagecolor="#ffffff"
     bordercolor="#666666"
     borderopacity="1"
     objecttolerance="10"
     gridtolerance="10"
     guidetolerance="10"
     inkscape:pageopacity="0"
     inkscape:pageshadow="2"
     inkscape:window-width="1920"
     inkscape:window-height="1017"
     id="namedview8"
     showgrid="false"
     inkscape:zoom="0.4609375"
     inkscape:cx="-96.542373"
     inkscape:cy="256"
     inkscape:window-x="-8"
     inkscape:window-y="-8"
     inkscape:window-maximized="1"
     inkscape:current-layer="svg6" />
  <g
     transform="matrix(1,0,0,-1,0,896)"
     id="g4"
     style="fill:#ffffff">
    <path
       d="M 512,789 Q 441,789 379,763 317,736 270.5,689.5 224,643 198,581 171,519 171,448 171,377 198,315 224,253 270.5,206.5 317,160 379,133 q 62,-26 133,-26 70,0 133,26 62,27 108.5,73.5 Q 800,253 826,315 q 27,62 27,133 0,71 -27,133 -26,62 -72.5,108.5 Q 707,736 645,763 582,789 512,789 Z m 0,-68 q 57,0 106,-21 50,-22 87,-59 37,-37 59,-87 21,-49 21,-106 0,-57 -21,-106 -22,-50 -59,-87 -37,-37 -87,-59 -49,-21 -106,-21 -57,0 -106,21 -50,22 -87,59 -37,37 -59,87 -21,49 -21,106 0,57 21,106 22,50 59,87 37,37 87,59 49,21 106,21 z M 424,633 Q 392,617 367.5,592.5 343,568 328,537 l -1,-1 88,-88 -88,-88 Q 343,328 367.5,303.5 392,279 423,264 l 1,-1 88,88 88,-88 q 32,16 56.5,40.5 Q 681,328 696,359 l 1,1 -88,88 88,88 Q 681,568 656.5,592.5 632,617 601,632 l -1,1 -88,-88 -88,88 z"
       id="path2"
       style="fill:#ffffff"
       inkscape:connector-curvature="0" />
  </g>
</svg>
