<?xml version="1.0" encoding="UTF-8" standalone="no"?>
<svg
   version="1.1"
   viewBox="0 -64 1024 1024"
   width="512"
   height="512"
   id="svg1"
   sodipodi:docname="damage_kinetic.svg"
   inkscape:version="1.3.1 (91b66b0783, 2023-11-16)"
   xmlns:inkscape="http://www.inkscape.org/namespaces/inkscape"
   xmlns:sodipodi="http://sodipodi.sourceforge.net/DTD/sodipodi-0.dtd"
   xmlns="http://www.w3.org/2000/svg"
   xmlns:svg="http://www.w3.org/2000/svg">
  <defs
     id="defs1" />
  <sodipodi:namedview
     id="namedview1"
     pagecolor="#ffffff"
     bordercolor="#000000"
     borderopacity="0.25"
     inkscape:showpageshadow="2"
     inkscape:pageopacity="0.0"
     inkscape:pagecheckerboard="0"
     inkscape:deskcolor="#d1d1d1"
     inkscape:zoom="1.6230469"
     inkscape:cx="255.69194"
     inkscape:cy="256"
     inkscape:window-width="1920"
     inkscape:window-height="1009"
     inkscape:window-x="3832"
     inkscape:window-y="-8"
     inkscape:window-maximized="1"
     inkscape:current-layer="svg1" />
  <g
     transform="matrix(1 0 0 -1 0 960)"
     id="g1"
     style="fill:#ffffff">
    <path
       fill="currentColor"
       d="M751 448q0 -48 -19.5 -93t-50.5 -76t-76 -50.5t-93 -19.5t-93 19.5t-76 50.5t-50.5 76t-19.5 93t19.5 93t50.5 76t76 50.5t93 19.5t93 -19.5t76 -50.5t50.5 -76t19.5 -93zM633 569q-25 24 -54.5 37t-66.5 13t-66.5 -13t-54.5 -37q-24 -25 -37 -54.5t-13 -66.5t13 -66.5 t37 -54.5q25 -24 54.5 -37t66.5 -13t66.5 13t54.5 37q24 25 37 54.5t13 66.5t-13 66.5t-37 54.5v0zM171 107q102 64 198 140q95 76 181.5 162.5t162.5 181.5q76 96 140 198q-102 -64 -198 -140q-95 -76 -181.5 -162.5t-162.5 -181.5q-76 -96 -140 -198v0z"
       id="path1"
       style="fill:#ffffff" />
  </g>
</svg>
