<?xml version="1.0" encoding="UTF-8" standalone="no"?>
<svg
   version="1.1"
   viewBox="0 -64 1024 1024"
   width="512"
   height="512"
   id="svg1"
   sodipodi:docname="damage_variable.svg"
   inkscape:version="1.3.1 (91b66b0783, 2023-11-16)"
   xmlns:inkscape="http://www.inkscape.org/namespaces/inkscape"
   xmlns:sodipodi="http://sodipodi.sourceforge.net/DTD/sodipodi-0.dtd"
   xmlns="http://www.w3.org/2000/svg"
   xmlns:svg="http://www.w3.org/2000/svg">
  <defs
     id="defs1" />
  <sodipodi:namedview
     id="namedview1"
     pagecolor="#ffffff"
     bordercolor="#000000"
     borderopacity="0.25"
     inkscape:showpageshadow="2"
     inkscape:pageopacity="0.0"
     inkscape:pagecheckerboard="0"
     inkscape:deskcolor="#d1d1d1"
     inkscape:zoom="1.6230469"
     inkscape:cx="255.69194"
     inkscape:cy="256"
     inkscape:window-width="1920"
     inkscape:window-height="1009"
     inkscape:window-x="3832"
     inkscape:window-y="-8"
     inkscape:window-maximized="1"
     inkscape:current-layer="svg1" />
  <g
     transform="matrix(1 0 0 -1 0 960)"
     id="g1"
     style="fill:#ffffff">
    <path
       fill="currentColor"
       d="M375 214q0 -42 -29.5 -71.5t-70.5 -29.5v0q-41 0 -70.5 29.5t-29.5 71.5v0q0 42 29.5 71.5t70.5 29.5v0q41 0 70.5 -29.5t29.5 -71.5v0zM851 687q0 -42 -29.5 -71.5t-70.5 -29.5v0q-41 0 -70.5 29.5t-29.5 71.5v0q0 42 29.5 71.5t70.5 29.5v0q41 0 70.5 -29.5t29.5 -71.5 v0zM612 448q0 -42 -29.5 -71.5t-70.5 -29.5v0q-41 0 -70.5 29.5t-29.5 71.5v0q0 42 29.5 71.5t70.5 29.5v0q41 0 70.5 -29.5t29.5 -71.5v0z"
       id="path1"
       style="fill:#ffffff" />
  </g>
</svg>
