<?xml version="1.0" encoding="UTF-8" standalone="no"?>
<svg
   version="1.1"
   viewBox="0 -64 1024 1024"
   width="512"
   height="512"
   id="svg1"
   sodipodi:docname="damage_burn.svg"
   inkscape:version="1.2.2 (732a01da63, 2022-12-09)"
   xmlns:inkscape="http://www.inkscape.org/namespaces/inkscape"
   xmlns:sodipodi="http://sodipodi.sourceforge.net/DTD/sodipodi-0.dtd"
   xmlns="http://www.w3.org/2000/svg"
   xmlns:svg="http://www.w3.org/2000/svg">
  <defs
     id="defs1" />
  <sodipodi:namedview
     id="namedview1"
     pagecolor="#ffffff"
     bordercolor="#000000"
     borderopacity="0.25"
     inkscape:showpageshadow="2"
     inkscape:pageopacity="0.0"
     inkscape:pagecheckerboard="0"
     inkscape:deskcolor="#d1d1d1"
     inkscape:zoom="1.6230469"
     inkscape:cx="236.28399"
     inkscape:cy="256.30806"
     inkscape:window-width="1920"
     inkscape:window-height="1009"
     inkscape:window-x="-8"
     inkscape:window-y="-8"
     inkscape:window-maximized="1"
     inkscape:current-layer="svg1"
     showgrid="false" />
  <g
     transform="matrix(1,0,0,-1,0,925.5)"
     id="g1"
     style="fill:#ffffff">
    <path
       fill="currentColor"
       d="m 546,858 -22,-23 q 0,0 -51,-55.5 Q 422,724 416,712 410,700 375,653 350,602 350.5,580 351,558 341,516 324,442 281.5,411 239,380 239,277 q 0,-75 44,-117 44,-42 98,-63 -17,17 -28.5,36.5 Q 341,153 341,175 q 0,27 22,63 21,35 46.5,66.5 Q 435,336 457,358 l 21,22 33,-20 Q 544,341 583.5,310.5 623,280 654,244 q 32,-36 29,-69 -2,-15 -8.5,-30 -6.5,-15 -15.5,-29 49,26 87.5,66 38.5,40 38.5,95 0,77 -16,135 -16,57 -35,95.5 -19,38.5 -35,57.5 l -16,20 9,-70 q 0,0 -43,-67 -26,1 -39.5,36.5 Q 596,520 580,550 q -25,52 -46.5,69 -21.5,17 -21.5,68 0,77 17,124 l 17,47 z"
       id="path1"
       style="fill:#ffffff" />
  </g>
</svg>
