<?xml version="1.0" encoding="UTF-8" standalone="no"?>
<svg
   version="1.1"
   viewBox="0 -64 1024 1024"
   width="512"
   height="512"
   id="svg1"
   sodipodi:docname="damage_burn.svg"
   inkscape:version="1.3.1 (91b66b0783, 2023-11-16)"
   xmlns:inkscape="http://www.inkscape.org/namespaces/inkscape"
   xmlns:sodipodi="http://sodipodi.sourceforge.net/DTD/sodipodi-0.dtd"
   xmlns="http://www.w3.org/2000/svg"
   xmlns:svg="http://www.w3.org/2000/svg">
  <defs
     id="defs1" />
  <sodipodi:namedview
     id="namedview1"
     pagecolor="#ffffff"
     bordercolor="#000000"
     borderopacity="0.25"
     inkscape:showpageshadow="2"
     inkscape:pageopacity="0.0"
     inkscape:pagecheckerboard="0"
     inkscape:deskcolor="#d1d1d1"
     inkscape:zoom="1.6230469"
     inkscape:cx="255.69194"
     inkscape:cy="256"
     inkscape:window-width="1920"
     inkscape:window-height="1009"
     inkscape:window-x="3832"
     inkscape:window-y="-8"
     inkscape:window-maximized="1"
     inkscape:current-layer="svg1" />
  <g
     transform="matrix(1 0 0 -1 0 960)"
     id="g1"
     style="fill:#ffffff">
    <path
       fill="currentColor"
       d="M546 858l-22 -23t-51 -55.5t-57 -67.5t-41 -59q-25 -51 -24.5 -73t-9.5 -64q-17 -74 -59.5 -105t-42.5 -134q0 -75 44 -117t98 -63q-17 17 -28.5 36.5t-11.5 41.5q0 27 22 63q21 35 46.5 66.5t47.5 53.5l21 22l33 -20q33 -19 72.5 -49.5t70.5 -66.5q32 -36 29 -69 q-2 -15 -8.5 -30t-15.5 -29q49 26 87.5 66t38.5 95q0 77 -16 135q-16 57 -35 95.5t-35 57.5l-16 20l9 -70t-43 -67q-26 1 -39.5 36.5t-29.5 65.5q-25 52 -46.5 69t-21.5 68q0 77 17 124l17 47v0z"
       id="path1"
       style="fill:#ffffff" />
  </g>
</svg>
