<?xml version="1.0" encoding="UTF-8" standalone="no"?>
<svg
   version="1.1"
   viewBox="0 -64 1024 1024"
   width="512"
   height="512"
   id="svg1"
   sodipodi:docname="downtime.svg"
   inkscape:version="1.3.1 (91b66b0783, 2023-11-16)"
   xmlns:inkscape="http://www.inkscape.org/namespaces/inkscape"
   xmlns:sodipodi="http://sodipodi.sourceforge.net/DTD/sodipodi-0.dtd"
   xmlns="http://www.w3.org/2000/svg"
   xmlns:svg="http://www.w3.org/2000/svg">
  <defs
     id="defs1" />
  <sodipodi:namedview
     id="namedview1"
     pagecolor="#ffffff"
     bordercolor="#000000"
     borderopacity="0.25"
     inkscape:showpageshadow="2"
     inkscape:pageopacity="0.0"
     inkscape:pagecheckerboard="0"
     inkscape:deskcolor="#d1d1d1"
     inkscape:zoom="1.6230469"
     inkscape:cx="255.69194"
     inkscape:cy="256"
     inkscape:window-width="1920"
     inkscape:window-height="1009"
     inkscape:window-x="3832"
     inkscape:window-y="-8"
     inkscape:window-maximized="1"
     inkscape:current-layer="svg1" />
  <g
     transform="matrix(1 0 0 -1 0 960)"
     id="g1"
     style="fill:#ffffff">
    <path
       fill="currentColor"
       d="M512 789q-42 0 -80 -16q-37 -16 -65 -43.5t-44 -65.5q-16 -37 -16 -79v0q0 -43 16 -80t44 -65t65 -44q38 -16 80 -16v0q42 0 80 16q37 16 65 44t44 65t16 80v0q0 7 -0.5 14t-1.5 14v-1q-9 -56 -52 -93t-100 -37v0q-63 0 -108 45t-45 109v0q0 57 37 99.5t91 51.5h1 q-6 1 -13 1.5t-14 0.5v0v0zM239 346v-166q-18 -9 -35 -18.5t-33 -20.5l34 -34q51 38 134 57t173 19t173 -19t134 -57l34 34q-16 11 -33 20.5t-35 18.5v97h-68v-69q-66 23 -135 31t-138 0v38h-69v-49q-8 -2 -16.5 -4t-17.5 -5v127h-102v0z"
       id="path1"
       style="fill:#ffffff" />
  </g>
</svg>
