<?xml version="1.0" encoding="UTF-8" standalone="no"?>
<svg
   version="1.1"
   viewBox="0 -64 1024 1024"
   width="512"
   height="512"
   id="svg1"
   sodipodi:docname="downtime.svg"
   inkscape:version="1.2.2 (732a01da63, 2022-12-09)"
   xmlns:inkscape="http://www.inkscape.org/namespaces/inkscape"
   xmlns:sodipodi="http://sodipodi.sourceforge.net/DTD/sodipodi-0.dtd"
   xmlns="http://www.w3.org/2000/svg"
   xmlns:svg="http://www.w3.org/2000/svg">
  <defs
     id="defs1" />
  <sodipodi:namedview
     id="namedview1"
     pagecolor="#ffffff"
     bordercolor="#000000"
     borderopacity="0.25"
     inkscape:showpageshadow="2"
     inkscape:pageopacity="0.0"
     inkscape:pagecheckerboard="0"
     inkscape:deskcolor="#d1d1d1"
     inkscape:zoom="1.1476675"
     inkscape:cx="200.84215"
     inkscape:cy="265.75642"
     inkscape:window-width="1920"
     inkscape:window-height="1009"
     inkscape:window-x="-8"
     inkscape:window-y="-8"
     inkscape:window-maximized="1"
     inkscape:current-layer="svg1"
     showgrid="false" />
  <g
     transform="matrix(1,0,0,-1,0,896)"
     id="g1"
     style="fill:#ffffff">
    <path
       fill="currentColor"
       d="M 512,789 Q 470,789 432,773 395,757 367,729.5 339,702 323,664 307,627 307,585 v 0 q 0,-43 16,-80 16,-37 44,-65 28,-28 65,-44 38,-16 80,-16 v 0 q 42,0 80,16 37,16 65,44 28,28 44,65 16,37 16,80 v 0 q 0,7 -0.5,14 -0.5,7 -1.5,14 v -1 q -9,-56 -52,-93 -43,-37 -100,-37 v 0 q -63,0 -108,45 -45,45 -45,109 v 0 q 0,57 37,99.5 37,42.5 91,51.5 h 1 q -6,1 -13,1.5 -7,0.5 -14,0.5 v 0 z M 239,346 V 180 Q 221,171 204,161.5 187,152 171,141 l 34,-34 q 51,38 134,57 83,19 173,19 90,0 173,-19 83,-19 134,-57 l 34,34 q -16,11 -33,20.5 -17,9.5 -35,18.5 v 97 h -68 v -69 q -66,23 -135,31 -69,8 -138,0 v 38 h -69 v -49 q -8,-2 -16.5,-4 -8.5,-2 -17.5,-5 V 346 H 239 Z"
       id="path1"
       style="fill:#ffffff" />
  </g>
</svg>
