<?xml version="1.0" encoding="UTF-8" standalone="no"?>
<svg
   version="1.1"
   viewBox="0 -64 1024 1024"
   width="512"
   height="512"
   id="svg1"
   sodipodi:docname="encounter.svg"
   inkscape:version="1.3.1 (91b66b0783, 2023-11-16)"
   xmlns:inkscape="http://www.inkscape.org/namespaces/inkscape"
   xmlns:sodipodi="http://sodipodi.sourceforge.net/DTD/sodipodi-0.dtd"
   xmlns="http://www.w3.org/2000/svg"
   xmlns:svg="http://www.w3.org/2000/svg">
  <defs
     id="defs1" />
  <sodipodi:namedview
     id="namedview1"
     pagecolor="#ffffff"
     bordercolor="#000000"
     borderopacity="0.25"
     inkscape:showpageshadow="2"
     inkscape:pageopacity="0.0"
     inkscape:pagecheckerboard="0"
     inkscape:deskcolor="#d1d1d1"
     inkscape:zoom="1.5742188"
     inkscape:cx="256"
     inkscape:cy="255.68238"
     inkscape:window-width="1920"
     inkscape:window-height="1009"
     inkscape:window-x="3832"
     inkscape:window-y="-8"
     inkscape:window-maximized="1"
     inkscape:current-layer="svg1" />
  <g
     transform="matrix(1 0 0 -1 0 960)"
     id="g1"
     style="fill:#ffffff">
    <path
       fill="currentColor"
       d="M239 772l-17 -34h-85v-34l68 -17v-51l34 -17l17 -52h34l17 52l34 17v51l69 17v34h-86l-17 34h-68zM717 772l-17 -34h-86v-34l69 -17v-51l34 -17l17 -52h34l17 52l34 17v51l68 17v34h-85l-17 34h-68zM137 670v-103l34 -17v111zM410 670l-35 -9v-59h35v68zM614 670v-68h35 v59zM887 670l-34 -9v-111l34 17v103zM461 619l-26 -52h-128v-51l103 -25v-77l51 -26l25 -77h52l25 77l51 26v77l103 25v51h-128l-26 52h-102zM205 585v-154h34v102l-17 17v35h-17zM802 585v-35l-17 -17v-102h34v154h-17zM512 567l51 -51l-51 -51l-51 51zM307 465v-154 l51 -25v166zM717 465l-51 -13v-166l51 25v154zM410 337v-230h51v153l-26 26v51h-25zM589 337v-51l-26 -26v-153h51v230h-25z"
       id="path1"
       style="fill:#ffffff" />
  </g>
</svg>
