<?xml version="1.0" encoding="UTF-8" standalone="no"?>
<svg
   version="1.1"
   viewBox="0 -64 1024 1024"
   width="512"
   height="512"
   id="svg1"
   sodipodi:docname="license.svg"
   inkscape:version="1.2.2 (732a01da63, 2022-12-09)"
   xmlns:inkscape="http://www.inkscape.org/namespaces/inkscape"
   xmlns:sodipodi="http://sodipodi.sourceforge.net/DTD/sodipodi-0.dtd"
   xmlns="http://www.w3.org/2000/svg"
   xmlns:svg="http://www.w3.org/2000/svg">
  <defs
     id="defs1" />
  <sodipodi:namedview
     id="namedview1"
     pagecolor="#ffffff"
     bordercolor="#000000"
     borderopacity="0.25"
     inkscape:showpageshadow="2"
     inkscape:pageopacity="0.0"
     inkscape:pagecheckerboard="0"
     inkscape:deskcolor="#d1d1d1"
     inkscape:zoom="1.5742188"
     inkscape:cx="235.99007"
     inkscape:cy="255.99999"
     inkscape:window-width="1920"
     inkscape:window-height="1009"
     inkscape:window-x="-8"
     inkscape:window-y="-8"
     inkscape:window-maximized="1"
     inkscape:current-layer="svg1"
     showgrid="false" />
  <g
     transform="matrix(1,0,0,-1,0,896)"
     id="g1"
     style="fill:#ffffff">
    <path
       fill="currentColor"
       d="m 205,666 q -14,0 -24,-10 -10,-10 -10,-24 V 264 q 0,-14 10,-24 10,-10 24,-10 h 614 q 14,0 24,10 10,10 10,24 v 368 q 0,14 -10,24 -10,10 -24,10 z m 170,-63 q 25,0 42.5,-17.5 Q 435,568 435,543 435,519 417.5,501.5 400,484 375,484 351,484 333.5,501.5 316,519 316,543 q 0,25 17.5,42.5 Q 351,603 375,603 Z M 580,567 H 785 V 516 H 580 Z M 299,475 h 19 q 11,-12 26,-18.5 15,-6.5 31,-6.5 17,0 32,6.5 15,6.5 26,18.5 h 19 v -19 q 6,-3 12.5,-6.5 Q 471,446 478,441 491,390 501.5,362.5 512,335 512,313 q -18,-7 -36,-12 -18,-5 -37,-8 l -40,32 q -18,-1 -49.5,2 -31.5,3 -56.5,10 l -10,-38 q -11,3 -22,6.5 -11,3.5 -22,7.5 0,22 10.5,49.5 10.5,27.5 23.5,78.5 7,5 13.5,8.5 6.5,3.5 12.5,6.5 z m 281,-1 H 785 V 422 H 580 Z m 0,-94 H 717 V 329 H 580 Z"
       id="path1"
       style="fill:#ffffff" />
  </g>
</svg>
