<?xml version="1.0" encoding="UTF-8" standalone="no"?>
<svg
   version="1.1"
   viewBox="0 -64 1024 1024"
   width="512"
   height="512"
   id="svg1"
   sodipodi:docname="mine.svg"
   inkscape:version="1.2.2 (732a01da63, 2022-12-09)"
   xmlns:inkscape="http://www.inkscape.org/namespaces/inkscape"
   xmlns:sodipodi="http://sodipodi.sourceforge.net/DTD/sodipodi-0.dtd"
   xmlns="http://www.w3.org/2000/svg"
   xmlns:svg="http://www.w3.org/2000/svg">
  <defs
     id="defs1" />
  <sodipodi:namedview
     id="namedview1"
     pagecolor="#ffffff"
     bordercolor="#000000"
     borderopacity="0.25"
     inkscape:showpageshadow="2"
     inkscape:pageopacity="0.0"
     inkscape:pagecheckerboard="0"
     inkscape:deskcolor="#d1d1d1"
     inkscape:zoom="1.5742188"
     inkscape:cx="235.99007"
     inkscape:cy="255.99999"
     inkscape:window-width="1920"
     inkscape:window-height="1009"
     inkscape:window-x="-8"
     inkscape:window-y="-8"
     inkscape:window-maximized="1"
     inkscape:current-layer="svg1"
     showgrid="false" />
  <g
     transform="matrix(1,0,0,-1,0,896)"
     id="g1"
     style="fill:#ffffff">
    <path
       fill="currentColor"
       d="M 478,789 V 650 Q 454,646 432.5,637 411,628 393,614 l 1,1 -75,74 -48,-48 74,-74 q -13,-18 -22,-39 -9,-21 -13,-45 v -1 H 171 v -68 h 139 q 4,-24 13,-45.5 9,-21.5 23,-39.5 l -1,1 -74,-75 48,-48 74,74 q 18,-13 39,-22 21,-9 45,-13 h 1 V 107 h 68 v 139 q 24,4 45.5,13.5 Q 613,269 631,282 l -1,-1 75,-74 48,48 -74,74 q 13,18 22,39.5 9,21.5 13,44.5 v 1 h 139 v 68 H 714 q -4,24 -13,45.5 -9,21.5 -23,39.5 l 1,-1 74,75 -48,48 -74,-74 q -18,13 -39.5,22 -21.5,9 -44.5,13 h -1 v 139 z m -38,-220 72,-73 72,73 49,-49 -73,-72 73,-72 -49,-49 -72,73 -72,-73 -49,49 73,72 -73,72 z"
       id="path1"
       style="fill:#ffffff" />
  </g>
</svg>
