<?xml version="1.0" encoding="UTF-8" standalone="no"?>
<svg
   version="1.1"
   viewBox="0 -64 1024 1024"
   width="512"
   height="512"
   id="svg1"
   sodipodi:docname="npc_template.svg"
   inkscape:version="1.3.1 (91b66b0783, 2023-11-16)"
   xmlns:inkscape="http://www.inkscape.org/namespaces/inkscape"
   xmlns:sodipodi="http://sodipodi.sourceforge.net/DTD/sodipodi-0.dtd"
   xmlns="http://www.w3.org/2000/svg"
   xmlns:svg="http://www.w3.org/2000/svg">
  <defs
     id="defs1" />
  <sodipodi:namedview
     id="namedview1"
     pagecolor="#ffffff"
     bordercolor="#000000"
     borderopacity="0.25"
     inkscape:showpageshadow="2"
     inkscape:pageopacity="0.0"
     inkscape:pagecheckerboard="0"
     inkscape:deskcolor="#d1d1d1"
     inkscape:zoom="1.5742188"
     inkscape:cx="256"
     inkscape:cy="255.68238"
     inkscape:window-width="1920"
     inkscape:window-height="1009"
     inkscape:window-x="3832"
     inkscape:window-y="-8"
     inkscape:window-maximized="1"
     inkscape:current-layer="svg1" />
  <g
     transform="matrix(1 0 0 -1 0 960)"
     id="g1"
     style="fill:#ffffff">
    <path
       fill="currentColor"
       d="M512 858l-84 -72l-109 -8l-9 -110l-71 -83l71 -84l9 -110l109 -8l84 -72l84 72l109 8l9 110l71 84l-71 83l-9 110l-109 8zM512 755q70 0 120.5 -50t50.5 -121q0 -70 -50.5 -120t-120.5 -50t-120.5 50t-50.5 120q0 71 50.5 121t120.5 50zM512 687q-43 0 -72.5 -30 t-29.5 -73q0 -42 29.5 -72t72.5 -30t72.5 30t29.5 72q0 43 -29.5 73t-72.5 30v0zM375 335v-297l137 103l137 -103v297l-33 -2l-104 -89l-104 89z"
       id="path1"
       style="fill:#ffffff" />
  </g>
</svg>
