<?xml version="1.0" encoding="UTF-8" standalone="no"?>
<svg
   version="1.1"
   viewBox="0 -64 1024 1024"
   width="512"
   height="512"
   id="svg1"
   sodipodi:docname="npc_class.svg"
   inkscape:version="1.2.2 (732a01da63, 2022-12-09)"
   xmlns:inkscape="http://www.inkscape.org/namespaces/inkscape"
   xmlns:sodipodi="http://sodipodi.sourceforge.net/DTD/sodipodi-0.dtd"
   xmlns="http://www.w3.org/2000/svg"
   xmlns:svg="http://www.w3.org/2000/svg">
  <defs
     id="defs1" />
  <sodipodi:namedview
     id="namedview1"
     pagecolor="#ffffff"
     bordercolor="#000000"
     borderopacity="0.25"
     inkscape:showpageshadow="2"
     inkscape:pageopacity="0.0"
     inkscape:pagecheckerboard="0"
     inkscape:deskcolor="#d1d1d1"
     inkscape:zoom="1.5742188"
     inkscape:cx="235.99007"
     inkscape:cy="255.99999"
     inkscape:window-width="1920"
     inkscape:window-height="1009"
     inkscape:window-x="-8"
     inkscape:window-y="-8"
     inkscape:window-maximized="1"
     inkscape:current-layer="svg1"
     showgrid="false" />
  <g
     transform="matrix(1,0,0,-1,0.5,913)"
     id="g1"
     style="fill:#ffffff">
    <path
       fill="currentColor"
       d="m 512,755 q -56,0 -96.5,-40 -40.5,-40 -40.5,-96 0,-24 8,-45 8,-21 21,-38 l -77,-99 q -12,5 -26,8 -14,3 -28,3 -56,0 -96.5,-40 -40.5,-40 -40.5,-96 0,-57 40.5,-97 40.5,-40 96.5,-40 56,0 96.5,40 40.5,40 40.5,97 0,23 -8,44 -8,21 -21,38 l 77,99 q 12,-5 26,-8 14,-3 28,-3 14,0 28,3 14,3 26,9 l 77,-100 q -13,-17 -21,-38 -8,-21 -8,-44 0,-57 40.5,-97 40.5,-40 96.5,-40 56,0 96,40 40,40 40,97 0,56 -40,96 -40,40 -96,40 -14,0 -28,-3 -14,-3 -26,-8 l -77,99 q 13,17 20.5,38 7.5,21 7.5,45 0,56 -40,96 -40,40 -96,40 z m 0,-68 q 29,0 48.5,-20 19.5,-20 19.5,-48 0,-29 -19.5,-49 -19.5,-20 -48.5,-20 -29,0 -48.5,20 -19.5,20 -19.5,49 0,28 19.5,48 19.5,20 48.5,20 z M 273,380 q 29,0 48.5,-20 19.5,-20 19.5,-48 0,-29 -19.5,-49 -19.5,-20 -48.5,-20 -29,0 -48.5,20 -19.5,20 -19.5,49 0,28 19.5,48 19.5,20 48.5,20 z m 478,0 q 29,0 48.5,-20 19.5,-20 19.5,-48 0,-29 -19.5,-49 -19.5,-20 -48.5,-20 -29,0 -48.5,20 -19.5,20 -19.5,49 0,28 19.5,48 19.5,20 48.5,20 z"
       id="path1"
       style="fill:#ffffff" />
  </g>
</svg>
