<?xml version="1.0" encoding="UTF-8" standalone="no"?>
<svg
   version="1.1"
   viewBox="0 -64 1024 1024"
   width="512"
   height="512"
   id="svg1"
   sodipodi:docname="reaction.svg"
   inkscape:version="1.3.1 (91b66b0783, 2023-11-16)"
   xmlns:inkscape="http://www.inkscape.org/namespaces/inkscape"
   xmlns:sodipodi="http://sodipodi.sourceforge.net/DTD/sodipodi-0.dtd"
   xmlns="http://www.w3.org/2000/svg"
   xmlns:svg="http://www.w3.org/2000/svg">
  <defs
     id="defs1" />
  <sodipodi:namedview
     id="namedview1"
     pagecolor="#ffffff"
     bordercolor="#000000"
     borderopacity="0.25"
     inkscape:showpageshadow="2"
     inkscape:pageopacity="0.0"
     inkscape:pagecheckerboard="0"
     inkscape:deskcolor="#d1d1d1"
     inkscape:zoom="1.5742188"
     inkscape:cx="256"
     inkscape:cy="255.68238"
     inkscape:window-width="1920"
     inkscape:window-height="1009"
     inkscape:window-x="1912"
     inkscape:window-y="-8"
     inkscape:window-maximized="1"
     inkscape:current-layer="svg1" />
  <g
     transform="matrix(1 0 0 -1 0 960)"
     id="g1"
     style="fill:#ffffff">
    <path
       fill="currentColor"
       d="M478 721v-156q-32 -3 -63.5 -12.5t-62.5 -25.5l-51 77l-56 -38l48 -73q-23 -16 -46 -34t-45 -40l-50 25l-31 -61l91 -45l17 18q34 33 67 58.5t65 43.5q-9 -18 -14.5 -37.5t-5.5 -40.5q0 -71 50.5 -121t120.5 -50t120.5 50t50.5 121q0 21 -5.5 40.5t-14.5 37.5 q32 -18 65 -43.5t67 -58.5l17 -18l91 45l-31 61l-50 -25q-22 22 -45 40t-46 34l48 73l-56 38l-51 -77q-31 16 -62.5 25.5t-63.5 12.5v156h-68zM512 448q29 0 48.5 -20t19.5 -48q0 -29 -19.5 -48.5t-48.5 -19.5t-48.5 19.5t-19.5 48.5q0 28 19.5 48t48.5 20v0z"
       id="path1"
       style="fill:#ffffff" />
  </g>
</svg>
