<?xml version="1.0" encoding="UTF-8" standalone="no"?>
<svg
   version="1.1"
   viewBox="0 -64 1024 1024"
   width="512"
   height="512"
   id="svg1"
   sodipodi:docname="reactor.svg"
   inkscape:version="1.2.2 (732a01da63, 2022-12-09)"
   xmlns:inkscape="http://www.inkscape.org/namespaces/inkscape"
   xmlns:sodipodi="http://sodipodi.sourceforge.net/DTD/sodipodi-0.dtd"
   xmlns="http://www.w3.org/2000/svg"
   xmlns:svg="http://www.w3.org/2000/svg">
  <defs
     id="defs1" />
  <sodipodi:namedview
     id="namedview1"
     pagecolor="#ffffff"
     bordercolor="#000000"
     borderopacity="0.25"
     inkscape:showpageshadow="2"
     inkscape:pageopacity="0.0"
     inkscape:pagecheckerboard="0"
     inkscape:deskcolor="#d1d1d1"
     inkscape:zoom="1.5742188"
     inkscape:cx="235.99007"
     inkscape:cy="255.99999"
     inkscape:window-width="1920"
     inkscape:window-height="1009"
     inkscape:window-x="-8"
     inkscape:window-y="-8"
     inkscape:window-maximized="1"
     inkscape:current-layer="svg1"
     showgrid="false" />
  <g
     transform="matrix(1,0,0,-1,0,896)"
     id="g1"
     style="fill:#ffffff">
    <path
       fill="currentColor"
       d="M 853,448 Q 853,379 825.5,315.5 798,252 753,207 708,162 644.5,134.5 581,107 512,107 443,107 379.5,134.5 316,162 271,207 226,252 198.5,315.5 171,379 171,448 171,517 198.5,580.5 226,644 271,689 316,734 379.5,761.5 443,789 512,789 581,789 644.5,761.5 708,734 753,689 798,644 825.5,580.5 853,517 853,448 Z M 705,641 Q 667,680 618.5,700.5 570,721 512,721 454,721 405.5,700.5 357,680 319,641 280,603 259.5,554.5 239,506 239,448 239,390 259.5,341.5 280,293 319,255 357,216 405.5,195.5 454,175 512,175 570,175 618.5,195.5 667,216 705,255 744,293 764.5,341.5 785,390 785,448 785,506 764.5,554.5 744,603 705,641 Z M 614,448 Q 614,421 600.5,397 587,373 563,359 l 51,-88 q 48,27 75.5,74.5 Q 717,393 717,448 Z m -307,0 Q 307,393 334.5,345.5 362,298 410,271 l 51,88 q -24,14 -37.5,38 -13.5,24 -13.5,51 z m 200,205 q -25,-1 -50,-8 -25,-7 -47,-20 l 51,-88 q 12,6 24.5,9.5 12.5,3.5 26.5,3.5 13,0 26.5,-3.5 Q 552,543 563,537 l 51,88 q -24,14 -51.5,21 -27.5,7 -55.5,7 z m 39,-205 q 0,-14 -10,-24 -10,-10 -24,-10 v 0 q -14,0 -24,10 -10,10 -10,24 v 0 q 0,14 10,24 10,10 24,10 v 0 q 14,0 24,-10 10,-10 10,-24 z m 32,0 q 0,-12 -5.5,-25.5 Q 567,409 559,401 551,393 537.5,387.5 524,382 512,382 500,382 486.5,387.5 473,393 465,401 q -8,8 -13.5,21.5 -5.5,13.5 -5.5,25.5 0,12 5.5,25.5 5.5,13.5 13.5,21.5 8,8 21.5,13.5 13.5,5.5 25.5,5.5 12,0 25.5,-5.5 Q 551,503 559,495 567,487 572.5,473.5 578,460 578,448 Z m -64,1 v 0 h -1 v 1 0 h -0.5 -0.5 -0.5 -0.5 v 0 -1 h -1 v 0 -0.5 -0.5 -0.5 -0.5 0 h 1 v -1 0 h 0.5 0.5 0.5 0.5 v 0 1 h 1 v 0 0.5 0.5 0.5 0.5 z"
       id="path1"
       style="fill:#ffffff" />
  </g>
</svg>
