<?xml version="1.0" encoding="UTF-8" standalone="no"?>
<svg
   version="1.1"
   viewBox="0 -64 1024 1024"
   width="512"
   height="512"
   id="svg1"
   sodipodi:docname="reserve_mech.svg"
   inkscape:version="1.3.1 (91b66b0783, 2023-11-16)"
   xmlns:inkscape="http://www.inkscape.org/namespaces/inkscape"
   xmlns:sodipodi="http://sodipodi.sourceforge.net/DTD/sodipodi-0.dtd"
   xmlns="http://www.w3.org/2000/svg"
   xmlns:svg="http://www.w3.org/2000/svg">
  <defs
     id="defs1" />
  <sodipodi:namedview
     id="namedview1"
     pagecolor="#ffffff"
     bordercolor="#000000"
     borderopacity="0.25"
     inkscape:showpageshadow="2"
     inkscape:pageopacity="0.0"
     inkscape:pagecheckerboard="0"
     inkscape:deskcolor="#d1d1d1"
     inkscape:zoom="1.5742188"
     inkscape:cx="256"
     inkscape:cy="255.68238"
     inkscape:window-width="1920"
     inkscape:window-height="1009"
     inkscape:window-x="1912"
     inkscape:window-y="-8"
     inkscape:window-maximized="1"
     inkscape:current-layer="svg1" />
  <g
     transform="matrix(1 0 0 -1 0 960)"
     id="g1"
     style="fill:#ffffff">
    <path
       fill="currentColor"
       d="M273 789l-102 -102v-68h34l136 136v34h-68v0zM683 789v-34l136 -136h34v68l-102 102h-68v0zM478 687v-72q-16 -3 -31.5 -9.5t-28.5 -15.5l-51 51l-48 -48l51 -51q-9 -13 -15.5 -28.5t-9.5 -31.5h-72v-68h72q3 -16 9.5 -31.5t15.5 -28.5l-51 -51l48 -48l51 51 q13 -9 28.5 -15.5t31.5 -9.5v-72h68v72v0q16 3 31.5 9.5t28.5 15.5l51 -51l48 48l-51 51q9 13 15.5 28.5t9.5 31.5h72v68h-72q-3 16 -9.5 31.5t-15.5 28.5l51 51l-48 48l-51 -51q-14 9 -29 15.5t-31 9.5v72h-68v0zM512 550q43 0 72.5 -29.5t29.5 -72.5t-29.5 -72.5 t-72.5 -29.5t-72.5 29.5t-29.5 72.5t29.5 72.5t72.5 29.5zM171 277v-68l102 -102h68v34l-136 136h-34v0zM819 277l-136 -136v-34h68l102 102v68h-34v0z"
       id="path1"
       style="fill:#ffffff" />
  </g>
</svg>
