<?xml version="1.0" encoding="UTF-8" standalone="no"?>
<svg
   version="1.1"
   viewBox="0 -64 1024 1024"
   width="512"
   height="512"
   id="svg1"
   sodipodi:docname="role_tank.svg"
   inkscape:version="1.3.1 (91b66b0783, 2023-11-16)"
   xmlns:inkscape="http://www.inkscape.org/namespaces/inkscape"
   xmlns:sodipodi="http://sodipodi.sourceforge.net/DTD/sodipodi-0.dtd"
   xmlns="http://www.w3.org/2000/svg"
   xmlns:svg="http://www.w3.org/2000/svg">
  <defs
     id="defs1" />
  <sodipodi:namedview
     id="namedview1"
     pagecolor="#ffffff"
     bordercolor="#000000"
     borderopacity="0.25"
     inkscape:showpageshadow="2"
     inkscape:pageopacity="0.0"
     inkscape:pagecheckerboard="0"
     inkscape:deskcolor="#d1d1d1"
     inkscape:zoom="1.5742188"
     inkscape:cx="256"
     inkscape:cy="255.68238"
     inkscape:window-width="1920"
     inkscape:window-height="1009"
     inkscape:window-x="3832"
     inkscape:window-y="-8"
     inkscape:window-maximized="1"
     inkscape:current-layer="svg1" />
  <g
     transform="matrix(1 0 0 -1 0 960)"
     id="g1"
     style="fill:#ffffff">
    <path
       fill="currentColor"
       d="M512 824l-29 -16t-73.5 -35.5t-99.5 -35.5q-54 -16 -105 -16l2 -30t6 -73t10 -90q7 -47 16 -80q17 -63 40 -125t62 -114q33 -43 76.5 -77t94.5 -59q51 25 94.5 59t76.5 77q39 52 62 114t40 125q9 33 15 80q7 47 11 90t6 73l2 30q-51 0 -105 16q-55 16 -99.5 35t-73.5 36 l-29 16v0zM512 750q79 -47 130.5 -63t101.5 -28q-5 -72 -16 -143q-12 -71 -38 -137.5t-69 -124.5q-42 -59 -109 -105v601z"
       id="path1"
       style="fill:#ffffff" />
  </g>
</svg>
