<?xml version="1.0" encoding="UTF-8" standalone="no"?>
<svg
   version="1.1"
   viewBox="0 -64 1024 1024"
   width="512"
   height="512"
   id="svg1"
   sodipodi:docname="role_controller.svg"
   inkscape:version="1.3.1 (91b66b0783, 2023-11-16)"
   xmlns:inkscape="http://www.inkscape.org/namespaces/inkscape"
   xmlns:sodipodi="http://sodipodi.sourceforge.net/DTD/sodipodi-0.dtd"
   xmlns="http://www.w3.org/2000/svg"
   xmlns:svg="http://www.w3.org/2000/svg">
  <defs
     id="defs1" />
  <sodipodi:namedview
     id="namedview1"
     pagecolor="#ffffff"
     bordercolor="#000000"
     borderopacity="0.25"
     inkscape:showpageshadow="2"
     inkscape:pageopacity="0.0"
     inkscape:pagecheckerboard="0"
     inkscape:deskcolor="#d1d1d1"
     inkscape:zoom="1.5742188"
     inkscape:cx="256"
     inkscape:cy="255.68238"
     inkscape:window-width="1920"
     inkscape:window-height="1009"
     inkscape:window-x="3832"
     inkscape:window-y="-8"
     inkscape:window-maximized="1"
     inkscape:current-layer="svg1" />
  <g
     transform="matrix(1 0 0 -1 0 960)"
     id="g1"
     style="fill:#ffffff">
    <path
       fill="currentColor"
       d="M291 625q-68 -33 -111 -98.5t-43 -146.5q0 -57 21 -106q22 -50 59 -87t87 -59q49 -21 106 -21q56 0 106 21q50 22 87 59t58 87q22 49 22 106q0 80 -42.5 145t-109.5 99q-14 -11 -25 -25t-17 -30q55 -23 90 -74t35 -115q0 -43 -16 -80q-16 -38 -43.5 -65.5t-64.5 -43.5 q-38 -16 -80 -16q-43 0 -80 16q-38 16 -65.5 43.5t-43.5 65.5q-16 37 -16 80q0 46 18.5 85.5t50.5 67.5q1 24 5.5 47t11.5 45v0zM614 789q-56 0 -106 -21q-50 -22 -87 -59t-58 -87q-22 -49 -22 -106q0 -80 42.5 -145.5t109.5 -98.5q14 11 24.5 25t17.5 30q-55 23 -90 74 t-35 115q0 43 16 80t43.5 65t64.5 44q38 16 80 16q43 0 80 -16t65 -44t44 -65t16 -80q0 -46 -18.5 -85.5t-50.5 -67.5q-1 -24 -5.5 -47t-11.5 -45q68 33 111 98.5t43 146.5q0 57 -21 106q-22 50 -59 87t-87 59q-49 21 -106 21v0z"
       id="path1"
       style="fill:#ffffff" />
  </g>
</svg>
