<?xml version="1.0" encoding="UTF-8" standalone="no"?>
<svg
   version="1.1"
   viewBox="0 -64 1024 1024"
   width="512"
   height="512"
   id="svg1"
   sodipodi:docname="role_tank.svg"
   inkscape:version="1.2.2 (732a01da63, 2022-12-09)"
   xmlns:inkscape="http://www.inkscape.org/namespaces/inkscape"
   xmlns:sodipodi="http://sodipodi.sourceforge.net/DTD/sodipodi-0.dtd"
   xmlns="http://www.w3.org/2000/svg"
   xmlns:svg="http://www.w3.org/2000/svg">
  <defs
     id="defs1" />
  <sodipodi:namedview
     id="namedview1"
     pagecolor="#ffffff"
     bordercolor="#000000"
     borderopacity="0.25"
     inkscape:showpageshadow="2"
     inkscape:pageopacity="0.0"
     inkscape:pagecheckerboard="0"
     inkscape:deskcolor="#d1d1d1"
     inkscape:zoom="1.5742188"
     inkscape:cx="235.99007"
     inkscape:cy="255.99999"
     inkscape:window-width="1920"
     inkscape:window-height="1009"
     inkscape:window-x="-8"
     inkscape:window-y="-8"
     inkscape:window-maximized="1"
     inkscape:current-layer="svg1"
     showgrid="false" />
  <g
     transform="matrix(1,0,0,-1,0,896.5)"
     id="g1"
     style="fill:#ffffff">
    <path
       fill="currentColor"
       d="m 512,824 -29,-16 q 0,0 -73.5,-35.5 Q 336,737 310,737 256,721 205,721 l 2,-30 q 0,0 6,-73 6,-73 10,-90 7,-47 16,-80 17,-63 40,-125 23,-62 62,-114 33,-43 76.5,-77 43.5,-34 94.5,-59 51,25 94.5,59 43.5,34 76.5,77 39,52 62,114 23,62 40,125 9,33 15,80 7,47 11,90 4,43 6,73 l 2,30 q -51,0 -105,16 -55,16 -99.5,35 -44.5,19 -73.5,36 l -29,16 z m 0,-74 Q 591,703 642.5,687 694,671 744,659 739,587 728,516 716,445 690,378.5 664,312 621,254 579,195 512,149 Z"
       id="path1"
       style="fill:#ffffff" />
  </g>
</svg>
