<?xml version="1.0" encoding="UTF-8" standalone="no"?>
<svg
   version="1.1"
   viewBox="0 -64 1024 1024"
   width="512"
   height="512"
   id="svg1"
   sodipodi:docname="size_3.svg"
   inkscape:version="1.3.1 (91b66b0783, 2023-11-16)"
   xmlns:inkscape="http://www.inkscape.org/namespaces/inkscape"
   xmlns:sodipodi="http://sodipodi.sourceforge.net/DTD/sodipodi-0.dtd"
   xmlns="http://www.w3.org/2000/svg"
   xmlns:svg="http://www.w3.org/2000/svg">
  <defs
     id="defs1" />
  <sodipodi:namedview
     id="namedview1"
     pagecolor="#ffffff"
     bordercolor="#000000"
     borderopacity="0.25"
     inkscape:showpageshadow="2"
     inkscape:pageopacity="0.0"
     inkscape:pagecheckerboard="0"
     inkscape:deskcolor="#d1d1d1"
     inkscape:zoom="1.5742188"
     inkscape:cx="256"
     inkscape:cy="255.68238"
     inkscape:window-width="1920"
     inkscape:window-height="1009"
     inkscape:window-x="3832"
     inkscape:window-y="-8"
     inkscape:window-maximized="1"
     inkscape:current-layer="svg1" />
  <g
     transform="matrix(1 0 0 -1 0 960)"
     id="g1"
     style="fill:#ffffff">
    <path
       fill="currentColor"
       d="M693 700h170l84 -146l-84 -147l84 -147l-84 -147h-167l-83 -144h-169l-84 146l-2 -3h-169l-85 147l84 146h-2l-84 146l84 147h170l-2 3l85 146h169zM243 484q0 -15 5 -26.5t16 -20.5q11 -8 25.5 -12.5t32.5 -4.5t32.5 4.5t23.5 13.5q10 8 15 19t5 24q0 12 -4 22t-13 16 q-5 5 -13 8.5t-19 5.5l-33 8q-9 2 -15.5 4t-8.5 4q-5 2 -7 6t-2 9q0 6 2 10t7 7q4 3 10.5 4.5t13.5 1.5t13 -1t10 -3q7 -4 11 -10t4 -15h38q0 16 -5.5 27.5t-16.5 18.5q-11 8 -23.5 12t-27.5 4q-18 0 -31.5 -4t-23.5 -12q-9 -9 -13.5 -19.5t-4.5 -23.5q0 -14 5 -24t14 -17 q6 -4 16 -7.5t25 -6.5l20 -5q9 -2 15.5 -4t10.5 -5q4 -2 6 -6t2 -8q0 -8 -4 -13.5t-12 -8.5q-5 -2 -10.5 -2.5t-12.5 -0.5q-12 0 -20 3t-13 8q-3 4 -4.5 8.5t-2.5 11.5h-38zM425 425h39v190h-39v-190zM487 425h148v34h-100l100 124v32h-145v-34h95l-98 -122v-34zM802 615 h-139v-190h143v34h-105v49h93v33h-93v40h101v34zM458 219q1 -11 3 -20t6 -16q8 -13 22 -19.5t33 -6.5q16 0 28.5 4.5t20.5 13.5t12 19.5t4 22.5q0 11 -3.5 20t-10.5 15q-4 5 -8 7t-6 2q3 1 6.5 3.5t6.5 6.5q5 5 7 12t2 15q0 12 -4 21.5t-12 16.5q-8 6 -19 9.5t-24 3.5 q-7 0 -13 -0.5t-11 -2.5t-9.5 -4.5t-7.5 -5.5q-5 -5 -8.5 -10t-6.5 -10q-2 -7 -3 -13.5t-1 -13.5h34q0 7 1.5 12.5t4.5 9.5t7.5 6.5t11.5 2.5q5 0 9.5 -2t7.5 -5q3 -4 5 -8t2 -10q0 -8 -3.5 -13.5t-9.5 -7.5q-3 -2 -9.5 -3t-15.5 -1v-26q10 0 16.5 -1t10.5 -3q8 -3 11.5 -9 t3.5 -15q0 -7 -2 -12.5t-6 -8.5q-4 -4 -8.5 -6t-10.5 -2q-9 0 -15 3.5t-9 10.5q-2 3 -3 8t-1 10h-36z"
       id="path1"
       style="fill:#ffffff" />
  </g>
</svg>
