<?xml version="1.0" encoding="UTF-8" standalone="no"?>
<svg
   version="1.1"
   viewBox="0 -64 1024 1024"
   width="512"
   height="512"
   id="svg1"
   sodipodi:docname="size_4.svg"
   inkscape:version="1.3.1 (91b66b0783, 2023-11-16)"
   xmlns:inkscape="http://www.inkscape.org/namespaces/inkscape"
   xmlns:sodipodi="http://sodipodi.sourceforge.net/DTD/sodipodi-0.dtd"
   xmlns="http://www.w3.org/2000/svg"
   xmlns:svg="http://www.w3.org/2000/svg">
  <defs
     id="defs1" />
  <sodipodi:namedview
     id="namedview1"
     pagecolor="#ffffff"
     bordercolor="#000000"
     borderopacity="0.25"
     inkscape:showpageshadow="2"
     inkscape:pageopacity="0.0"
     inkscape:pagecheckerboard="0"
     inkscape:deskcolor="#d1d1d1"
     inkscape:zoom="1.5742188"
     inkscape:cx="256"
     inkscape:cy="255.68238"
     inkscape:window-width="1920"
     inkscape:window-height="1009"
     inkscape:window-x="3832"
     inkscape:window-y="-8"
     inkscape:window-maximized="1"
     inkscape:current-layer="svg1" />
  <g
     transform="matrix(1 0 0 -1 0 960)"
     id="g1"
     style="fill:#ffffff">
    <path
       fill="currentColor"
       d="M622 784l108 63l111 -63v-128v0l110 -64v-127l-109 -63l2 -1v-127l-111 -64v0v-127l-110 -64l-108 63l-109 -63l-110 64v127l-110 63v127l-2 -1l-111 63v128l110 63l-1 1v127l110 64l110 -64v3l111 63zM230 484q0 -15 5.5 -26.5t16.5 -20.5q10 -8 24.5 -12.5t33.5 -4.5 q18 0 32 4.5t24 13.5q10 8 15 19t5 24q0 12 -4.5 22t-12.5 16q-6 5 -14 8.5t-18 5.5l-33 8q-10 2 -16 4t-9 4q-4 2 -6.5 6t-2.5 9q0 6 2.5 10t6.5 7q5 3 11 4.5t14 1.5q7 0 12.5 -1t10.5 -3q7 -4 10.5 -10t4.5 -15h38q-1 16 -6.5 27.5t-15.5 18.5q-11 8 -24 12t-28 4 q-17 0 -31 -4t-23 -12q-9 -9 -13.5 -19.5t-4.5 -23.5q0 -14 4.5 -24t14.5 -17q5 -4 15.5 -7.5t25.5 -6.5l20 -5q8 -2 14.5 -4t10.5 -5q5 -2 7 -6t2 -8q0 -8 -4.5 -13.5t-12.5 -8.5q-4 -2 -10 -2.5t-13 -0.5q-11 0 -19.5 3t-13.5 8q-2 4 -4 8.5t-3 11.5h-38zM412 425h39v190 h-39v-190zM475 425h147v34h-99l99 124v32h-145v-34h96l-98 -122v-34zM789 615h-139v-190h144v34h-105v49h92v33h-92v40h100v34zM577 231h-21v116h-42l-68 -113v-32h74v-40h36v40h21v29zM473 231l47 80v-80h-47z"
       id="path1"
       style="fill:#ffffff" />
  </g>
</svg>
