<?xml version="1.0" encoding="UTF-8" standalone="no"?>
<svg
   version="1.1"
   viewBox="0 -64 1024 1024"
   width="512"
   height="512"
   id="svg1"
   sodipodi:docname="size_3.svg"
   inkscape:version="1.2.2 (732a01da63, 2022-12-09)"
   xmlns:inkscape="http://www.inkscape.org/namespaces/inkscape"
   xmlns:sodipodi="http://sodipodi.sourceforge.net/DTD/sodipodi-0.dtd"
   xmlns="http://www.w3.org/2000/svg"
   xmlns:svg="http://www.w3.org/2000/svg">
  <defs
     id="defs1" />
  <sodipodi:namedview
     id="namedview1"
     pagecolor="#ffffff"
     bordercolor="#000000"
     borderopacity="0.25"
     inkscape:showpageshadow="2"
     inkscape:pageopacity="0.0"
     inkscape:pagecheckerboard="0"
     inkscape:deskcolor="#d1d1d1"
     inkscape:zoom="1.5742188"
     inkscape:cx="235.99007"
     inkscape:cy="255.99999"
     inkscape:window-width="1920"
     inkscape:window-height="1009"
     inkscape:window-x="-8"
     inkscape:window-y="-8"
     inkscape:window-maximized="1"
     inkscape:current-layer="svg1"
     showgrid="false" />
  <g
     transform="matrix(1,0,0,-1,-12.5,856)"
     id="g1"
     style="fill:#ffffff">
    <path
       fill="currentColor"
       d="M 693,700 H 863 L 947,554 863,407 947,260 863,113 H 696 L 613,-31 H 444 l -84,146 -2,-3 H 189 l -85,147 84,146 h -2 l -84,146 84,147 h 170 l -2,3 85,146 H 608 Z M 243,484 q 0,-15 5,-26.5 5,-11.5 16,-20.5 11,-8 25.5,-12.5 14.5,-4.5 32.5,-4.5 18,0 32.5,4.5 14.5,4.5 23.5,13.5 10,8 15,19 5,11 5,24 0,12 -4,22 -4,10 -13,16 -5,5 -13,8.5 -8,3.5 -19,5.5 l -33,8 q -9,2 -15.5,4 -6.5,2 -8.5,4 -5,2 -7,6 -2,4 -2,9 0,6 2,10 2,4 7,7 4,3 10.5,4.5 6.5,1.5 13.5,1.5 7,0 13,-1 6,-1 10,-3 7,-4 11,-10 4,-6 4,-15 h 38 q 0,16 -5.5,27.5 Q 381,597 370,604 q -11,8 -23.5,12 -12.5,4 -27.5,4 -18,0 -31.5,-4 Q 274,612 264,604 255,595 250.5,584.5 246,574 246,561 q 0,-14 5,-24 5,-10 14,-17 6,-4 16,-7.5 10,-3.5 25,-6.5 l 20,-5 q 9,-2 15.5,-4 6.5,-2 10.5,-5 4,-2 6,-6 2,-4 2,-8 0,-8 -4,-13.5 -4,-5.5 -12,-8.5 -5,-2 -10.5,-2.5 Q 328,453 321,453 q -12,0 -20,3 -8,3 -13,8 -3,4 -4.5,8.5 Q 282,477 281,484 Z m 182,-59 h 39 v 190 h -39 z m 62,0 h 148 v 34 H 535 l 100,124 v 32 H 490 v -34 h 95 L 487,459 Z M 802,615 H 663 V 425 h 143 v 34 H 701 v 49 h 93 v 33 h -93 v 40 H 802 Z M 458,219 q 1,-11 3,-20 2,-9 6,-16 8,-13 22,-19.5 14,-6.5 33,-6.5 16,0 28.5,4.5 12.5,4.5 20.5,13.5 8,9 12,19.5 4,10.5 4,22.5 0,11 -3.5,20 -3.5,9 -10.5,15 -4,5 -8,7 -4,2 -6,2 3,1 6.5,3.5 3.5,2.5 6.5,6.5 5,5 7,12 2,7 2,15 0,12 -4,21.5 -4,9.5 -12,16.5 -8,6 -19,9.5 -11,3.5 -24,3.5 -7,0 -13,-0.5 -6,-0.5 -11,-2.5 -5,-2 -9.5,-4.5 -4.5,-2.5 -7.5,-5.5 -5,-5 -8.5,-10 -3.5,-5 -6.5,-10 -2,-7 -3,-13.5 -1,-6.5 -1,-13.5 h 34 q 0,7 1.5,12.5 1.5,5.5 4.5,9.5 3,4 7.5,6.5 4.5,2.5 11.5,2.5 5,0 9.5,-2 4.5,-2 7.5,-5 3,-4 5,-8 2,-4 2,-10 0,-8 -3.5,-13.5 -3.5,-5.5 -9.5,-7.5 -3,-2 -9.5,-3 -6.5,-1 -15.5,-1 v -26 q 10,0 16.5,-1 6.5,-1 10.5,-3 8,-3 11.5,-9 3.5,-6 3.5,-15 0,-7 -2,-12.5 -2,-5.5 -6,-8.5 -4,-4 -8.5,-6 -4.5,-2 -10.5,-2 -9,0 -15,3.5 -6,3.5 -9,10.5 -2,3 -3,8 -1,5 -1,10 z"
       id="path1"
       style="fill:#ffffff" />
  </g>
</svg>
