<?xml version="1.0" encoding="UTF-8" standalone="no"?>
<svg
   version="1.1"
   viewBox="0 -64 1024 1024"
   width="512"
   height="512"
   id="svg1"
   sodipodi:docname="size_2.svg"
   inkscape:version="1.2.2 (732a01da63, 2022-12-09)"
   xmlns:inkscape="http://www.inkscape.org/namespaces/inkscape"
   xmlns:sodipodi="http://sodipodi.sourceforge.net/DTD/sodipodi-0.dtd"
   xmlns="http://www.w3.org/2000/svg"
   xmlns:svg="http://www.w3.org/2000/svg">
  <defs
     id="defs1" />
  <sodipodi:namedview
     id="namedview1"
     pagecolor="#ffffff"
     bordercolor="#000000"
     borderopacity="0.25"
     inkscape:showpageshadow="2"
     inkscape:pageopacity="0.0"
     inkscape:pagecheckerboard="0"
     inkscape:deskcolor="#d1d1d1"
     inkscape:zoom="1.5742188"
     inkscape:cx="235.99007"
     inkscape:cy="255.99999"
     inkscape:window-width="1920"
     inkscape:window-height="1009"
     inkscape:window-x="-8"
     inkscape:window-y="-8"
     inkscape:window-maximized="1"
     inkscape:current-layer="svg1"
     showgrid="false" />
  <g
     transform="matrix(1,0,0,-1,-2,856)"
     id="g1"
     style="fill:#ffffff">
    <path
       fill="currentColor"
       d="m 730,347 3,-2 V 95 L 516,-31 299,95 v 250 1 L 82,471 V 722 L 299,847 514,723 729,847 946,722 V 471 Z M 232,484 q 0,-15 5.5,-26.5 Q 243,446 254,437 264,429 278.5,424.5 293,420 312,420 q 18,0 32,4.5 14,4.5 24,13.5 10,8 15,19 5,11 5,24 0,12 -4.5,22 -4.5,10 -12.5,16 -6,5 -14,8.5 -8,3.5 -19,5.5 l -32,8 q -10,2 -16,4 -6,2 -9,4 -4,2 -6.5,6 -2.5,4 -2.5,9 0,6 2.5,10 2.5,4 6.5,7 5,3 11,4.5 6,1.5 14,1.5 6,0 12,-1 6,-1 11,-3 7,-4 10.5,-10 3.5,-6 4.5,-15 h 38 q -1,16 -6.5,27.5 Q 370,597 359,604 q -10,8 -23,12 -13,4 -28,4 -18,0 -31.5,-4 -13.5,-4 -22.5,-12 -9,-9 -14,-19.5 -5,-10.5 -5,-23.5 0,-14 5,-24 5,-10 15,-17 5,-4 15.5,-7.5 Q 281,509 295,506 l 21,-5 q 8,-2 14.5,-4 6.5,-2 10.5,-5 4,-2 6.5,-6 2.5,-4 2.5,-8 0,-8 -4.5,-13.5 Q 341,459 333,456 q -4,-2 -10,-2.5 -6,-0.5 -13,-0.5 -11,0 -19.5,3 -8.5,3 -13.5,8 -2,4 -4,8.5 -2,4.5 -3,11.5 z m 182,-59 h 39 v 190 h -39 z m 63,0 h 147 v 34 h -99 l 99,124 v 32 H 479 v -34 h 96 L 477,459 Z M 791,615 H 652 V 425 h 144 v 34 H 691 v 49 h 92 v 33 h -92 v 40 H 791 Z M 577,162 v 32 h -82 q 2,3 4,5.5 2,2.5 5,4.5 2,3 7,6.5 5,3.5 12,8.5 l 14,10 q 10,7 16.5,12.5 6.5,5.5 10.5,11.5 6,8 9,17 3,9 3,20 0,13 -4,24 -4,11 -13,19 -9,8 -20.5,12 -11.5,4 -26.5,4 -19,0 -32,-7 -13,-7 -20,-21 -4,-7 -6,-16.5 -2,-9.5 -3,-21.5 h 36 q 0,8 1,13.5 1,5.5 3,9.5 3,6 8.5,9 5.5,3 14.5,3 6,0 10.5,-2 4.5,-2 7.5,-5 4,-4 5.5,-9 1.5,-5 1.5,-11 0,-7 -3,-14 -3,-7 -9,-13 -3,-4 -11.5,-10.5 Q 507,247 495,238 q -15,-10 -24,-20 -9,-10 -13,-19 -4,-9 -6.5,-18 -2.5,-9 -2.5,-19 z"
       id="path1"
       style="fill:#ffffff" />
  </g>
</svg>
