<?xml version="1.0" encoding="UTF-8" standalone="no"?>
<svg
   version="1.1"
   viewBox="0 -64 1024 1024"
   width="512"
   height="512"
   id="svg1"
   sodipodi:docname="size_1.svg"
   inkscape:version="1.2.2 (732a01da63, 2022-12-09)"
   xmlns:inkscape="http://www.inkscape.org/namespaces/inkscape"
   xmlns:sodipodi="http://sodipodi.sourceforge.net/DTD/sodipodi-0.dtd"
   xmlns="http://www.w3.org/2000/svg"
   xmlns:svg="http://www.w3.org/2000/svg">
  <defs
     id="defs1" />
  <sodipodi:namedview
     id="namedview1"
     pagecolor="#ffffff"
     bordercolor="#000000"
     borderopacity="0.25"
     inkscape:showpageshadow="2"
     inkscape:pageopacity="0.0"
     inkscape:pagecheckerboard="0"
     inkscape:deskcolor="#d1d1d1"
     inkscape:zoom="1.5742188"
     inkscape:cx="235.99007"
     inkscape:cy="255.99999"
     inkscape:window-width="1920"
     inkscape:window-height="1009"
     inkscape:window-x="-8"
     inkscape:window-y="-8"
     inkscape:window-maximized="1"
     inkscape:current-layer="svg1"
     showgrid="false" />
  <g
     transform="matrix(1,0,0,-1,-15,856)"
     id="g1"
     style="fill:#ffffff">
    <path
       fill="currentColor"
       d="M 527,847 907,628 V 189 L 527,-31 147,189 V 628 Z M 490,425 h 147 v 34 h -99 l 99,124 v 32 H 492 v -34 h 95 L 490,459 Z M 804,615 H 665 V 425 h 144 v 34 H 704 v 49 h 92 v 33 h -92 v 40 H 804 Z M 427,425 h 39 v 190 h -39 z m -182,59 q 0,-15 5.5,-26.5 Q 256,446 266,437 277,429 291.5,424.5 306,420 325,420 q 18,0 32,4.5 14,4.5 24,13.5 10,8 15,19 5,11 5,24 0,12 -4.5,22 -4.5,10 -12.5,16 -6,5 -14,8.5 -8,3.5 -19,5.5 l -33,8 q -9,2 -15,4 -6,2 -9,4 -5,2 -7,6 -2,4 -2,9 0,6 2,10 2,4 7,7 4,3 10.5,4.5 6.5,1.5 13.5,1.5 7,0 13,-1 6,-1 10,-3 7,-4 11,-10 4,-6 4,-15 h 38 q 0,16 -5.5,27.5 Q 383,597 372,604 q -10,8 -23,12 -13,4 -28,4 -18,0 -31.5,-4 Q 276,612 267,604 257,595 252.5,584.5 248,574 248,561 q 0,-14 5,-24 5,-10 14,-17 6,-4 16,-7.5 10,-3.5 25,-6.5 l 20,-5 q 9,-2 15.5,-4 6.5,-2 10.5,-5 4,-2 6,-6 2,-4 2,-8 0,-8 -4,-13.5 -4,-5.5 -12,-8.5 -5,-2 -10.5,-2.5 Q 330,453 323,453 q -12,0 -20,3 -8,3 -13,8 -3,4 -4.5,8.5 Q 284,477 283,484 Z M 516,291 V 162 h 37 v 186 h -30 q 0,-1 -0.5,-3 -0.5,-2 -1.5,-4 -1,-4 -3,-7.5 -2,-3.5 -4,-5.5 -3,-4 -7.5,-6.5 Q 502,319 496,318 493,317 486.5,316.5 480,316 472,316 v -25 z"
       id="path1"
       style="fill:#ffffff" />
  </g>
</svg>
