<?xml version="1.0" encoding="UTF-8" standalone="no"?>
<svg
   version="1.1"
   viewBox="0 -64 1024 1024"
   width="512"
   height="512"
   id="svg1"
   sodipodi:docname="squad.svg"
   inkscape:version="1.3.1 (91b66b0783, 2023-11-16)"
   xmlns:inkscape="http://www.inkscape.org/namespaces/inkscape"
   xmlns:sodipodi="http://sodipodi.sourceforge.net/DTD/sodipodi-0.dtd"
   xmlns="http://www.w3.org/2000/svg"
   xmlns:svg="http://www.w3.org/2000/svg">
  <defs
     id="defs1" />
  <sodipodi:namedview
     id="namedview1"
     pagecolor="#ffffff"
     bordercolor="#000000"
     borderopacity="0.25"
     inkscape:showpageshadow="2"
     inkscape:pageopacity="0.0"
     inkscape:pagecheckerboard="0"
     inkscape:deskcolor="#d1d1d1"
     inkscape:zoom="1.5742188"
     inkscape:cx="256"
     inkscape:cy="255.68238"
     inkscape:window-width="1920"
     inkscape:window-height="1009"
     inkscape:window-x="3832"
     inkscape:window-y="-8"
     inkscape:window-maximized="1"
     inkscape:current-layer="svg1" />
  <g
     transform="matrix(1 0 0 -1 0 960)"
     id="g1"
     style="fill:#ffffff">
    <path
       fill="currentColor"
       d="M512 723q-23 0 -39 -16t-16 -39v0q0 -23 16 -39.5t39 -16.5v0q23 0 39 16.5t16 39.5v0q0 23 -16 39t-39 16v0v0zM349 644q-25 0 -43 -18t-18 -44v0v0v0q0 -25 18 -43t43 -18v0v0v0q26 0 44 18t18 43v0v0v0q0 26 -18 44t-44 18v0v0v0zM675 644v0v0q-26 0 -44 -18t-18 -44 v0v0v0q0 -25 18 -43t44 -18v0v0v0q25 0 43 18t18 43v0v0v0q0 26 -18 44t-43 18v0v0zM512 551q-28 0 -48 -20t-20 -49v0q0 -28 20 -48t48 -20v0q28 0 48 20t20 48v0q0 29 -20 49t-48 20v0zM177 548q-29 0 -49 -20t-20 -49v0q0 -28 20 -48t49 -20v0q28 0 48 20t20 48v0 q0 29 -20 49t-48 20v0zM847 548q-28 0 -48 -20t-20 -49v0q0 -28 20 -48t48 -20v0q29 0 49 20t20 48v0q0 29 -20 49t-49 20v0zM328 443q-31 0 -53.5 -22t-22.5 -54v0v0v0v0v0q0 -31 22.5 -53.5t53.5 -22.5v0v0v0q31 0 53.5 22.5t22.5 53.5v0v0v0v0v0q0 32 -22.5 54t-53.5 22 v0v0v0zM696 443v0v0q-31 0 -53.5 -22t-22.5 -54v0v0v0v0v0q0 -31 22.5 -53.5t53.5 -22.5v0v0v0q31 0 53.5 22.5t22.5 53.5v0v0v0v0v0q0 32 -22.5 54t-53.5 22v0zM512 339v0v0q-35 0 -59.5 -24.5t-24.5 -59.5v0v0v0q0 -35 24.5 -59.5t59.5 -24.5v0v0v0v0v0q35 0 59.5 24.5 t24.5 59.5v0v0v0q0 35 -24.5 59.5t-59.5 24.5v0v0v0z"
       id="path1"
       style="fill:#ffffff" />
  </g>
</svg>
