<?xml version="1.0" encoding="UTF-8" standalone="no"?>
<svg
   version="1.1"
   viewBox="0 -64 1024 1024"
   width="512"
   height="512"
   id="svg1"
   sodipodi:docname="sword_array.svg"
   inkscape:version="1.3.1 (91b66b0783, 2023-11-16)"
   xmlns:inkscape="http://www.inkscape.org/namespaces/inkscape"
   xmlns:sodipodi="http://sodipodi.sourceforge.net/DTD/sodipodi-0.dtd"
   xmlns="http://www.w3.org/2000/svg"
   xmlns:svg="http://www.w3.org/2000/svg">
  <defs
     id="defs1" />
  <sodipodi:namedview
     id="namedview1"
     pagecolor="#ffffff"
     bordercolor="#000000"
     borderopacity="0.25"
     inkscape:showpageshadow="2"
     inkscape:pageopacity="0.0"
     inkscape:pagecheckerboard="0"
     inkscape:deskcolor="#d1d1d1"
     inkscape:zoom="1.5742188"
     inkscape:cx="256"
     inkscape:cy="255.68238"
     inkscape:window-width="1920"
     inkscape:window-height="1009"
     inkscape:window-x="3832"
     inkscape:window-y="-8"
     inkscape:window-maximized="1"
     inkscape:current-layer="svg1" />
  <g
     transform="matrix(1 0 0 -1 0 960)"
     id="g1"
     style="fill:#ffffff">
    <path
       fill="currentColor"
       d="M404 903q-13 0 -22.5 -9.5t-9.5 -23.5q0 -13 9 -22.5t23 -9.5q6 0 11.5 2t9.5 5l117 -43l-21 -60l35 -13l9 27l320 -116l104 19l-66 82l-320 117l9 27l-35 12l-22 -60l-120 44q-3 10 -11.5 16t-19.5 6v0zM590 823l248 -90l22 -27l-30 -7l-252 92l12 32v0zM327 761 q-14 0 -23.5 -9.5t-9.5 -23.5q0 -13 9.5 -22.5t23.5 -9.5q3 0 5.5 0.5t4.5 0.5v0l105 -74l-36 -53l30 -21l16 23l279 -195l106 -8l-42 96l-280 196l16 23l-31 22l-36 -53l-105 73v1.5v0.5q0 14 -9.5 23.5t-22.5 9.5v0zM221 633q-13 0 -22.5 -9.5t-9.5 -23.5q0 -13 9.5 -22.5 t22.5 -9.5h3h3l74 -88l-49 -41l24 -29l21 19l220 -262l99 -33l-16 104l-219 260l21 19l-24 28l-49 -41l-76 91q1 1 1 2.5v2.5q0 14 -9.5 23.5t-23.5 9.5v0zM493 630l215 -150l14 -31l-31 2l-217 152l19 27v0zM86 545q-14 0 -23.5 -9.5t-9.5 -23.5q0 -11 7 -20t18 -11 l48 -104l-58 -27l16 -33l26 12l144 -310l87 -58l11 105l-144 309l26 11l-16 34l-58 -27l-47 101q2 4 3.5 8.5t1.5 10.5q0 13 -9.5 22.5t-22.5 9.5v0zM352 474l168 -200l6 -33l-31 10l-169 202l26 21v0zM174 359l110 -235l-3 -34l-27 17l-110 237l30 15v0z"
       id="path1"
       style="fill:#ffffff" />
  </g>
</svg>
