<?xml version="1.0" encoding="UTF-8" standalone="no"?>
<svg
   version="1.1"
   viewBox="0 -64 1024 1024"
   width="512"
   height="512"
   id="svg145"
   sodipodi:docname="activate.svg"
   inkscape:version="1.2.2 (732a01da63, 2022-12-09)"
   xmlns:inkscape="http://www.inkscape.org/namespaces/inkscape"
   xmlns:sodipodi="http://sodipodi.sourceforge.net/DTD/sodipodi-0.dtd"
   xmlns="http://www.w3.org/2000/svg"
   xmlns:svg="http://www.w3.org/2000/svg">
  <defs
     id="defs149" />
  <sodipodi:namedview
     id="namedview147"
     pagecolor="#ffffff"
     bordercolor="#000000"
     borderopacity="0.25"
     inkscape:showpageshadow="2"
     inkscape:pageopacity="0.0"
     inkscape:pagecheckerboard="0"
     inkscape:deskcolor="#d1d1d1"
     showgrid="false"
     inkscape:zoom="1.6191406"
     inkscape:cx="236.23643"
     inkscape:cy="256.30881"
     inkscape:window-width="1920"
     inkscape:window-height="1009"
     inkscape:window-x="-8"
     inkscape:window-y="-8"
     inkscape:window-maximized="1"
     inkscape:current-layer="svg145" />
  <g
     transform="matrix(1,0,0,-1,0,896)"
     id="g143">
    <path
       fill="currentColor"
       d="M 512,838 122,448 147,424 512,58 902,448 Z M 512,741 805,448 512,155 219,448 Z M 444,604 Q 399,584 370,542 341,500 341,448 341,378 391.5,327.5 442,277 512,277 582,277 632.5,327.5 683,378 683,448 q 0,52 -29,94 -29,42 -74,62 v -80 q 16,-14 25,-33.5 9,-19.5 9,-42.5 0,-43 -29.5,-72.5 Q 555,346 512,346 469,346 439.5,375.5 410,405 410,448 q 0,23 9,42.5 9,19.5 25,33.5 z m 34,49 V 448 h 68 v 205 z"
       id="path141" />
  </g>
</svg>
