<?xml version="1.0" standalone="no"?>
<!DOCTYPE svg PUBLIC "-//W3C//DTD SVG 1.1//EN" "http://www.w3.org/Graphics/SVG/1.1/DTD/svg11.dtd" >
<svg xmlns="http://www.w3.org/2000/svg" xmlns:xlink="http://www.w3.org/1999/xlink" version="1.1" viewBox="0 -64 1024 1024" width="512" height="512">
  <g transform="matrix(1 0 0 -1 0 960)">
   <path fill="currentColor"
d="M512 838l-390 -390l25 -24l365 -366l390 390zM512 741l293 -293l-293 -293l-293 293zM444 604q-45 -20 -74 -62t-29 -94q0 -70 50.5 -120.5t120.5 -50.5t120.5 50.5t50.5 120.5q0 52 -29 94t-74 62v-80q16 -14 25 -33.5t9 -42.5q0 -43 -29.5 -72.5t-72.5 -29.5
t-72.5 29.5t-29.5 72.5q0 23 9 42.5t25 33.5v80zM478 653v-205h68v205h-68z" />
  </g>

</svg>
