<?xml version="1.0" standalone="no"?>
<!DOCTYPE svg PUBLIC "-//W3C//DTD SVG 1.1//EN" "http://www.w3.org/Graphics/SVG/1.1/DTD/svg11.dtd" >
<svg xmlns="http://www.w3.org/2000/svg" xmlns:xlink="http://www.w3.org/1999/xlink" version="1.1" viewBox="0 -64 1024 1024" width="512" height="512">
  <g transform="matrix(1 0 0 -1 0 960)">
   <path fill="currentColor"
d="M643 929l-118 -117l52 -14l-31 -116q-8 1 -16.5 2t-16.5 1q-1 -1 -2.5 -1h-2.5l44 -91l85 57l-20 10t-21 9l31 116l58 -15zM267 880l-1 -166l47 27l60 -104q-8 -6 -15 -12.5t-14 -13.5l101 -33l18 101q-12 -3 -23.5 -7t-21.5 -9l-60 104l51 29l-142 84v0zM777 699l27 -46
l-104 -61q-6 8 -12.5 15t-13.5 13l-32 -96l99 -18q-3 11 -6.5 21.5t-8.5 19.5l104 60l29 -51l84 143h-166v0zM196 622l-160 -42l117 -118l14 52l116 -31q-2 -10 -2.5 -20t0.5 -20l95 45l-60 87q-6 -10 -11 -20.5t-9 -21.5l-116 31l16 58v0zM747 459l-90 -45l57 -84
q4 8 8.5 16t7.5 17l116 -31l-14 -52l160 43l-117 117l-15 -58l-116 31q2 12 3 23.5t0 22.5v0zM287 399q2 -10 5 -19.5t7 -18.5l-104 -60l-27 46l-83 -144l165 1l-29 52l103 59q7 -9 15 -18t17 -18l35 99l-104 21v0zM588 327l-18 -103q8 3 17 5.5t17 6.5l60 -104l-46 -27
l144 -83l-1 165l-52 -29l-59 103q9 7 18 15t17 17zM481 312l-89 -60q8 -5 16.5 -9.5t17.5 -7.5l-31 -116l-52 14l43 -160l117 117l-58 15l31 116q13 -2 25 -3t25 0l-45 94v0z" />
  </g>

</svg>
