<?xml version="1.0" encoding="UTF-8" standalone="no"?>
<svg
   version="1.1"
   viewBox="0 -64 1024 1024"
   width="512"
   height="512"
   id="svg345"
   sodipodi:docname="balance.svg"
   inkscape:version="1.2.2 (732a01da63, 2022-12-09)"
   xmlns:inkscape="http://www.inkscape.org/namespaces/inkscape"
   xmlns:sodipodi="http://sodipodi.sourceforge.net/DTD/sodipodi-0.dtd"
   xmlns="http://www.w3.org/2000/svg"
   xmlns:svg="http://www.w3.org/2000/svg">
  <defs
     id="defs349" />
  <sodipodi:namedview
     id="namedview347"
     pagecolor="#ffffff"
     bordercolor="#000000"
     borderopacity="0.25"
     inkscape:showpageshadow="2"
     inkscape:pageopacity="0.0"
     inkscape:pagecheckerboard="0"
     inkscape:deskcolor="#d1d1d1"
     showgrid="false"
     inkscape:zoom="1.6191406"
     inkscape:cx="236.23643"
     inkscape:cy="256.30881"
     inkscape:window-width="1920"
     inkscape:window-height="1009"
     inkscape:window-x="-8"
     inkscape:window-y="-8"
     inkscape:window-maximized="1"
     inkscape:current-layer="svg345" />
  <g
     transform="matrix(1,0,0,-1,-2,899)"
     id="g343">
    <path
       fill="currentColor"
       d="M 643,929 525,812 577,798 546,682 q -8,1 -16.5,2 -8.5,1 -16.5,1 -1,-1 -2.5,-1 H 508 l 44,-91 85,57 -20,10 q 0,0 -21,9 l 31,116 58,-15 z m -376,-49 -1,-166 47,27 60,-104 q -8,-6 -15,-12.5 -7,-6.5 -14,-13.5 l 101,-33 18,101 q -12,-3 -23.5,-7 -11.5,-4 -21.5,-9 l -60,104 51,29 z M 777,699 804,653 700,592 q -6,8 -12.5,15 -6.5,7 -13.5,13 l -32,-96 99,-18 q -3,11 -6.5,21.5 Q 731,538 726,547 l 104,60 29,-51 84,143 z M 196,622 36,580 153,462 l 14,52 116,-31 q -2,-10 -2.5,-20 -0.5,-10 0.5,-20 l 95,45 -60,87 Q 310,565 305,554.5 300,544 296,533 l -116,31 z m 551,-163 -90,-45 57,-84 q 4,8 8.5,16 4.5,8 7.5,17 l 116,-31 -14,-52 160,43 -117,117 -15,-58 -116,31 q 2,12 3,23.5 1,11.5 0,22.5 z M 287,399 q 2,-10 5,-19.5 3,-9.5 7,-18.5 l -104,-60 -27,46 -83,-144 165,1 -29,52 103,59 q 7,-9 15,-18 8,-9 17,-18 l 35,99 z M 588,327 570,224 q 8,3 17,5.5 9,2.5 17,6.5 l 60,-104 -46,-27 144,-83 -1,165 -52,-29 -59,103 q 9,7 18,15 9,8 17,17 z M 481,312 392,252 q 8,-5 16.5,-9.5 Q 417,238 426,235 l -31,-116 -52,14 43,-160 117,117 -58,15 31,116 q 13,-2 25,-3 12,-1 25,0 z"
       id="path341" />
  </g>
</svg>
