<?xml version="1.0" standalone="no"?>
<!DOCTYPE svg PUBLIC "-//W3C//DTD SVG 1.1//EN" "http://www.w3.org/Graphics/SVG/1.1/DTD/svg11.dtd" >
<svg xmlns="http://www.w3.org/2000/svg" xmlns:xlink="http://www.w3.org/1999/xlink" version="1.1" viewBox="0 -64 1024 1024" width="512" height="512">
  <g transform="matrix(1 0 0 -1 0 960)">
   <path fill="currentColor"
d="M38 923v-68l526 -526q11 -11 21.5 -15t19.5 -4t18 4.5t15 11.5q14 14 16 34t-18 40l-523 523h-75v0zM852 524q-13 0 -26.5 -1.5t-27.5 -4.5l18 -35q9 2 17.5 2.5t16.5 0.5q24 0 42.5 -6.5t31.5 -19.5q20 -21 24.5 -55.5t-8.5 -78.5q0 -3 -1 -6l-2 -6l-45 105l-18 -135
l-67 93l-3 -118l-76 37q18 22 30 44.5t19 45.5q8 30 5 59t-23 49q-12 12 -28.5 18t-34.5 6q-11 0 -22.5 -1.5t-22.5 -5.5q-13 -3 -26 -8.5t-25 -13.5l27 -27q9 4 17.5 7.5t16.5 5.5q10 3 18 4.5t16 1.5q12 0 21.5 -3.5t16.5 -10.5q10 -10 12.5 -28t-4.5 -43
q-8 -25 -25 -52.5t-42 -53.5q-26 -26 -54 -43t-52 -24q-25 -7 -43.5 -4.5t-28.5 12.5t-12.5 28.5t4.5 42.5q3 9 6.5 17.5t7.5 17.5l-27 28q-8 -13 -13.5 -26t-9.5 -26q-9 -31 -5.5 -60t23.5 -48q20 -20 48.5 -23.5t59.5 5.5q22 6 44.5 18t44.5 29l39 -80l-126 -3l93 -67
l-135 -18l101 -42q0 -1 -0.5 -1h-0.5q-45 -13 -79.5 -8.5t-54.5 25.5q-18 18 -24 45t0 62l-34 19q-10 -45 -3 -85t34 -67q30 -31 75.5 -36t95.5 9q50 15 102 47t100 80q48 47 80 99.5t46 102.5q15 50 9.5 95t-35.5 75q-19 19 -44 28t-54 10v0z" />
  </g>

</svg>
