<?xml version="1.0" encoding="UTF-8" standalone="no"?>
<svg
   version="1.1"
   viewBox="0 -64 1024 1024"
   width="512"
   height="512"
   id="svg370"
   sodipodi:docname="barrage.svg"
   inkscape:version="1.2.2 (732a01da63, 2022-12-09)"
   xmlns:inkscape="http://www.inkscape.org/namespaces/inkscape"
   xmlns:sodipodi="http://sodipodi.sourceforge.net/DTD/sodipodi-0.dtd"
   xmlns="http://www.w3.org/2000/svg"
   xmlns:svg="http://www.w3.org/2000/svg">
  <defs
     id="defs374" />
  <sodipodi:namedview
     id="namedview372"
     pagecolor="#ffffff"
     bordercolor="#000000"
     borderopacity="0.25"
     inkscape:showpageshadow="2"
     inkscape:pageopacity="0.0"
     inkscape:pagecheckerboard="0"
     inkscape:deskcolor="#d1d1d1"
     showgrid="false"
     inkscape:zoom="1.6191406"
     inkscape:cx="236.23643"
     inkscape:cy="256.30881"
     inkscape:window-width="1920"
     inkscape:window-height="1009"
     inkscape:window-x="-8"
     inkscape:window-y="-8"
     inkscape:window-maximized="1"
     inkscape:current-layer="svg370" />
  <g
     transform="matrix(1,0,0,-1,-0.48780488,897.84211)"
     id="g368">
    <path
       fill="currentColor"
       d="M 38,923 V 855 L 564,329 q 11,-11 21.5,-15 10.5,-4 19.5,-4 9,0 18,4.5 9,4.5 15,11.5 14,14 16,34 2,20 -18,40 L 113,923 Z M 852,524 q -13,0 -26.5,-1.5 Q 812,521 798,518 l 18,-35 q 9,2 17.5,2.5 8.5,0.5 16.5,0.5 24,0 42.5,-6.5 Q 911,473 924,460 944,439 948.5,404.5 953,370 940,326 q 0,-3 -1,-6 l -2,-6 -45,105 -18,-135 -67,93 -3,-118 -76,37 q 18,22 30,44.5 12,22.5 19,45.5 8,30 5,59 -3,29 -23,49 -12,12 -28.5,18 -16.5,6 -34.5,6 -11,0 -22.5,-1.5 Q 662,515 651,511 638,508 625,502.5 612,497 600,489 l 27,-27 q 9,4 17.5,7.5 8.5,3.5 16.5,5.5 10,3 18,4.5 8,1.5 16,1.5 12,0 21.5,-3.5 Q 726,474 733,467 743,457 745.5,439 748,421 741,396 733,371 716,343.5 699,316 674,290 648,264 620,247 592,230 568,223 543,216 524.5,218.5 506,221 496,231 486,241 483.5,259.5 481,278 488,302 q 3,9 6.5,17.5 3.5,8.5 7.5,17.5 l -27,28 q -8,-13 -13.5,-26 -5.5,-13 -9.5,-26 -9,-31 -5.5,-60 3.5,-29 23.5,-48 20,-20 48.5,-23.5 28.5,-3.5 59.5,5.5 22,6 44.5,18 22.5,12 44.5,29 L 706,154 580,151 673,84 538,66 639,24 q 0,-1 -0.5,-1 H 638 Q 593,10 558.5,14.5 524,19 504,40 q -18,18 -24,45 -6,27 0,62 l -34,19 q -10,-45 -3,-85 7,-40 34,-67 30,-31 75.5,-36 45.5,-5 95.5,9 50,15 102,47 52,32 100,80 48,47 80,99.5 32,52.5 46,102.5 15,50 9.5,95 -5.5,45 -35.5,75 -19,19 -44,28 -25,9 -54,10 z"
       id="path366" />
  </g>
</svg>
