<?xml version="1.0" standalone="no"?>
<!DOCTYPE svg PUBLIC "-//W3C//DTD SVG 1.1//EN" "http://www.w3.org/Graphics/SVG/1.1/DTD/svg11.dtd" >
<svg xmlns="http://www.w3.org/2000/svg" xmlns:xlink="http://www.w3.org/1999/xlink" version="1.1" viewBox="0 -64 1024 1024" width="512" height="512">
  <g transform="matrix(1 0 0 -1 0 960)">
   <path fill="currentColor"
d="M62 913q-1 -75 5 -146q6 -70 27 -130.5t61 -108.5q41 -48 108 -77q83 -35 104 -76q22 -40 -0.5 -69t-81.5 -38q-59 -10 -138 17q57 -49 111 -100q55 -51 105.5 -95t97.5 -78q46 -33 88 -47q10 -4 21 -6.5t23 -2.5q17 0 32.5 5t29.5 14q47 -13 88 -17.5t76 -1.5
q30 1 57.5 10t50.5 26q37 25 58 65q20 40 23.5 92t-11.5 114q-14 63 -47 131q2 13 1.5 25.5t-3.5 25.5q-3 14 -9.5 27t-15.5 24q-21 32 -56 63q-36 31 -78.5 62t-90.5 62l-94 62q117 -149 111.5 -205.5t-90.5 16.5q2 12 -1 23.5t-11 23.5q-2 5 -5.5 9.5t-7.5 8.5
q-27 34 -74.5 77.5t-99.5 107.5q28 -140 -1 -179q-30 -39 -89.5 -10t-134.5 111q-76 82 -139 185v0zM536 612q21 0 35.5 -14.5t14.5 -35.5t-14.5 -36t-35.5 -15t-36 15t-15 36t15 35.5t36 14.5v0zM831 503q34 0 58 -24t24 -58t-24 -58t-58 -24q-8 0 -15.5 1t-13.5 4
q-2 29 -15.5 53.5t-35.5 40.5q6 28 28 46.5t52 18.5v0zM680 424q35 0 59.5 -25t24.5 -60t-24.5 -59.5t-59.5 -24.5t-60 24.5t-25 59.5t25 60t60 25v0zM818 293q62 0 105.5 -44t43.5 -106t-43.5 -105.5t-105.5 -43.5q-35 0 -65.5 14.5t-50.5 40.5q0 4 0.5 8.5t0.5 8.5
q0 24 -9.5 44.5t-25.5 35.5q1 20 6 38t14 34q35 2 62.5 22t40.5 50q7 2 13.5 2.5t13.5 0.5v0zM527 272q18 0 31.5 -13.5t13.5 -32.5t-13.5 -32t-31.5 -13q-19 0 -32.5 13t-13.5 32t13.5 32.5t32.5 13.5v0zM593 139q30 0 51.5 -21.5t21.5 -51.5t-21.5 -51.5t-51.5 -21.5
t-51.5 21.5t-21.5 51.5t21.5 51.5t51.5 21.5v0z" />
  </g>

</svg>
