<?xml version="1.0" standalone="no"?>
<!DOCTYPE svg PUBLIC "-//W3C//DTD SVG 1.1//EN" "http://www.w3.org/Graphics/SVG/1.1/DTD/svg11.dtd" >
<svg xmlns="http://www.w3.org/2000/svg" xmlns:xlink="http://www.w3.org/1999/xlink" version="1.1" viewBox="0 -64 1024 1024" width="512" height="512">
  <g transform="matrix(1 0 0 -1 0 960)">
   <path fill="currentColor"
d="M512 789q-71 0 -133 -26q-62 -27 -108.5 -73.5t-72.5 -108.5q-27 -62 -27 -133t27 -133q26 -62 72.5 -108.5t108.5 -73.5q62 -26 133 -26q70 0 133 26q62 27 108.5 73.5t72.5 108.5q27 62 27 133t-27 133q-26 62 -72.5 108.5t-108.5 73.5q-63 26 -133 26zM512 721
q57 0 106 -21q50 -22 87 -59t59 -87q21 -49 21 -106t-21 -106q-22 -50 -59 -87t-87 -59q-49 -21 -106 -21t-106 21q-50 22 -87 59t-59 87q-21 49 -21 106t21 106q22 50 59 87t87 59q49 21 106 21v0zM424 633q-32 -16 -56.5 -40.5t-39.5 -55.5l-1 -1l88 -88l-88 -88
q16 -32 40.5 -56.5t55.5 -39.5l1 -1l88 88l88 -88q32 16 56.5 40.5t39.5 55.5l1 1l-88 88l88 88q-16 32 -40.5 56.5t-55.5 39.5l-1 1l-88 -88l-88 88v0z" />
  </g>

</svg>
