<?xml version="1.0" encoding="UTF-8" standalone="no"?>
<!-- Created with Inkscape (http://www.inkscape.org/) -->

<svg
   width="112.79237mm"
   height="112.79237mm"
   viewBox="0 0 112.79237 112.79237"
   version="1.1"
   id="svg1"
   xml:space="preserve"
   inkscape:export-filename="..\..\..\..\Github\foundryvtt-lancer\public\assets\icons\white\corepower.svg"
   inkscape:export-xdpi="96"
   inkscape:export-ydpi="96"
   sodipodi:docname="LeftEmptyCPBar.svg"
   inkscape:version="1.3.1 (91b66b0783, 2023-11-16)"
   xmlns:inkscape="http://www.inkscape.org/namespaces/inkscape"
   xmlns:sodipodi="http://sodipodi.sourceforge.net/DTD/sodipodi-0.dtd"
   xmlns="http://www.w3.org/2000/svg"
   xmlns:svg="http://www.w3.org/2000/svg"><sodipodi:namedview
     id="namedview1"
     pagecolor="#ffffff"
     bordercolor="#000000"
     borderopacity="0.25"
     inkscape:showpageshadow="2"
     inkscape:pageopacity="0.0"
     inkscape:pagecheckerboard="0"
     inkscape:deskcolor="#d1d1d1"
     inkscape:document-units="mm"
     inkscape:zoom="1.4142136"
     inkscape:cx="283.19626"
     inkscape:cy="225.21351"
     inkscape:window-width="1920"
     inkscape:window-height="1009"
     inkscape:window-x="1912"
     inkscape:window-y="-8"
     inkscape:window-maximized="1"
     inkscape:current-layer="layer1" /><defs
     id="defs1" /><g
     inkscape:label="Layer 1"
     inkscape:groupmode="layer"
     id="layer1"
     transform="translate(-65.694443,-79.143959)"><path
       style="display:inline;opacity:1;fill:#000000;fill-opacity:1;stroke-width:1.97872"
       d="m 91.627707,95.274227 c 0,0 3.81114,-0.28255 8.22479,-0.21253 5.029883,0.0794 8.093263,-0.0944 8.208263,-0.46548 0.10069,-0.32471 0.14459,-2.40202 0.0969,-4.61398 -0.0624,-2.88399 0.13692,-4.07968 0.70518,-4.22667 1.07299,-0.27767 26.57876,-0.11009 27.10027,0.17838 0.2275,0.12507 0.41152,2.2235 0.40929,4.66108 -0.002,2.43772 -0.15842,4.52764 0.0401,4.64439 0.19859,0.11672 4.05927,0.2073 8.19441,0.20207 4.13521,-0.007 7.95701,0.23517 7.95701,0.23517 l 0.0505,89.789973 -61.047593,-0.31229 c 0.0198,-29.96004 0.0405,-59.92007 0.0609,-89.880113 z m 50.191753,65.372783 c -0.007,-0.3275 -6.88364,-1.85374 -14.66379,-3.76059 -7.78024,-1.90676 -14.69752,-3.76963 -14.69752,-3.76963 0.93973,-5.03665 2.89983,-14.81657 2.89983,-14.81657 l -13.73964,-1.67784 c 0,0 -0.38654,38.0889 -0.18534,38.20743 0.28463,0.16722 40.16115,1.3154 40.17933,0.47549 0.21566,-9.97697 0.20695,-14.65829 0.20695,-14.65829 z m 0.98383,-44.45154 c 0.13796,-14.86632 0.0561,-11.22464 -0.18186,-11.34233 -0.58067,-0.28708 -40.27512,-0.50329 -40.432,-0.22019 -0.20207,0.36484 -0.35536,11.26767 -0.15573,11.36561 0.10138,0.0502 7.24903,1.37163 15.88471,2.93777 l 15.70124,2.84761 -1.14716,4.81096 c -0.63094,2.64603 -1.67309,7.01592 -2.3161,9.71069 l -1.16914,4.89966 3.82064,0.6469 c 2.10139,0.35595 5.09888,0.8843 6.66108,1.17458 1.56221,0.29021 2.89499,0.45326 2.96192,0.36261 0.0662,-0.0902 0.23482,-12.32805 0.37261,-27.19425 z"
       id="path17"
       inkscape:label="Core Logo"
       sodipodi:nodetypes="cssssccsscccccscccssccscsscsscsccccsc" /></g></svg>
