<?xml version="1.0" encoding="UTF-8" standalone="no"?>
<svg
   version="1.1"
   viewBox="0 -64 1024 1024"
   width="512"
   height="512"
   id="svg680"
   sodipodi:docname="core_bonus.svg"
   inkscape:version="1.2.2 (732a01da63, 2022-12-09)"
   xmlns:inkscape="http://www.inkscape.org/namespaces/inkscape"
   xmlns:sodipodi="http://sodipodi.sourceforge.net/DTD/sodipodi-0.dtd"
   xmlns="http://www.w3.org/2000/svg"
   xmlns:svg="http://www.w3.org/2000/svg">
  <defs
     id="defs684" />
  <sodipodi:namedview
     id="namedview682"
     pagecolor="#ffffff"
     bordercolor="#000000"
     borderopacity="0.25"
     inkscape:showpageshadow="2"
     inkscape:pageopacity="0.0"
     inkscape:pagecheckerboard="0"
     inkscape:deskcolor="#d1d1d1"
     showgrid="false"
     inkscape:zoom="1.6191406"
     inkscape:cx="236.23643"
     inkscape:cy="256.30881"
     inkscape:window-width="1920"
     inkscape:window-height="1009"
     inkscape:window-x="-8"
     inkscape:window-y="-8"
     inkscape:window-maximized="1"
     inkscape:current-layer="svg680" />
  <g
     transform="matrix(1,0,0,-1,-0.5,895.5)"
     id="g678">
    <path
       fill="currentColor"
       d="M 375,448 512,585 649,448 512,311 Z M 478,823 V 735 L 376,633 331,677 283,629 327,584 225,482 h -88 v -68 h 88 l 102,-103 -44,-44 48,-48 45,44 102,-102 V 72 h 68 v 89 l 103,102 44,-44 48,48 -44,44 102,103 h 89 v 68 h -89 l -102,103 44,44 -48,48 -44,-44 -103,102 v 88 z M 512,673 737,448 512,223 287,448 Z"
       id="path676" />
  </g>
</svg>
