<?xml version="1.0" standalone="no"?>
<!DOCTYPE svg PUBLIC "-//W3C//DTD SVG 1.1//EN" "http://www.w3.org/Graphics/SVG/1.1/DTD/svg11.dtd" >
<svg xmlns="http://www.w3.org/2000/svg" xmlns:xlink="http://www.w3.org/1999/xlink" version="1.1" viewBox="0 -64 1024 1024" width="512" height="512">
  <g transform="matrix(1 0 0 -1 0 960)">
   <path fill="currentColor"
d="M546 858l-22 -23t-51 -55.5t-57 -67.5t-41 -59q-25 -51 -24.5 -73t-9.5 -64q-17 -74 -59.5 -105t-42.5 -134q0 -75 44 -117t98 -63q-17 17 -28.5 36.5t-11.5 41.5q0 27 22 63q21 35 46.5 66.5t47.5 53.5l21 22l33 -20q33 -19 72.5 -49.5t70.5 -66.5q32 -36 29 -69
q-2 -15 -8.5 -30t-15.5 -29q49 26 87.5 66t38.5 95q0 77 -16 135q-16 57 -35 95.5t-35 57.5l-16 20l9 -70t-43 -67q-26 1 -39.5 36.5t-29.5 65.5q-25 52 -46.5 69t-21.5 68q0 77 17 124l17 47v0z" />
  </g>

</svg>
