<?xml version="1.0" encoding="UTF-8" standalone="no"?>
<svg
   version="1.1"
   viewBox="0 -64 1024 1024"
   width="512"
   height="512"
   id="svg208"
   sodipodi:docname="damage_variable.svg"
   inkscape:version="1.2.2 (732a01da63, 2022-12-09)"
   xmlns:inkscape="http://www.inkscape.org/namespaces/inkscape"
   xmlns:sodipodi="http://sodipodi.sourceforge.net/DTD/sodipodi-0.dtd"
   xmlns="http://www.w3.org/2000/svg"
   xmlns:svg="http://www.w3.org/2000/svg">
  <defs
     id="defs212" />
  <sodipodi:namedview
     id="namedview210"
     pagecolor="#ffffff"
     bordercolor="#000000"
     borderopacity="0.25"
     inkscape:showpageshadow="2"
     inkscape:pageopacity="0.0"
     inkscape:pagecheckerboard="0"
     inkscape:deskcolor="#d1d1d1"
     showgrid="false"
     inkscape:zoom="1.6191406"
     inkscape:cx="236.23643"
     inkscape:cy="256.30881"
     inkscape:window-width="1920"
     inkscape:window-height="1009"
     inkscape:window-x="-8"
     inkscape:window-y="-8"
     inkscape:window-maximized="1"
     inkscape:current-layer="svg208" />
  <g
     transform="matrix(1,0,0,-1,-1,898.5)"
     id="g206">
    <path
       fill="currentColor"
       d="M 375,214 Q 375,172 345.5,142.5 316,113 275,113 v 0 q -41,0 -70.5,29.5 Q 175,172 175,214 v 0 q 0,42 29.5,71.5 Q 234,315 275,315 v 0 q 41,0 70.5,-29.5 Q 375,256 375,214 Z M 851,687 Q 851,645 821.5,615.5 792,586 751,586 v 0 q -41,0 -70.5,29.5 Q 651,645 651,687 v 0 q 0,42 29.5,71.5 Q 710,788 751,788 v 0 q 41,0 70.5,-29.5 Q 851,729 851,687 Z M 612,448 Q 612,406 582.5,376.5 553,347 512,347 v 0 q -41,0 -70.5,29.5 Q 412,406 412,448 v 0 q 0,42 29.5,71.5 Q 471,549 512,549 v 0 q 41,0 70.5,-29.5 Q 612,490 612,448 Z"
       id="path204" />
  </g>
</svg>
