<?xml version="1.0" standalone="no"?>
<!DOCTYPE svg PUBLIC "-//W3C//DTD SVG 1.1//EN" "http://www.w3.org/Graphics/SVG/1.1/DTD/svg11.dtd" >
<svg xmlns="http://www.w3.org/2000/svg" xmlns:xlink="http://www.w3.org/1999/xlink" version="1.1" viewBox="0 -64 1024 1024" width="512" height="512">
  <g transform="matrix(1 0 0 -1 0 960)">
   <path fill="currentColor"
d="M375 214q0 -42 -29.5 -71.5t-70.5 -29.5v0q-41 0 -70.5 29.5t-29.5 71.5v0q0 42 29.5 71.5t70.5 29.5v0q41 0 70.5 -29.5t29.5 -71.5v0zM851 687q0 -42 -29.5 -71.5t-70.5 -29.5v0q-41 0 -70.5 29.5t-29.5 71.5v0q0 42 29.5 71.5t70.5 29.5v0q41 0 70.5 -29.5t29.5 -71.5
v0zM612 448q0 -42 -29.5 -71.5t-70.5 -29.5v0q-41 0 -70.5 29.5t-29.5 71.5v0q0 42 29.5 71.5t70.5 29.5v0q41 0 70.5 -29.5t29.5 -71.5v0z" />
  </g>

</svg>
