<?xml version="1.0" encoding="UTF-8" standalone="no"?>
<svg
   version="1.1"
   viewBox="0 -64 1024 1024"
   width="512"
   height="512"
   id="svg349"
   sodipodi:docname="deactivate.svg"
   inkscape:version="1.2.2 (732a01da63, 2022-12-09)"
   xmlns:inkscape="http://www.inkscape.org/namespaces/inkscape"
   xmlns:sodipodi="http://sodipodi.sourceforge.net/DTD/sodipodi-0.dtd"
   xmlns="http://www.w3.org/2000/svg"
   xmlns:svg="http://www.w3.org/2000/svg">
  <defs
     id="defs353" />
  <sodipodi:namedview
     id="namedview351"
     pagecolor="#ffffff"
     bordercolor="#000000"
     borderopacity="0.25"
     inkscape:showpageshadow="2"
     inkscape:pageopacity="0.0"
     inkscape:pagecheckerboard="0"
     inkscape:deskcolor="#d1d1d1"
     showgrid="false"
     inkscape:zoom="1.6191406"
     inkscape:cx="236.23643"
     inkscape:cy="256.30881"
     inkscape:window-width="1920"
     inkscape:window-height="1009"
     inkscape:window-x="-8"
     inkscape:window-y="-8"
     inkscape:window-maximized="1"
     inkscape:current-layer="svg349" />
  <g
     transform="matrix(1,0,0,-1,0,896)"
     id="g347">
    <path
       fill="currentColor"
       d="M 512,838 122,448 146,424 512,58 902,448 Z M 478,653 h 68 V 448 H 478 Z M 444,604 V 524 Q 428,510 419,490.5 410,471 410,448 410,405 439.5,375.5 469,346 512,346 q 43,0 72.5,29.5 29.5,29.5 29.5,72.5 0,23 -9,42.5 -9,19.5 -25,33.5 v 80 q 45,-20 74,-62 29,-42 29,-94 0,-70 -50.5,-120.5 Q 582,277 512,277 442,277 391.5,327.5 341,378 341,448 q 0,52 29,94 29,42 74,62 z"
       id="path345" />
  </g>
</svg>
