<?xml version="1.0" encoding="UTF-8" standalone="no"?>
<svg
   version="1.1"
   viewBox="0 -64 1024 1024"
   width="512"
   height="512"
   id="svg497"
   sodipodi:docname="drone.svg"
   inkscape:version="1.2.2 (732a01da63, 2022-12-09)"
   xmlns:inkscape="http://www.inkscape.org/namespaces/inkscape"
   xmlns:sodipodi="http://sodipodi.sourceforge.net/DTD/sodipodi-0.dtd"
   xmlns="http://www.w3.org/2000/svg"
   xmlns:svg="http://www.w3.org/2000/svg">
  <defs
     id="defs501" />
  <sodipodi:namedview
     id="namedview499"
     pagecolor="#ffffff"
     bordercolor="#000000"
     borderopacity="0.25"
     inkscape:showpageshadow="2"
     inkscape:pageopacity="0.0"
     inkscape:pagecheckerboard="0"
     inkscape:deskcolor="#d1d1d1"
     showgrid="false"
     inkscape:zoom="1.6191406"
     inkscape:cx="236.23643"
     inkscape:cy="256.30881"
     inkscape:window-width="1920"
     inkscape:window-height="1009"
     inkscape:window-x="-8"
     inkscape:window-y="-8"
     inkscape:window-maximized="1"
     inkscape:current-layer="svg497" />
  <g
     transform="matrix(1,0,0,-1,0,896)"
     id="g495">
    <path
       fill="currentColor"
       d="m 290,789 q -49,0 -84,-35 -35,-35 -35,-84 0,-49 35,-84.5 35,-35.5 84,-35.5 15,0 29.5,4.5 Q 334,559 346,565 l 57,-56 -28,-27 h -68 v -68 h 68 l 28,-27 -56,-56 q -13,7 -27.5,11 -14.5,4 -29.5,4 -49,0 -84,-35.5 -35,-35.5 -35,-84.5 0,-49 35,-84 35,-35 84,-35 49,0 84.5,35 35.5,35 35.5,84 0,15 -4,29.5 -4,14.5 -11,26.5 l 56,57 27,-28 h 68 l 27,27 56,-56 q -7,-12 -11,-26.5 -4,-14.5 -4,-29.5 0,-49 35.5,-84 35.5,-35 84.5,-35 49,0 84,35 35,35 35,84 0,49 -35,84.5 -35,35.5 -84,35.5 -15,0 -29.5,-4 Q 690,338 678,331 l -56,56 27,27 h 68 v 68 h -68 l -28,27 57,56 q 12,-7 26.5,-11 14.5,-4 29.5,-4 49,0 84,35.5 35,35.5 35,84.5 0,49 -35,84 -35,35 -84,35 -49,0 -84.5,-35 -35.5,-35 -35.5,-84 0,-15 4,-29.5 4,-14.5 11,-27.5 l -56,-56 -27,28 h -68 l -27,-28 -56,57 q 7,12 11,26.5 4,14.5 4,29.5 0,49 -35.5,84 -35.5,35 -84.5,35 z m 0,-68 q 22,0 36.5,-15 Q 341,691 341,670 341,648 326.5,633.5 312,619 290,619 q -21,0 -36,14.5 -15,14.5 -15,36.5 0,21 15,36 15,15 36,15 z m 444,0 q 21,0 36,-15 15,-15 15,-36 0,-22 -15,-36.5 Q 755,619 734,619 712,619 697.5,633.5 683,648 683,670 q 0,21 14.5,36 14.5,15 36.5,15 z M 290,277 q 22,0 36.5,-14.5 Q 341,248 341,226 341,205 326.5,190 312,175 290,175 q -21,0 -36,15 -15,15 -15,36 0,22 15,36.5 15,14.5 36,14.5 z m 444,0 q 21,0 36,-14.5 15,-14.5 15,-36.5 0,-21 -15,-36 -15,-15 -36,-15 -22,0 -36.5,15 -14.5,15 -14.5,36 0,22 14.5,36.5 Q 712,277 734,277 Z"
       id="path493" />
  </g>
</svg>
