<?xml version="1.0" standalone="no"?>
<!DOCTYPE svg PUBLIC "-//W3C//DTD SVG 1.1//EN" "http://www.w3.org/Graphics/SVG/1.1/DTD/svg11.dtd" >
<svg xmlns="http://www.w3.org/2000/svg" xmlns:xlink="http://www.w3.org/1999/xlink" version="1.1" viewBox="0 -64 1024 1024" width="512" height="512">
  <g transform="matrix(1 0 0 -1 0 960)">
   <path fill="currentColor"
d="M512 789l-273 -68q0 -96 1.5 -167.5t9.5 -126.5l63 63q-3 6 -4.5 12.5t-1.5 13.5v0q0 29 20 49t48 20v0q29 0 49 -20t20 -49v0v0v0q0 -28 -20 -48t-49 -20v0q-7 0 -13.5 1.5t-13.5 4.5l1 -1l-86 -86q12 -40 33 -74t54 -67v130l136 137v97q-19 7 -30.5 24t-11.5 39v0v0v0
q0 28 20 48t48 20v0q28 0 48 -20t20 -48v0v0v0q0 -22 -11.5 -39t-30.5 -24v0v-119l-137 -136v-152q23 -18 50.5 -37t60.5 -39q61 38 104 70q44 33 74 65.5t48 67.5q19 35 29 78h-108l-84 -84q2 -6 3.5 -12.5t1.5 -14.5v0q0 -28 -20 -48t-48 -20v0q-28 0 -48 20t-20 48v0v0v0
q0 29 20 49t48 20v0q7 0 14 -1.5t13 -4.5v0l84 85v28q-19 8 -31 25t-12 38v0q0 29 20 49t49 20v0q21 0 38 -12t25 -31v0h71q1 39 1.5 82.5t0.5 96.5zM712 491q-6 -13 -15.5 -23t-21.5 -15h-1v-14h101q2 13 3.5 25.5t2.5 26.5h-69z" />
  </g>

</svg>
