<?xml version="1.0" encoding="UTF-8" standalone="no"?>
<svg
   version="1.1"
   viewBox="0 -64 1024 1024"
   width="512"
   height="512"
   id="svg571"
   sodipodi:docname="edef.svg"
   inkscape:version="1.2.2 (732a01da63, 2022-12-09)"
   xmlns:inkscape="http://www.inkscape.org/namespaces/inkscape"
   xmlns:sodipodi="http://sodipodi.sourceforge.net/DTD/sodipodi-0.dtd"
   xmlns="http://www.w3.org/2000/svg"
   xmlns:svg="http://www.w3.org/2000/svg">
  <defs
     id="defs575" />
  <sodipodi:namedview
     id="namedview573"
     pagecolor="#ffffff"
     bordercolor="#000000"
     borderopacity="0.25"
     inkscape:showpageshadow="2"
     inkscape:pageopacity="0.0"
     inkscape:pagecheckerboard="0"
     inkscape:deskcolor="#d1d1d1"
     showgrid="false"
     inkscape:zoom="1.6191406"
     inkscape:cx="236.23643"
     inkscape:cy="256.30881"
     inkscape:window-width="1920"
     inkscape:window-height="1009"
     inkscape:window-x="-8"
     inkscape:window-y="-8"
     inkscape:window-maximized="1"
     inkscape:current-layer="svg571" />
  <g
     transform="matrix(1,0,0,-1,0,896)"
     id="g569">
    <path
       fill="currentColor"
       d="M 512,789 239,721 q 0,-96 1.5,-167.5 Q 242,482 250,427 l 63,63 q -3,6 -4.5,12.5 Q 307,509 307,516 v 0 q 0,29 20,49 20,20 48,20 v 0 q 29,0 49,-20 20,-20 20,-49 v 0 0 0 q 0,-28 -20,-48 -20,-20 -49,-20 v 0 q -7,0 -13.5,1.5 Q 355,451 348,454 l 1,-1 -86,-86 q 12,-40 33,-74 21,-34 54,-67 v 130 l 136,137 v 97 q -19,7 -30.5,24 -11.5,17 -11.5,39 v 0 0 0 q 0,28 20,48 20,20 48,20 v 0 q 28,0 48,-20 20,-20 20,-48 v 0 0 0 Q 580,631 568.5,614 557,597 538,590 v 0 -119 L 401,335 V 183 q 23,-18 50.5,-37 27.5,-19 60.5,-39 61,38 104,70 44,33 74,65.5 30,32.5 48,67.5 19,35 29,78 H 659 l -84,-84 q 2,-6 3.5,-12.5 Q 580,285 580,277 v 0 q 0,-28 -20,-48 -20,-20 -48,-20 v 0 q -28,0 -48,20 -20,20 -20,48 v 0 0 0 q 0,29 20,49 20,20 48,20 v 0 q 7,0 14,-1.5 7,-1.5 13,-4.5 v 0 l 84,85 v 28 q -19,8 -31,25 -12,17 -12,38 v 0 q 0,29 20,49 20,20 49,20 v 0 q 21,0 38,-12 17,-12 25,-31 v 0 h 71 q 1,39 1.5,82.5 Q 785,668 785,721 Z M 712,491 Q 706,478 696.5,468 687,458 675,453 h -1 v -14 h 101 q 2,13 3.5,25.5 1.5,12.5 2.5,26.5 z"
       id="path567" />
  </g>
</svg>
