<?xml version="1.0" encoding="UTF-8" standalone="no"?>
<svg
   version="1.1"
   viewBox="0 -64 1024 1024"
   width="512"
   height="512"
   id="svg606"
   sodipodi:docname="encounter.svg"
   inkscape:version="1.2.2 (732a01da63, 2022-12-09)"
   xmlns:inkscape="http://www.inkscape.org/namespaces/inkscape"
   xmlns:sodipodi="http://sodipodi.sourceforge.net/DTD/sodipodi-0.dtd"
   xmlns="http://www.w3.org/2000/svg"
   xmlns:svg="http://www.w3.org/2000/svg">
  <defs
     id="defs610" />
  <sodipodi:namedview
     id="namedview608"
     pagecolor="#ffffff"
     bordercolor="#000000"
     borderopacity="0.25"
     inkscape:showpageshadow="2"
     inkscape:pageopacity="0.0"
     inkscape:pagecheckerboard="0"
     inkscape:deskcolor="#d1d1d1"
     showgrid="false"
     inkscape:zoom="1.6191406"
     inkscape:cx="236.23643"
     inkscape:cy="256.30881"
     inkscape:window-width="1920"
     inkscape:window-height="1009"
     inkscape:window-x="-8"
     inkscape:window-y="-8"
     inkscape:window-maximized="1"
     inkscape:current-layer="svg606" />
  <g
     transform="matrix(1,0,0,-1,0,887.5)"
     id="g604">
    <path
       fill="currentColor"
       d="m 239,772 -17,-34 h -85 v -34 l 68,-17 v -51 l 34,-17 17,-52 h 34 l 17,52 34,17 v 51 l 69,17 v 34 h -86 l -17,34 z m 478,0 -17,-34 h -86 v -34 l 69,-17 v -51 l 34,-17 17,-52 h 34 l 17,52 34,17 v 51 l 68,17 v 34 h -85 l -17,34 z M 137,670 V 567 l 34,-17 v 111 z m 273,0 -35,-9 v -59 h 35 z m 204,0 v -68 h 35 v 59 z m 273,0 -34,-9 V 550 l 34,17 z M 461,619 435,567 H 307 v -51 l 103,-25 v -77 l 51,-26 25,-77 h 52 l 25,77 51,26 v 77 l 103,25 v 51 H 589 l -26,52 z M 205,585 V 431 h 34 v 102 l -17,17 v 35 z m 597,0 V 550 L 785,533 V 431 h 34 v 154 z m -290,-18 51,-51 -51,-51 -51,51 z M 307,465 V 311 l 51,-25 v 166 z m 410,0 -51,-13 V 286 l 51,25 z M 410,337 V 107 h 51 v 153 l -26,26 v 51 z m 179,0 V 286 L 563,260 V 107 h 51 v 230 z"
       id="path602" />
  </g>
</svg>
