<?xml version="1.0" standalone="no"?>
<!DOCTYPE svg PUBLIC "-//W3C//DTD SVG 1.1//EN" "http://www.w3.org/Graphics/SVG/1.1/DTD/svg11.dtd" >
<svg xmlns="http://www.w3.org/2000/svg" xmlns:xlink="http://www.w3.org/1999/xlink" version="1.1" viewBox="0 -64 1024 1024" width="512" height="512">
  <g transform="matrix(1 0 0 -1 0 960)">
   <path fill="currentColor"
d="M478 107h-103v307h51v-68l52 -35v-204zM444 789l-34 -68h-171v-68l136 -34v-103l69 -34l34 -102h68l34 102l69 34v103l136 34v68h-171l-34 68h-136zM512 721l68 -68l-68 -68l-68 68zM547 107h102v307h-52v-68l-50 -35v-204zM785 585l-68 -18v-221l68 34v205zM239 585
l68 -18v-221l-68 34v205z" />
  </g>

</svg>
