<?xml version="1.0" encoding="UTF-8" standalone="no"?>
<svg
   version="1.1"
   viewBox="0 -64 1024 1024"
   width="512"
   height="512"
   id="svg823"
   sodipodi:docname="large_beam.svg"
   inkscape:version="1.2.2 (732a01da63, 2022-12-09)"
   xmlns:inkscape="http://www.inkscape.org/namespaces/inkscape"
   xmlns:sodipodi="http://sodipodi.sourceforge.net/DTD/sodipodi-0.dtd"
   xmlns="http://www.w3.org/2000/svg"
   xmlns:svg="http://www.w3.org/2000/svg">
  <defs
     id="defs827" />
  <sodipodi:namedview
     id="namedview825"
     pagecolor="#ffffff"
     bordercolor="#000000"
     borderopacity="0.25"
     inkscape:showpageshadow="2"
     inkscape:pageopacity="0.0"
     inkscape:pagecheckerboard="0"
     inkscape:deskcolor="#d1d1d1"
     showgrid="false"
     inkscape:zoom="1.6191406"
     inkscape:cx="236.23643"
     inkscape:cy="256.30881"
     inkscape:window-width="1920"
     inkscape:window-height="1009"
     inkscape:window-x="-8"
     inkscape:window-y="-8"
     inkscape:window-maximized="1"
     inkscape:current-layer="svg823" />
  <g
     transform="matrix(1,0,0,-1,0.5,897.5)"
     id="g821">
    <path
       fill="currentColor"
       d="M 35,929 V 783 L 452,403 230,450 520,222 q 2,22 19,38 17,16 40,16 25,0 43,-18 18,-18 18,-43 0,-25 -18,-42.5 -18,-17.5 -43,-17.5 -16,0 -29.5,8 -13.5,8 -21.5,21 L 318,190 631,46 382,0 468,-30 h 242 q 2,8 3.5,16.5 Q 715,-5 717,3 697,9 684,26.5 671,44 671,66 q 0,27 19.5,46.5 19.5,19.5 46.5,19.5 10,0 18.5,-2.5 8.5,-2.5 15.5,-7.5 9,14 19,26.5 10,12.5 21,23.5 -8,6 -13,14.5 -5,8.5 -7,18.5 -6,-5 -13.5,-8 -7.5,-3 -16.5,-3 -19,0 -32,13 -13,13 -13,32 0,19 13,32.5 13,13.5 32,13.5 13,0 24,-7 11,-7 17,-18 8,12 22,19 14,7 30,7 19,0 35,-10 16,-10 23,-26 19,9 37.5,15.5 Q 968,272 988,276 V 411 L 973,542 896,332 818,661 761,438 575,759 596,519 199,929 Z M 571,446 q 13,0 23.5,-7.5 Q 605,431 608,419 q 8,7 18.5,11 10.5,4 21.5,4 26,0 43.5,-18 17.5,-18 17.5,-43 0,-26 -17.5,-44 -17.5,-18 -43.5,-18 -25,0 -43,18 -18,18 -18,43 -3,-2 -7,-3 -4,-1 -9,-1 -16,0 -27,11.5 -11,11.5 -11,27.5 0,16 11,27.5 11,11.5 27,11.5 z m 225,-50 q 16,0 27.5,-11.5 Q 835,373 835,357 835,341 823.5,329.5 812,318 796,318 780,318 768.5,329.5 757,341 757,357 q 0,16 11.5,27.5 Q 780,396 796,396 Z"
       id="path819" />
  </g>
</svg>
