<?xml version="1.0" encoding="UTF-8" standalone="no"?>
<svg
   version="1.1"
   viewBox="0 -64 1024 1024"
   width="512"
   height="512"
   id="svg893"
   sodipodi:docname="manufacturer.svg"
   inkscape:version="1.2.2 (732a01da63, 2022-12-09)"
   xmlns:inkscape="http://www.inkscape.org/namespaces/inkscape"
   xmlns:sodipodi="http://sodipodi.sourceforge.net/DTD/sodipodi-0.dtd"
   xmlns="http://www.w3.org/2000/svg"
   xmlns:svg="http://www.w3.org/2000/svg">
  <defs
     id="defs897" />
  <sodipodi:namedview
     id="namedview895"
     pagecolor="#ffffff"
     bordercolor="#000000"
     borderopacity="0.25"
     inkscape:showpageshadow="2"
     inkscape:pageopacity="0.0"
     inkscape:pagecheckerboard="0"
     inkscape:deskcolor="#d1d1d1"
     showgrid="false"
     inkscape:zoom="1.6191406"
     inkscape:cx="236.23643"
     inkscape:cy="256.30881"
     inkscape:window-width="1920"
     inkscape:window-height="1009"
     inkscape:window-x="-8"
     inkscape:window-y="-8"
     inkscape:window-maximized="1"
     inkscape:current-layer="svg893" />
  <g
     transform="matrix(1,0,0,-1,-17,910)"
     id="g891">
    <path
       fill="currentColor"
       d="M 546,817 Q 521,817 502.5,801.5 484,786 479,762 v 0 l -138,-115 -16,4 q 0,0 -18,2 v 0 q -42,0 -72,-30 -30,-30 -30,-73 0,-17 6,-33.5 6,-16.5 17,-30.5 l -2,2 117,-163 q -1,-4 -1.5,-7 -0.5,-3 -0.5,-6 v -0.5 -0.5 -91 l -68,-45 v -68 h 410 v 68 l -69,45 v 91 0 1 q 0,48 -30,84.5 -30,36.5 -75,47.5 l -103,146 113,97 q 6,-3 13,-4.5 7,-1.5 14,-1.5 v 0 q 6,0 11.5,1 5.5,1 11.5,3 h -1 l 73,-73 -27,-27 H 580 V 550 L 683,448 h 68 l -90,90 103,102 89,-90 v 69 L 751,721 h -34 v -34 l -27,-27 -77,76 q 1,3 1,6.5 v 6.5 0 0 0 q 0,28 -20,48 -20,20 -48,20 z M 307,585 v 0 q 4,0 9,-1.5 5,-1.5 9,-2.5 3,-2 5,-3.5 2,-1.5 0,0.5 l 99,-139 q -16,-7 -30,-17 -14,-10 -25,-23 l -93,130 q -4,5 -6,10.5 -2,5.5 -2,10.5 0,15 10,25 10,10 24,10 z M 478,380 q 29,0 48.5,-20 19.5,-20 19.5,-48 0,-29 -19.5,-49 -19.5,-20 -48.5,-20 -29,0 -48.5,20 -19.5,20 -19.5,49 0,28 19.5,48 19.5,20 48.5,20 z"
       id="path889" />
  </g>
</svg>
