<?xml version="1.0" encoding="UTF-8" standalone="no"?>
<svg
   version="1.1"
   viewBox="0 -64 1024 1024"
   width="512"
   height="512"
   id="svg963"
   sodipodi:docname="mech.svg"
   inkscape:version="1.2.2 (732a01da63, 2022-12-09)"
   xmlns:inkscape="http://www.inkscape.org/namespaces/inkscape"
   xmlns:sodipodi="http://sodipodi.sourceforge.net/DTD/sodipodi-0.dtd"
   xmlns="http://www.w3.org/2000/svg"
   xmlns:svg="http://www.w3.org/2000/svg">
  <defs
     id="defs967" />
  <sodipodi:namedview
     id="namedview965"
     pagecolor="#ffffff"
     bordercolor="#000000"
     borderopacity="0.25"
     inkscape:showpageshadow="2"
     inkscape:pageopacity="0.0"
     inkscape:pagecheckerboard="0"
     inkscape:deskcolor="#d1d1d1"
     showgrid="false"
     inkscape:zoom="1.6191406"
     inkscape:cx="236.23643"
     inkscape:cy="256.30881"
     inkscape:window-width="1920"
     inkscape:window-height="1009"
     inkscape:window-x="-8"
     inkscape:window-y="-8"
     inkscape:window-maximized="1"
     inkscape:current-layer="svg963" />
  <g
     transform="matrix(1,0,0,-1,0,896)"
     id="g961">
    <path
       fill="currentColor"
       d="M 478,107 H 375 v 307 h 51 v -68 l 52,-35 z M 444,789 410,721 H 239 V 653 L 375,619 V 516 l 69,-34 34,-102 h 68 l 34,102 69,34 v 103 l 136,34 v 68 H 614 l -34,68 z m 68,-68 68,-68 -68,-68 -68,68 z M 547,107 H 649 V 414 H 597 V 346 L 547,311 Z M 785,585 717,567 V 346 l 68,34 z m -546,0 68,-18 V 346 l -68,34 z"
       id="path959" />
  </g>
</svg>
