<?xml version="1.0" standalone="no"?>
<!DOCTYPE svg PUBLIC "-//W3C//DTD SVG 1.1//EN" "http://www.w3.org/Graphics/SVG/1.1/DTD/svg11.dtd" >
<svg xmlns="http://www.w3.org/2000/svg" xmlns:xlink="http://www.w3.org/1999/xlink" version="1.1" viewBox="0 -64 1024 1024" width="512" height="512">
  <g transform="matrix(1 0 0 -1 0 960)">
   <path fill="currentColor"
d="M512 919q-49 0 -95.5 -10t-88.5 -28q-13 16 -31.5 25.5t-39.5 9.5q-37 0 -63.5 -26.5t-26.5 -63.5q0 -12 3.5 -24t9.5 -22q-32 -32 -58 -69q-25 -38 -43 -80.5t-28 -88.5q-9 -46 -9 -94q0 -97 37 -183q37 -85 101 -149t150 -101q85 -37 182 -37q98 0 183 37
q86 37 149.5 101t100.5 149q37 86 37 183t-37 183q-37 85 -100.5 149t-149.5 102q-85 37 -182 37h-1zM513 880q89 0 168 -34t137.5 -92.5t92.5 -137.5t34 -168q0 -90 -34 -169q-34 -78 -92.5 -137t-137.5 -92q-79 -34 -168 -34q-90 0 -169 34q-79 33 -138 92t-93 137
q-34 79 -34 169q0 44 9 87q8 42 24.5 80.5t40.5 73.5q23 35 52 64q11 -8 24 -12t28 -4q37 0 63 26t26 63q0 5 -0.5 10t-1.5 10q39 17 81.5 25.5t86.5 8.5h1zM512 776q-68 0 -129 -26q-60 -26 -105 -71t-71 -105q-26 -61 -26 -129q0 -69 26 -129t71 -105t105 -71
q61 -26 129 -26q53 0 101 15.5t88 43.5q11 -6 23.5 -9.5t25.5 -3.5q40 0 68 28t28 67q0 20 -7.5 36.5t-19.5 29.5q12 29 18 60t6 64q0 68 -26 129q-26 60 -71 105t-105 71t-129 26v0zM512 738q61 0 115 -23q53 -23 93 -62.5t63 -93.5q23 -53 23 -114q0 -27 -4.5 -52.5
t-13.5 -49.5q-9 4 -18.5 6t-19.5 2q-40 0 -68 -28t-28 -68q0 -15 5 -29.5t14 -26.5q-35 -23 -75.5 -35.5t-85.5 -12.5q-61 0 -114 23q-54 23 -94 63t-63 93q-23 54 -23 115t23 114q23 54 63 93.5t94 62.5q53 23 114 23v0zM510 699q-11 -48 -32.5 -91.5t-53.5 -75.5
q-31 -31 -72 -50t-89 -30q48 -12 91.5 -33t74.5 -53q32 -32 51 -73t30 -89q11 48 30 89t51 73t75 53t91 33q-48 11 -88.5 30t-72.5 50q-32 32 -53.5 75.5t-32.5 91.5v0zM510 526q31 0 53 -22t22 -52q0 -31 -22 -53t-53 -22q-30 0 -52 22t-22 53q0 30 22 52t52 22v0z" />
  </g>

</svg>
