<?xml version="1.0" standalone="no"?>
<!DOCTYPE svg PUBLIC "-//W3C//DTD SVG 1.1//EN" "http://www.w3.org/Graphics/SVG/1.1/DTD/svg11.dtd" >
<svg xmlns="http://www.w3.org/2000/svg" xmlns:xlink="http://www.w3.org/1999/xlink" version="1.1" viewBox="0 -64 1024 1024" width="512" height="512">
  <g transform="matrix(1 0 0 -1 0 960)">
   <path fill="currentColor"
d="M499 908q-46 -1 -89 -11q-44 -10 -83.5 -27.5t-74.5 -41.5q-35 -25 -65 -55v0q-32 -31 -56 -68q-25 -37 -42.5 -78t-27.5 -86q-9 -45 -9 -93q0 -95 36 -179t98.5 -146.5t146.5 -98.5t179 -36q55 0 106 12t97 35l-3 -2q8 -9 19.5 -14.5t25.5 -5.5q25 0 42.5 18t17.5 43
q0 6 -1.5 12.5t-4.5 12.5v0q7 5 13.5 11t12.5 13q31 31 56 67q25 37 42.5 78t27.5 86q9 45 9 93v0.5v0.5v0v0v0q0 95 -36 179t-98.5 146.5t-146.5 98.5t-179 36h-7.5h-6.5h1v0zM515 878q88 -1 166 -35q77 -34 135 -92t91 -136q34 -78 34 -167q0 -44 -9 -86t-25 -80.5
t-39 -72.5q-24 -35 -53 -64v0q-5 -6 -11 -11t-12 -11h-1q-7 5 -15.5 7.5t-18.5 2.5q-25 0 -42.5 -17.5t-17.5 -42.5v-6t1 -6v1q-41 -21 -88.5 -32t-98.5 -11q-89 0 -167 34q-78 33 -136.5 91.5t-92.5 136.5q-34 79 -34 167q0 89 34 168q34 78 92.5 136.5t136.5 91.5
q78 34 167 34h2h2v0v0zM499 753q-62 -3 -115 -28t-93 -67v0v-13h50l15 -33l41 9l51 4l54 -26l27 -27l-17 -24l-54 -10l28 -39l9 -14l-25 -37l-38 11l-32 -14l-12 -24h-51l-21 26v47l-38 5l-20 -40l-6 -52l17 -42l32 -37l15 -46l-13 -15l-46 14q41 -63 108 -100.5t147 -37.5
q63 0 119 24q55 24 96.5 65.5t65.5 97.5q24 55 24 119q0 23 -3.5 45t-9.5 42l1 -2l-24 -67l-111 -102l-22 30l49 89l-2 55l-47 -31l-14 54l61 128h3q-38 29 -85.5 46t-100.5 17h-7.5h-6.5h1v0zM563 411l37 -9l12 -59l-59 -55l-10 -100l-38 -23l-27 60l-58 34l-27 74l25 56
l145 22v0z" />
  </g>

</svg>
