<?xml version="1.0" encoding="UTF-8" standalone="no"?>
<svg
   version="1.1"
   viewBox="0 -64 1024 1024"
   width="512"
   height="512"
   id="svg1532"
   sodipodi:docname="orbital.svg"
   inkscape:version="1.2.2 (732a01da63, 2022-12-09)"
   xmlns:inkscape="http://www.inkscape.org/namespaces/inkscape"
   xmlns:sodipodi="http://sodipodi.sourceforge.net/DTD/sodipodi-0.dtd"
   xmlns="http://www.w3.org/2000/svg"
   xmlns:svg="http://www.w3.org/2000/svg">
  <defs
     id="defs1536" />
  <sodipodi:namedview
     id="namedview1534"
     pagecolor="#ffffff"
     bordercolor="#000000"
     borderopacity="0.25"
     inkscape:showpageshadow="2"
     inkscape:pageopacity="0.0"
     inkscape:pagecheckerboard="0"
     inkscape:deskcolor="#d1d1d1"
     showgrid="false"
     inkscape:zoom="1.6191406"
     inkscape:cx="236.23643"
     inkscape:cy="256.30881"
     inkscape:window-width="1920"
     inkscape:window-height="1009"
     inkscape:window-x="-8"
     inkscape:window-y="-8"
     inkscape:window-maximized="1"
     inkscape:current-layer="svg1532" />
  <g
     transform="matrix(1,0,0,-1,0,896.5)"
     id="g1530">
    <path
       fill="currentColor"
       d="M 512,919 Q 463,919 416.5,909 370,899 328,881 315,897 296.5,906.5 278,916 257,916 220,916 193.5,889.5 167,863 167,826 167,814 170.5,802 174,790 180,780 148,748 122,711 97,673 79,630.5 61,588 51,542 42,496 42,448 42,351 79,265 116,180 180,116 244,52 330,15 q 85,-37 182,-37 98,0 183,37 86,37 149.5,101 63.5,64 100.5,149 37,86 37,183 0,97 -37,183 Q 908,716 844.5,780 781,844 695,882 610,919 513,919 Z m 1,-39 q 89,0 168,-34 79,-34 137.5,-92.5 Q 877,695 911,616 945,537 945,448 945,358 911,279 877,201 818.5,142 760,83 681,50 602,16 513,16 q -90,0 -169,34 -79,33 -138,92 -59,59 -93,137 -34,79 -34,169 0,44 9,87 8,42 24.5,80.5 16.5,38.5 40.5,73.5 23,35 52,64 11,-8 24,-12 13,-4 28,-4 37,0 63,26 26,26 26,63 0,5 -0.5,10 -0.5,5 -1.5,10 39,17 81.5,25.5 42.5,8.5 86.5,8.5 z m -1,-104 q -68,0 -129,-26 -60,-26 -105,-71 -45,-45 -71,-105 -26,-61 -26,-129 0,-69 26,-129 26,-60 71,-105 45,-45 105,-71 61,-26 129,-26 53,0 101,15.5 48,15.5 88,43.5 11,-6 23.5,-9.5 12.5,-3.5 25.5,-3.5 40,0 68,28 28,28 28,67 0,20 -7.5,36.5 Q 831,308 819,321 q 12,29 18,60 6,31 6,64 0,68 -26,129 -26,60 -71,105 -45,45 -105,71 -60,26 -129,26 z m 0,-38 q 61,0 115,-23 53,-23 93,-62.5 40,-39.5 63,-93.5 23,-53 23,-114 0,-27 -4.5,-52.5 Q 797,367 788,343 q -9,4 -18.5,6 -9.5,2 -19.5,2 -40,0 -68,-28 -28,-28 -28,-68 0,-15 5,-29.5 Q 664,211 673,199 638,176 597.5,163.5 557,151 512,151 q -61,0 -114,23 -54,23 -94,63 -40,40 -63,93 -23,54 -23,115 0,61 23,114 23,54 63,93.5 40,39.5 94,62.5 53,23 114,23 z m -2,-39 Q 499,651 477.5,607.5 456,564 424,532 q -31,-31 -72,-50 -41,-19 -89,-30 48,-12 91.5,-33 43.5,-21 74.5,-53 32,-32 51,-73 19,-41 30,-89 11,48 30,89 19,41 51,73 32,32 75,53 43,21 91,33 -48,11 -88.5,30 Q 628,501 596,532 564,564 542.5,607.5 521,651 510,699 Z m 0,-173 q 31,0 53,-22 22,-22 22,-52 0,-31 -22,-53 -22,-22 -53,-22 -30,0 -52,22 -22,22 -22,53 0,30 22,52 22,22 52,22 z"
       id="path1528" />
  </g>
</svg>
