<?xml version="1.0" encoding="UTF-8" standalone="no"?>
<svg
   version="1.1"
   viewBox="0 -64 1024 1024"
   width="512"
   height="512"
   id="svg1567"
   sodipodi:docname="overcharge.svg"
   inkscape:version="1.2.2 (732a01da63, 2022-12-09)"
   xmlns:inkscape="http://www.inkscape.org/namespaces/inkscape"
   xmlns:sodipodi="http://sodipodi.sourceforge.net/DTD/sodipodi-0.dtd"
   xmlns="http://www.w3.org/2000/svg"
   xmlns:svg="http://www.w3.org/2000/svg">
  <defs
     id="defs1571" />
  <sodipodi:namedview
     id="namedview1569"
     pagecolor="#ffffff"
     bordercolor="#000000"
     borderopacity="0.25"
     inkscape:showpageshadow="2"
     inkscape:pageopacity="0.0"
     inkscape:pagecheckerboard="0"
     inkscape:deskcolor="#d1d1d1"
     showgrid="false"
     inkscape:zoom="1.6191406"
     inkscape:cx="236.23643"
     inkscape:cy="256.30881"
     inkscape:window-width="1920"
     inkscape:window-height="1009"
     inkscape:window-x="-8"
     inkscape:window-y="-8"
     inkscape:window-maximized="1"
     inkscape:current-layer="svg1567" />
  <g
     transform="matrix(1,0,0,-1,0,914.5)"
     id="g1565">
    <path
       fill="currentColor"
       d="M 611,653 805,682 734,499 878,365 690,306 675,110 512,220 349,110 334,306 146,365 290,499 219,682 413,653 512,823 Z m -162,-74 -124,18 46,-117 -92,-85 120,-38 9,-125 104,71 104,-71 10,125 119,38 -91,85 45,117 -124,-18 -63,108 z M 580,448 q 0,-28 -20,-48 -20,-20 -48,-20 v 0 q -28,0 -48,20 -20,20 -20,48 v 0 q 0,28 20,48 20,20 48,20 v 0 q 28,0 48,-20 20,-20 20,-48 z"
       id="path1563" />
  </g>
</svg>
