<?xml version="1.0" standalone="no"?>
<!DOCTYPE svg PUBLIC "-//W3C//DTD SVG 1.1//EN" "http://www.w3.org/Graphics/SVG/1.1/DTD/svg11.dtd" >
<svg xmlns="http://www.w3.org/2000/svg" xmlns:xlink="http://www.w3.org/1999/xlink" version="1.1" viewBox="0 -64 1024 1024" width="512" height="512">
  <g transform="matrix(1 0 0 -1 0 960)">
   <path fill="currentColor"
d="M853 448q0 -69 -27.5 -132.5t-72.5 -108.5t-108.5 -72.5t-132.5 -27.5t-132.5 27.5t-108.5 72.5t-72.5 108.5t-27.5 132.5t27.5 132.5t72.5 108.5t108.5 72.5t132.5 27.5t132.5 -27.5t108.5 -72.5t72.5 -108.5t27.5 -132.5v0zM705 641q-38 39 -86.5 59.5t-106.5 20.5
t-106.5 -20.5t-86.5 -59.5q-39 -38 -59.5 -86.5t-20.5 -106.5t20.5 -106.5t59.5 -86.5q38 -39 86.5 -59.5t106.5 -20.5t106.5 20.5t86.5 59.5q39 38 59.5 86.5t20.5 106.5t-20.5 106.5t-59.5 86.5zM614 448q0 -27 -13.5 -51t-37.5 -38l51 -88q48 27 75.5 74.5t27.5 102.5
h-103zM307 448q0 -55 27.5 -102.5t75.5 -74.5l51 88q-24 14 -37.5 38t-13.5 51h-103zM507 653q-25 -1 -50 -8t-47 -20l51 -88q12 6 24.5 9.5t26.5 3.5q13 0 26.5 -3.5t24.5 -9.5l51 88q-24 14 -51.5 21t-55.5 7v0zM546 448q0 -14 -10 -24t-24 -10v0q-14 0 -24 10t-10 24v0
q0 14 10 24t24 10v0q14 0 24 -10t10 -24v0zM578 448q0 -12 -5.5 -25.5t-13.5 -21.5t-21.5 -13.5t-25.5 -5.5t-25.5 5.5t-21.5 13.5t-13.5 21.5t-5.5 25.5t5.5 25.5t13.5 21.5t21.5 13.5t25.5 5.5t25.5 -5.5t21.5 -13.5t13.5 -21.5t5.5 -25.5v0zM514 449v0h-1v1v0h-0.5h-0.5
h-0.5h-0.5v0v-1h-1v0v-0.5v-0.5v-0.5v-0.5v0h1v-1v0h0.5h0.5h0.5h0.5v0v1h1v0v0.5v0.5v0.5v0.5v0z" />
  </g>

</svg>
