<?xml version="1.0" standalone="no"?>
<!DOCTYPE svg PUBLIC "-//W3C//DTD SVG 1.1//EN" "http://www.w3.org/Graphics/SVG/1.1/DTD/svg11.dtd" >
<svg xmlns="http://www.w3.org/2000/svg" xmlns:xlink="http://www.w3.org/1999/xlink" version="1.1" viewBox="0 -64 1024 1024" width="512" height="512">
  <g transform="matrix(1 0 0 -1 0 960)">
   <path fill="currentColor"
d="M273 789l-102 -102v-68h34l136 136v34h-68v0zM683 789v-34l136 -136h34v68l-102 102h-68v0zM478 687v-72q-16 -3 -31.5 -9.5t-28.5 -15.5l-51 51l-48 -48l51 -51q-9 -13 -15.5 -28.5t-9.5 -31.5h-72v-68h72q3 -16 9.5 -31.5t15.5 -28.5l-51 -51l48 -48l51 51
q13 -9 28.5 -15.5t31.5 -9.5v-72h68v72v0q16 3 31.5 9.5t28.5 15.5l51 -51l48 48l-51 51q9 13 15.5 28.5t9.5 31.5h72v68h-72q-3 16 -9.5 31.5t-15.5 28.5l51 51l-48 48l-51 -51q-14 9 -29 15.5t-31 9.5v72h-68v0zM512 550q43 0 72.5 -29.5t29.5 -72.5t-29.5 -72.5
t-72.5 -29.5t-72.5 29.5t-29.5 72.5t29.5 72.5t72.5 29.5zM171 277v-68l102 -102h68v34l-136 136h-34v0zM819 277l-136 -136v-34h68l102 102v68h-34v0z" />
  </g>

</svg>
