<?xml version="1.0" standalone="no"?>
<!DOCTYPE svg PUBLIC "-//W3C//DTD SVG 1.1//EN" "http://www.w3.org/Graphics/SVG/1.1/DTD/svg11.dtd" >
<svg xmlns="http://www.w3.org/2000/svg" xmlns:xlink="http://www.w3.org/1999/xlink" version="1.1" viewBox="0 -64 1024 1024" width="512" height="512">
  <g transform="matrix(1 0 0 -1 0 960)">
   <path fill="currentColor"
d="M273 789l-102 -102v-68h34l136 136v34h-68v0zM683 789v-34l136 -136h34v68l-102 102h-68v0zM512 687q-49 0 -84 -35t-35 -85q0 -49 35 -84t84 -35t84 35t35 84q0 50 -35 85t-84 35zM358 431v-37q-11 -7 -23.5 -14.5l-27.5 -16.5q-3 -12 -5.5 -21.5t-5.5 -19.5l216 -113
l216 113q-3 10 -5.5 19.5t-5.5 21.5l-27.5 16.5t-23.5 14.5v37h-40q-16 -18 -36.5 -30t-43.5 -17v-73l-34 -34l-34 34v73q-23 5 -43.5 17t-36.5 30h-40v0zM171 277v-68l102 -102h68v34l-136 136h-34v0zM819 277l-136 -136v-34h68l102 102v68h-34v0z" />
  </g>

</svg>
