<?xml version="1.0" encoding="UTF-8" standalone="no"?>
<svg
   version="1.1"
   viewBox="0 -64 1024 1024"
   width="512"
   height="512"
   id="svg1917"
   sodipodi:docname="reserve_mech.svg"
   inkscape:version="1.2.2 (732a01da63, 2022-12-09)"
   xmlns:inkscape="http://www.inkscape.org/namespaces/inkscape"
   xmlns:sodipodi="http://sodipodi.sourceforge.net/DTD/sodipodi-0.dtd"
   xmlns="http://www.w3.org/2000/svg"
   xmlns:svg="http://www.w3.org/2000/svg">
  <defs
     id="defs1921" />
  <sodipodi:namedview
     id="namedview1919"
     pagecolor="#ffffff"
     bordercolor="#000000"
     borderopacity="0.25"
     inkscape:showpageshadow="2"
     inkscape:pageopacity="0.0"
     inkscape:pagecheckerboard="0"
     inkscape:deskcolor="#d1d1d1"
     showgrid="false"
     inkscape:zoom="1.6191406"
     inkscape:cx="236.23643"
     inkscape:cy="256.30881"
     inkscape:window-width="1920"
     inkscape:window-height="1009"
     inkscape:window-x="-8"
     inkscape:window-y="-8"
     inkscape:window-maximized="1"
     inkscape:current-layer="svg1917" />
  <g
     transform="matrix(1,0,0,-1,0,896)"
     id="g1915">
    <path
       fill="currentColor"
       d="M 273,789 171,687 v -68 h 34 l 136,136 v 34 h -68 z m 410,0 V 755 L 819,619 h 34 v 68 L 751,789 H 683 Z M 478,687 V 615 Q 462,612 446.5,605.5 431,599 418,590 l -51,51 -48,-48 51,-51 Q 361,529 354.5,513.5 348,498 345,482 h -72 v -68 h 72 q 3,-16 9.5,-31.5 Q 361,367 370,354 l -51,-51 48,-48 51,51 q 13,-9 28.5,-15.5 Q 462,284 478,281 v -72 h 68 v 72 0 q 16,3 31.5,9.5 Q 593,297 606,306 l 51,-51 48,48 -51,51 q 9,13 15.5,28.5 6.5,15.5 9.5,31.5 h 72 v 68 h -72 q -3,16 -9.5,31.5 Q 663,529 654,542 l 51,51 -48,48 -51,-51 q -14,9 -29,15.5 -15,6.5 -31,9.5 v 72 h -68 z m 34,-137 q 43,0 72.5,-29.5 Q 614,491 614,448 614,405 584.5,375.5 555,346 512,346 469,346 439.5,375.5 410,405 410,448 q 0,43 29.5,72.5 Q 469,550 512,550 Z M 171,277 V 209 L 273,107 h 68 v 34 L 205,277 h -34 z m 648,0 -136,-136 v -34 h 68 l 102,102 v 68 h -34 z"
       id="path1913" />
  </g>
</svg>
