<?xml version="1.0" standalone="no"?>
<!DOCTYPE svg PUBLIC "-//W3C//DTD SVG 1.1//EN" "http://www.w3.org/Graphics/SVG/1.1/DTD/svg11.dtd" >
<svg xmlns="http://www.w3.org/2000/svg" xmlns:xlink="http://www.w3.org/1999/xlink" version="1.1" viewBox="0 -64 1024 1024" width="512" height="512">
  <g transform="matrix(1 0 0 -1 0 960)">
   <path fill="currentColor"
d="M530 921v-116q69 -3 129 -31q60 -27 105 -72.5t73 -105.5q27 -60 31 -128h115q-3 92 -40 173q-36 81 -97 142t-142 98q-81 36 -174 40v0zM493 921q-92 -4 -173 -41q-81 -36 -142 -97t-98 -142q-36 -81 -40 -173h117q3 68 31 128q27 60 72 105t105 73q60 27 128 31v116v0z
M512 706q-48 0 -91 -16.5t-77 -45.5l45 -45q18 15 40 25.5t47 15.5l37 -141l38 140q24 -4 45.5 -14.5t39.5 -25.5l44 45q-33 29 -76 45.5t-92 16.5v0zM707 617l-45 -44q15 -18 25.5 -40t14.5 -46l-140 -37l140 -38q-4 -24 -14.5 -46t-25.5 -40l44 -45q30 34 46.5 77t16.5 92
q0 48 -16.5 91t-45.5 76v0zM317 617q-29 -34 -45.5 -76.5t-16.5 -90.5q0 -49 16.5 -92t46.5 -77l45 45q-15 19 -25.5 40.5t-15.5 45.5l142 38l-141 38q4 23 14.5 44.5t24.5 39.5l-45 45v0zM40 430q4 -92 41 -173q36 -80 97 -141t142 -98t173 -41v117q-68 4 -127 31
q-60 28 -105 73t-73 105q-27 59 -31 127h-117v0zM868 430q-4 -68 -31 -128q-28 -59 -73.5 -104.5t-105.5 -72.5q-59 -28 -128 -31v-117q93 4 174 41q80 36 141 97t98 142t40 173h-115v0zM513 401l-38 -143q-24 5 -46 15.5t-40 26.5l-45 -45q34 -30 77 -46.5t91 -16.5
q49 0 91.5 16.5t76.5 45.5l-45 45q-18 -15 -39 -25.5t-45 -14.5l-38 142v0z" />
  </g>

</svg>
