<?xml version="1.0" standalone="no"?>
<!DOCTYPE svg PUBLIC "-//W3C//DTD SVG 1.1//EN" "http://www.w3.org/Graphics/SVG/1.1/DTD/svg11.dtd" >
<svg xmlns="http://www.w3.org/2000/svg" xmlns:xlink="http://www.w3.org/1999/xlink" version="1.1" viewBox="0 -64 1024 1024" width="512" height="512">
  <g transform="matrix(1 0 0 -1 0 960)">
   <path fill="currentColor"
d="M291 625q-68 -33 -111 -98.5t-43 -146.5q0 -57 21 -106q22 -50 59 -87t87 -59q49 -21 106 -21q56 0 106 21q50 22 87 59t58 87q22 49 22 106q0 80 -42.5 145t-109.5 99q-14 -11 -25 -25t-17 -30q55 -23 90 -74t35 -115q0 -43 -16 -80q-16 -38 -43.5 -65.5t-64.5 -43.5
q-38 -16 -80 -16q-43 0 -80 16q-38 16 -65.5 43.5t-43.5 65.5q-16 37 -16 80q0 46 18.5 85.5t50.5 67.5q1 24 5.5 47t11.5 45v0zM614 789q-56 0 -106 -21q-50 -22 -87 -59t-58 -87q-22 -49 -22 -106q0 -80 42.5 -145.5t109.5 -98.5q14 11 24.5 25t17.5 30q-55 23 -90 74
t-35 115q0 43 16 80t43.5 65t64.5 44q38 16 80 16q43 0 80 -16t65 -44t44 -65t16 -80q0 -46 -18.5 -85.5t-50.5 -67.5q-1 -24 -5.5 -47t-11.5 -45q68 33 111 98.5t43 146.5q0 57 -21 106q-22 50 -59 87t-87 59q-49 21 -106 21v0z" />
  </g>

</svg>
