<?xml version="1.0" encoding="UTF-8" standalone="no"?>
<svg
   version="1.1"
   viewBox="0 -64 1024 1024"
   width="512"
   height="512"
   id="svg2057"
   sodipodi:docname="role_controller.svg"
   inkscape:version="1.2.2 (732a01da63, 2022-12-09)"
   xmlns:inkscape="http://www.inkscape.org/namespaces/inkscape"
   xmlns:sodipodi="http://sodipodi.sourceforge.net/DTD/sodipodi-0.dtd"
   xmlns="http://www.w3.org/2000/svg"
   xmlns:svg="http://www.w3.org/2000/svg">
  <defs
     id="defs2061" />
  <sodipodi:namedview
     id="namedview2059"
     pagecolor="#ffffff"
     bordercolor="#000000"
     borderopacity="0.25"
     inkscape:showpageshadow="2"
     inkscape:pageopacity="0.0"
     inkscape:pagecheckerboard="0"
     inkscape:deskcolor="#d1d1d1"
     showgrid="false"
     inkscape:zoom="1.6191406"
     inkscape:cx="236.23643"
     inkscape:cy="256.30881"
     inkscape:window-width="1920"
     inkscape:window-height="1009"
     inkscape:window-x="-8"
     inkscape:window-y="-8"
     inkscape:window-maximized="1"
     inkscape:current-layer="svg2057" />
  <g
     transform="matrix(1,0,0,-1,0,896)"
     id="g2055">
    <path
       fill="currentColor"
       d="M 291,625 Q 223,592 180,526.5 137,461 137,380 q 0,-57 21,-106 22,-50 59,-87 37,-37 87,-59 49,-21 106,-21 56,0 106,21 50,22 87,59 37,37 58,87 22,49 22,106 0,80 -42.5,145 -42.5,65 -109.5,99 -14,-11 -25,-25 -11,-14 -17,-30 55,-23 90,-74 35,-51 35,-115 0,-43 -16,-80 Q 582,262 554.5,234.5 527,207 490,191 q -38,-16 -80,-16 -43,0 -80,16 -38,16 -65.5,43.5 Q 237,262 221,300 q -16,37 -16,80 0,46 18.5,85.5 18.5,39.5 50.5,67.5 1,24 5.5,47 4.5,23 11.5,45 z M 614,789 Q 558,789 508,768 458,746 421,709 384,672 363,622 341,573 341,516 341,436 383.5,370.5 426,305 493,272 q 14,11 24.5,25 10.5,14 17.5,30 -55,23 -90,74 -35,51 -35,115 0,43 16,80 16,37 43.5,65 27.5,28 64.5,44 38,16 80,16 43,0 80,-16 37,-16 65,-44 28,-28 44,-65 16,-37 16,-80 0,-46 -18.5,-85.5 Q 782,391 750,363 749,339 744.5,316 740,293 733,271 q 68,33 111,98.5 43,65.5 43,146.5 0,57 -21,106 -22,50 -59,87 -37,37 -87,59 -49,21 -106,21 z"
       id="path2053" />
  </g>
</svg>
