<?xml version="1.0" standalone="no"?>
<!DOCTYPE svg PUBLIC "-//W3C//DTD SVG 1.1//EN" "http://www.w3.org/Graphics/SVG/1.1/DTD/svg11.dtd" >
<svg xmlns="http://www.w3.org/2000/svg" xmlns:xlink="http://www.w3.org/1999/xlink" version="1.1" viewBox="0 -64 1024 1024" width="512" height="512">
  <g transform="matrix(1 0 0 -1 0 960)">
   <path fill="currentColor"
d="M527 847l380 -219v-439l-380 -220l-380 220v439zM490 425h147v34h-99l99 124v32h-145v-34h95l-97 -122v-34zM804 615h-139v-190h144v34h-105v49h92v33h-92v40h100v34zM427 425h39v190h-39v-190zM245 484q0 -15 5.5 -26.5t15.5 -20.5q11 -8 25.5 -12.5t33.5 -4.5
q18 0 32 4.5t24 13.5q10 8 15 19t5 24q0 12 -4.5 22t-12.5 16q-6 5 -14 8.5t-19 5.5l-33 8q-9 2 -15 4t-9 4q-5 2 -7 6t-2 9q0 6 2 10t7 7q4 3 10.5 4.5t13.5 1.5t13 -1t10 -3q7 -4 11 -10t4 -15h38q0 16 -5.5 27.5t-16.5 18.5q-10 8 -23 12t-28 4q-18 0 -31.5 -4t-22.5 -12
q-10 -9 -14.5 -19.5t-4.5 -23.5q0 -14 5 -24t14 -17q6 -4 16 -7.5t25 -6.5l20 -5q9 -2 15.5 -4t10.5 -5q4 -2 6 -6t2 -8q0 -8 -4 -13.5t-12 -8.5q-5 -2 -10.5 -2.5t-12.5 -0.5q-12 0 -20 3t-13 8q-3 4 -4.5 8.5t-2.5 11.5h-38zM516 291v-129h37v186h-30q0 -1 -0.5 -3
t-1.5 -4q-1 -4 -3 -7.5t-4 -5.5q-3 -4 -7.5 -6.5t-10.5 -3.5q-3 -1 -9.5 -1.5t-14.5 -0.5v-25h44z" />
  </g>

</svg>
