<?xml version="1.0" standalone="no"?>
<!DOCTYPE svg PUBLIC "-//W3C//DTD SVG 1.1//EN" "http://www.w3.org/Graphics/SVG/1.1/DTD/svg11.dtd" >
<svg xmlns="http://www.w3.org/2000/svg" xmlns:xlink="http://www.w3.org/1999/xlink" version="1.1" viewBox="0 -64 1024 1024" width="512" height="512">
  <g transform="matrix(1 0 0 -1 0 960)">
   <path fill="currentColor"
d="M907 180l-395 -227l-395 227v456l395 228l395 -228v-456zM512 830l-365 -211v-422l365 -211l366 211v422zM268 497q1 -7 3 -11.5t4 -8.5q5 -5 13.5 -8t20.5 -3q7 0 12.5 0.5t9.5 2.5q9 3 13 8.5t4 13.5q0 4 -2 8t-6 6q-4 3 -10.5 5t-15.5 4l-20 5q-15 3 -25.5 6.5
t-15.5 7.5q-10 7 -14.5 17t-4.5 24q0 13 4.5 23.5t13.5 18.5q9 9 23 13t32 4q15 0 27.5 -4t23.5 -12q10 -8 15.5 -19.5t6.5 -26.5h-38q-1 9 -4.5 15t-10.5 10q-5 2 -10.5 3t-12.5 1q-8 0 -14 -1.5t-11 -4.5q-4 -3 -6.5 -7t-2.5 -10q0 -5 2.5 -9t6.5 -6q3 -2 9.5 -4t15.5 -4
l33 -8q10 -2 18.5 -5.5t13.5 -8.5q9 -6 13 -16t4 -22q0 -13 -5 -24t-15 -19q-10 -9 -24 -13.5t-32 -4.5t-33 4.5t-25 12.5q-11 9 -16 20.5t-5 26.5h37v0zM412 628h40v-190h-40v190zM475 472l98 122h-95v34h144v-32l-99 -124h100v-34h-148v34v0zM789 594h-100v-40h92v-33h-92
v-49h105v-34h-143v190h138v-34v0zM348 304v24q8 1 14 1.5t10 1.5q5 1 9.5 3.5t8.5 6.5q2 2 4 5.5t3 7.5q1 2 1 4v3h31v-186h-38v129h-43v0zM535 370h30l-73 -195h-31zM557 175q0 10 2.5 19t6.5 18t13 19t24 20q12 9 20.5 15.5t12.5 10.5q5 6 8 13t3 14q0 6 -1.5 11t-5.5 8
q-3 4 -7.5 6t-10.5 2q-9 0 -14.5 -3t-8.5 -9q-2 -4 -3 -9.5t-1 -13.5h-36q1 12 3 21.5t6 16.5q7 14 20 21t32 7q15 0 26.5 -4t20.5 -12t13 -19t4 -25q0 -10 -3 -19t-9 -17q-4 -6 -10.5 -12t-16.5 -12l-14 -10q-7 -5 -12 -8.5t-7 -6.5q-3 -2 -5 -4.5t-4 -5.5h82v-32h-128v0z
" />
  </g>

</svg>
