<?xml version="1.0" encoding="UTF-8" standalone="no"?>
<svg
   version="1.1"
   viewBox="0 -64 1024 1024"
   width="512"
   height="512"
   id="svg278"
   sodipodi:docname="size_4.svg"
   inkscape:version="1.2.2 (732a01da63, 2022-12-09)"
   xmlns:inkscape="http://www.inkscape.org/namespaces/inkscape"
   xmlns:sodipodi="http://sodipodi.sourceforge.net/DTD/sodipodi-0.dtd"
   xmlns="http://www.w3.org/2000/svg"
   xmlns:svg="http://www.w3.org/2000/svg">
  <defs
     id="defs282" />
  <sodipodi:namedview
     id="namedview280"
     pagecolor="#ffffff"
     bordercolor="#000000"
     borderopacity="0.25"
     inkscape:showpageshadow="2"
     inkscape:pageopacity="0.0"
     inkscape:pagecheckerboard="0"
     inkscape:deskcolor="#d1d1d1"
     showgrid="false"
     inkscape:zoom="1.6191406"
     inkscape:cx="236.23643"
     inkscape:cy="256.30881"
     inkscape:window-width="1920"
     inkscape:window-height="1009"
     inkscape:window-x="-8"
     inkscape:window-y="-8"
     inkscape:window-maximized="1"
     inkscape:current-layer="svg278" />
  <g
     transform="matrix(1,0,0,-1,0,881)"
     id="g276">
    <path
       fill="currentColor"
       d="m 622,784 108,63 111,-63 v -128 0 L 951,592 V 465 l -109,-63 2,-1 V 274 L 733,210 V 210 83 L 623,19 515,82 406,19 296,83 v 127 l -110,63 v 127 l -2,-1 -111,63 v 128 l 110,63 -1,1 v 127 l 110,64 110,-64 v 3 l 111,63 z M 230,484 q 0,-15 5.5,-26.5 Q 241,446 252,437 262,429 276.5,424.5 291,420 310,420 q 18,0 32,4.5 14,4.5 24,13.5 10,8 15,19 5,11 5,24 0,12 -4.5,22 -4.5,10 -12.5,16 -6,5 -14,8.5 -8,3.5 -18,5.5 l -33,8 q -10,2 -16,4 -6,2 -9,4 -4,2 -6.5,6 -2.5,4 -2.5,9 0,6 2.5,10 2.5,4 6.5,7 5,3 11,4.5 6,1.5 14,1.5 7,0 12.5,-1 5.5,-1 10.5,-3 7,-4 10.5,-10 3.5,-6 4.5,-15 h 38 q -1,16 -6.5,27.5 Q 368,597 358,604 q -11,8 -24,12 -13,4 -28,4 -17,0 -31,-4 -14,-4 -23,-12 -9,-9 -13.5,-19.5 Q 234,574 234,561 q 0,-14 4.5,-24 4.5,-10 14.5,-17 5,-4 15.5,-7.5 Q 279,509 294,506 l 20,-5 q 8,-2 14.5,-4 6.5,-2 10.5,-5 5,-2 7,-6 2,-4 2,-8 0,-8 -4.5,-13.5 Q 339,459 331,456 q -4,-2 -10,-2.5 -6,-0.5 -13,-0.5 -11,0 -19.5,3 -8.5,3 -13.5,8 -2,4 -4,8.5 -2,4.5 -3,11.5 z m 182,-59 h 39 v 190 h -39 z m 63,0 h 147 v 34 h -99 l 99,124 v 32 H 477 v -34 h 96 L 475,459 Z M 789,615 H 650 V 425 h 144 v 34 H 689 v 49 h 92 v 33 h -92 v 40 H 789 Z M 577,231 H 556 V 347 H 514 L 446,234 v -32 h 74 v -40 h 36 v 40 h 21 z m -104,0 47,80 v -80 z"
       id="path274" />
  </g>
</svg>
