<?xml version="1.0" encoding="UTF-8" standalone="no"?>
<svg
   version="1.1"
   viewBox="0 -64 1024 1024"
   width="512"
   height="512"
   id="svg313"
   sodipodi:docname="size_half.svg"
   inkscape:version="1.2.2 (732a01da63, 2022-12-09)"
   xmlns:inkscape="http://www.inkscape.org/namespaces/inkscape"
   xmlns:sodipodi="http://sodipodi.sourceforge.net/DTD/sodipodi-0.dtd"
   xmlns="http://www.w3.org/2000/svg"
   xmlns:svg="http://www.w3.org/2000/svg">
  <defs
     id="defs317" />
  <sodipodi:namedview
     id="namedview315"
     pagecolor="#ffffff"
     bordercolor="#000000"
     borderopacity="0.25"
     inkscape:showpageshadow="2"
     inkscape:pageopacity="0.0"
     inkscape:pagecheckerboard="0"
     inkscape:deskcolor="#d1d1d1"
     showgrid="false"
     inkscape:zoom="1.6191406"
     inkscape:cx="236.23643"
     inkscape:cy="256.30881"
     inkscape:window-width="1920"
     inkscape:window-height="1009"
     inkscape:window-x="-8"
     inkscape:window-y="-8"
     inkscape:window-maximized="1"
     inkscape:current-layer="svg313" />
  <g
     transform="matrix(1,0,0,-1,0,856.5)"
     id="g311">
    <path
       fill="currentColor"
       d="M 907,180 512,-47 117,180 V 636 L 512,864 907,636 Z M 512,830 147,619 V 197 L 512,-14 878,197 V 619 Z M 268,497 q 1,-7 3,-11.5 2,-4.5 4,-8.5 5,-5 13.5,-8 8.5,-3 20.5,-3 7,0 12.5,0.5 5.5,0.5 9.5,2.5 9,3 13,8.5 4,5.5 4,13.5 0,4 -2,8 -2,4 -6,6 -4,3 -10.5,5 -6.5,2 -15.5,4 l -20,5 q -15,3 -25.5,6.5 -10.5,3.5 -15.5,7.5 -10,7 -14.5,17 -4.5,10 -4.5,24 0,13 4.5,23.5 4.5,10.5 13.5,18.5 9,9 23,13 14,4 32,4 15,0 27.5,-4 12.5,-4 23.5,-12 10,-8 15.5,-19.5 Q 379,586 380,571 h -38 q -1,9 -4.5,15 -3.5,6 -10.5,10 -5,2 -10.5,3 -5.5,1 -12.5,1 -8,0 -14,-1.5 -6,-1.5 -11,-4.5 -4,-3 -6.5,-7 -2.5,-4 -2.5,-10 0,-5 2.5,-9 2.5,-4 6.5,-6 3,-2 9.5,-4 6.5,-2 15.5,-4 l 33,-8 q 10,-2 18.5,-5.5 8.5,-3.5 13.5,-8.5 9,-6 13,-16 4,-10 4,-22 0,-13 -5,-24 -5,-11 -15,-19 -10,-9 -24,-13.5 -14,-4.5 -32,-4.5 -18,0 -33,4.5 -15,4.5 -25,12.5 -11,9 -16,20.5 -5,11.5 -5,26.5 h 37 z m 144,131 h 40 V 438 h -40 z m 63,-156 98,122 h -95 v 34 H 622 V 596 L 523,472 H 623 V 438 H 475 v 34 z M 789,594 H 689 v -40 h 92 V 521 H 689 V 472 H 794 V 438 H 651 V 628 H 789 V 594 Z M 348,304 v 24 q 8,1 14,1.5 6,0.5 10,1.5 5,1 9.5,3.5 4.5,2.5 8.5,6.5 2,2 4,5.5 2,3.5 3,7.5 1,2 1,4 v 3 h 31 V 175 h -38 v 129 h -43 z m 187,66 h 30 L 492,175 h -31 z m 22,-195 q 0,10 2.5,19 2.5,9 6.5,18 4,9 13,19 9,10 24,20 12,9 20.5,15.5 8.5,6.5 12.5,10.5 5,6 8,13 3,7 3,14 0,6 -1.5,11 -1.5,5 -5.5,8 -3,4 -7.5,6 -4.5,2 -10.5,2 -9,0 -14.5,-3 -5.5,-3 -8.5,-9 -2,-4 -3,-9.5 -1,-5.5 -1,-13.5 h -36 q 1,12 3,21.5 2,9.5 6,16.5 7,14 20,21 13,7 32,7 15,0 26.5,-4 11.5,-4 20.5,-12 9,-8 13,-19 4,-11 4,-25 0,-10 -3,-19 -3,-9 -9,-17 -4,-6 -10.5,-12 -6.5,-6 -16.5,-12 l -14,-10 q -7,-5 -12,-8.5 -5,-3.5 -7,-6.5 -3,-2 -5,-4.5 -2,-2.5 -4,-5.5 h 82 V 175 H 557 Z"
       id="path309" />
  </g>
</svg>
