<?xml version="1.0" encoding="UTF-8" standalone="no"?>
<svg
   version="1.1"
   viewBox="0 -64 1024 1024"
   width="512"
   height="512"
   id="svg418"
   sodipodi:docname="squad.svg"
   inkscape:version="1.2.2 (732a01da63, 2022-12-09)"
   xmlns:inkscape="http://www.inkscape.org/namespaces/inkscape"
   xmlns:sodipodi="http://sodipodi.sourceforge.net/DTD/sodipodi-0.dtd"
   xmlns="http://www.w3.org/2000/svg"
   xmlns:svg="http://www.w3.org/2000/svg">
  <defs
     id="defs422" />
  <sodipodi:namedview
     id="namedview420"
     pagecolor="#ffffff"
     bordercolor="#000000"
     borderopacity="0.25"
     inkscape:showpageshadow="2"
     inkscape:pageopacity="0.0"
     inkscape:pagecheckerboard="0"
     inkscape:deskcolor="#d1d1d1"
     showgrid="false"
     inkscape:zoom="1.6191406"
     inkscape:cx="236.23643"
     inkscape:cy="256.30881"
     inkscape:window-width="1920"
     inkscape:window-height="1009"
     inkscape:window-x="-8"
     inkscape:window-y="-8"
     inkscape:window-maximized="1"
     inkscape:current-layer="svg418" />
  <g
     transform="matrix(1,0,0,-1,0,895)"
     id="g416">
    <path
       fill="currentColor"
       d="m 512,723 q -23,0 -39,-16 -16,-16 -16,-39 v 0 q 0,-23 16,-39.5 16,-16.5 39,-16.5 v 0 q 23,0 39,16.5 16,16.5 16,39.5 v 0 q 0,23 -16,39 -16,16 -39,16 v 0 z M 349,644 q -25,0 -43,-18 -18,-18 -18,-44 v 0 0 0 q 0,-25 18,-43 18,-18 43,-18 v 0 0 0 q 26,0 44,18 18,18 18,43 v 0 0 0 q 0,26 -18,44 -18,18 -44,18 v 0 0 z m 326,0 v 0 0 q -26,0 -44,-18 -18,-18 -18,-44 v 0 0 0 q 0,-25 18,-43 18,-18 44,-18 v 0 0 0 q 25,0 43,18 18,18 18,43 v 0 0 0 q 0,26 -18,44 -18,18 -43,18 v 0 z M 512,551 q -28,0 -48,-20 -20,-20 -20,-49 v 0 q 0,-28 20,-48 20,-20 48,-20 v 0 q 28,0 48,20 20,20 20,48 v 0 q 0,29 -20,49 -20,20 -48,20 z m -335,-3 q -29,0 -49,-20 -20,-20 -20,-49 v 0 q 0,-28 20,-48 20,-20 49,-20 v 0 q 28,0 48,20 20,20 20,48 v 0 q 0,29 -20,49 -20,20 -48,20 z m 670,0 q -28,0 -48,-20 -20,-20 -20,-49 v 0 q 0,-28 20,-48 20,-20 48,-20 v 0 q 29,0 49,20 20,20 20,48 v 0 q 0,29 -20,49 -20,20 -49,20 z M 328,443 Q 297,443 274.5,421 252,399 252,367 v 0 0 0 0 0 q 0,-31 22.5,-53.5 Q 297,291 328,291 v 0 0 0 q 31,0 53.5,22.5 Q 404,336 404,367 v 0 0 0 0 0 q 0,32 -22.5,54 -22.5,22 -53.5,22 v 0 0 z m 368,0 v 0 0 Q 665,443 642.5,421 620,399 620,367 v 0 0 0 0 0 q 0,-31 22.5,-53.5 Q 665,291 696,291 v 0 0 0 q 31,0 53.5,22.5 Q 772,336 772,367 v 0 0 0 0 0 q 0,32 -22.5,54 Q 727,443 696,443 Z M 512,339 v 0 0 Q 477,339 452.5,314.5 428,290 428,255 v 0 0 0 q 0,-35 24.5,-59.5 Q 477,171 512,171 v 0 0 0 0 0 q 35,0 59.5,24.5 Q 596,220 596,255 v 0 0 0 q 0,35 -24.5,59.5 Q 547,339 512,339 v 0 0 z"
       id="path414" />
  </g>
</svg>
