<?xml version="1.0" encoding="UTF-8" standalone="no"?>
<svg
   version="1.1"
   viewBox="0 -64 1024 1024"
   width="512"
   height="512"
   id="svg558"
   sodipodi:docname="status_exposed.svg"
   inkscape:version="1.2.2 (732a01da63, 2022-12-09)"
   xmlns:inkscape="http://www.inkscape.org/namespaces/inkscape"
   xmlns:sodipodi="http://sodipodi.sourceforge.net/DTD/sodipodi-0.dtd"
   xmlns="http://www.w3.org/2000/svg"
   xmlns:svg="http://www.w3.org/2000/svg">
  <defs
     id="defs562" />
  <sodipodi:namedview
     id="namedview560"
     pagecolor="#ffffff"
     bordercolor="#000000"
     borderopacity="0.25"
     inkscape:showpageshadow="2"
     inkscape:pageopacity="0.0"
     inkscape:pagecheckerboard="0"
     inkscape:deskcolor="#d1d1d1"
     showgrid="false"
     inkscape:zoom="1.6191406"
     inkscape:cx="236.23643"
     inkscape:cy="256.30881"
     inkscape:window-width="1920"
     inkscape:window-height="1009"
     inkscape:window-x="-8"
     inkscape:window-y="-8"
     inkscape:window-maximized="1"
     inkscape:current-layer="svg558" />
  <g
     transform="matrix(1,0,0,-1,0,896)"
     id="g556">
    <path
       fill="currentColor"
       d="m 508,805 -61,-31 74,-147 -21,-10 -243,81 -21,-65 156,-52 -8,-22 -229,-115 31,-61 147,74 10,-21 -81,-243 65,-21 52,156 22,-8 115,-229 61,31 -74,147 21,10 243,-81 21,65 -156,52 8,22 229,115 -31,61 -147,-74 -10,21 81,243 -65,21 -52,-156 -22,8 z m 4,-289 q 28,0 48,-20 20,-20 20,-48 v 0 0 0 q 0,-28 -20,-48 -20,-20 -48,-20 v 0 q -28,0 -48,20 -20,20 -20,48 v 0 0 0 q 0,28 20,48 20,20 48,20 v 0 z"
       id="path554" />
  </g>
</svg>
