<?xml version="1.0" standalone="no"?>
<!DOCTYPE svg PUBLIC "-//W3C//DTD SVG 1.1//EN" "http://www.w3.org/Graphics/SVG/1.1/DTD/svg11.dtd" >
<svg xmlns="http://www.w3.org/2000/svg" xmlns:xlink="http://www.w3.org/1999/xlink" version="1.1" viewBox="0 -64 1024 1024" width="512" height="512">
  <g transform="matrix(1 0 0 -1 0 960)">
   <path fill="currentColor"
d="M887 619l-375 102l-375 -102v-342l375 -102l375 102v342zM478 653h68v-205h-68v205zM444 604v-80q-16 -14 -25 -33.5t-9 -42.5q0 -43 29.5 -72.5t72.5 -29.5t72.5 29.5t29.5 72.5q0 23 -9 42.5t-25 33.5v80q45 -20 74 -62t29 -94q0 -70 -50.5 -120.5t-120.5 -50.5
t-120.5 50.5t-50.5 120.5q0 52 29 94t74 62v0z" />
  </g>

</svg>
