<?xml version="1.0" encoding="UTF-8" standalone="no"?>
<svg
   version="1.1"
   viewBox="0 -64 1024 1024"
   width="512"
   height="512"
   id="svg453"
   sodipodi:docname="status_dangerzone.svg"
   inkscape:version="1.2.2 (732a01da63, 2022-12-09)"
   xmlns:inkscape="http://www.inkscape.org/namespaces/inkscape"
   xmlns:sodipodi="http://sodipodi.sourceforge.net/DTD/sodipodi-0.dtd"
   xmlns="http://www.w3.org/2000/svg"
   xmlns:svg="http://www.w3.org/2000/svg">
  <defs
     id="defs457" />
  <sodipodi:namedview
     id="namedview455"
     pagecolor="#ffffff"
     bordercolor="#000000"
     borderopacity="0.25"
     inkscape:showpageshadow="2"
     inkscape:pageopacity="0.0"
     inkscape:pagecheckerboard="0"
     inkscape:deskcolor="#d1d1d1"
     showgrid="false"
     inkscape:zoom="1.6191406"
     inkscape:cx="236.23643"
     inkscape:cy="256.30881"
     inkscape:window-width="1920"
     inkscape:window-height="1009"
     inkscape:window-x="-8"
     inkscape:window-y="-8"
     inkscape:window-maximized="1"
     inkscape:current-layer="svg453" />
  <g
     transform="matrix(1,0,0,-1,-34,896)"
     id="g451">
    <path
       fill="currentColor"
       d="m 375,858 q -42,0 -72,-30 -30,-30 -30,-73 V 345 q -32,-24 -50,-60 -18,-36 -18,-76 0,-71 50,-121 50,-50 120,-50 71,0 121,50 50,50 50,121 0,40 -18,76 -18,36 -50,60 v 410 q 0,43 -30,73 -30,30 -73,30 z M 683,755 546,653 V 414 L 683,346 614,448 H 819 L 649,516 887,687 614,619 Z M 341,619 h 69 V 305 q 30,-10 49,-36.5 19,-26.5 19,-59.5 0,-42 -30,-72 -30,-30 -73,-30 -42,0 -72,30 -30,30 -30,72 0,33 19,59.5 19,26.5 49,36.5 z"
       id="path449" />
  </g>
</svg>
