<?xml version="1.0" encoding="UTF-8" standalone="no"?>
<svg
   version="1.1"
   viewBox="0 -64 1024 1024"
   width="512"
   height="512"
   id="svg668"
   sodipodi:docname="status_invisible.svg"
   inkscape:version="1.2.2 (732a01da63, 2022-12-09)"
   xmlns:inkscape="http://www.inkscape.org/namespaces/inkscape"
   xmlns:sodipodi="http://sodipodi.sourceforge.net/DTD/sodipodi-0.dtd"
   xmlns="http://www.w3.org/2000/svg"
   xmlns:svg="http://www.w3.org/2000/svg">
  <defs
     id="defs672" />
  <sodipodi:namedview
     id="namedview670"
     pagecolor="#ffffff"
     bordercolor="#000000"
     borderopacity="0.25"
     inkscape:showpageshadow="2"
     inkscape:pageopacity="0.0"
     inkscape:pagecheckerboard="0"
     inkscape:deskcolor="#d1d1d1"
     showgrid="false"
     inkscape:zoom="1.6191406"
     inkscape:cx="236.23643"
     inkscape:cy="256.30881"
     inkscape:window-width="1920"
     inkscape:window-height="1009"
     inkscape:window-x="-8"
     inkscape:window-y="-8"
     inkscape:window-maximized="1"
     inkscape:current-layer="svg668" />
  <g
     transform="matrix(1,0,0,-1,0,896)"
     id="g666">
    <path
       fill="currentColor"
       d="M 512,823 410,721 H 614 Z M 341,653 273,585 h 102 l 69,68 z m 239,0 69,-68 h 102 l -68,68 z M 205,516 137,448 205,380 h 102 l -68,68 68,68 z m 512,0 68,-68 -68,-68 h 102 l 68,68 -68,68 z M 273,311 341,243 h 103 l -69,68 z m 376,0 -69,-68 h 103 l 68,68 z M 410,175 512,73 614,175 H 512 Z"
       id="path664" />
  </g>
</svg>
