<?xml version="1.0" encoding="UTF-8" standalone="no"?>
<svg
   version="1.1"
   viewBox="0 -64 1024 1024"
   width="512"
   height="512"
   id="svg843"
   sodipodi:docname="system.svg"
   inkscape:version="1.2.2 (732a01da63, 2022-12-09)"
   xmlns:inkscape="http://www.inkscape.org/namespaces/inkscape"
   xmlns:sodipodi="http://sodipodi.sourceforge.net/DTD/sodipodi-0.dtd"
   xmlns="http://www.w3.org/2000/svg"
   xmlns:svg="http://www.w3.org/2000/svg">
  <defs
     id="defs847" />
  <sodipodi:namedview
     id="namedview845"
     pagecolor="#ffffff"
     bordercolor="#000000"
     borderopacity="0.25"
     inkscape:showpageshadow="2"
     inkscape:pageopacity="0.0"
     inkscape:pagecheckerboard="0"
     inkscape:deskcolor="#d1d1d1"
     showgrid="false"
     inkscape:zoom="1.6191406"
     inkscape:cx="236.23643"
     inkscape:cy="256.30881"
     inkscape:window-width="1920"
     inkscape:window-height="1009"
     inkscape:window-x="-8"
     inkscape:window-y="-8"
     inkscape:window-maximized="1"
     inkscape:current-layer="svg843" />
  <g
     transform="matrix(1,0,0,-1,0,896)"
     id="g841">
    <path
       fill="currentColor"
       d="m 580,789 -61,-61 -51,51 -48,-48 51,-51 -71,-71 -52,51 -48,-48 51,-52 -71,-71 -51,51 -48,-48 51,-51 -61,-61 V 346 L 410,107 h 34 l 61,61 51,-51 48,48 -51,51 72,71 51,-51 48,48 -51,52 71,71 51,-51 48,48 -51,51 61,61 v 34 L 614,789 Z M 580,619 683,516 444,277 341,380 Z"
       id="path839" />
  </g>
</svg>
