<?xml version="1.0" encoding="UTF-8" standalone="no"?>
<svg
   version="1.1"
   viewBox="0 -64 1024 1024"
   width="512"
   height="512"
   id="svg1058"
   sodipodi:docname="threat.svg"
   inkscape:version="1.2.2 (732a01da63, 2022-12-09)"
   xmlns:inkscape="http://www.inkscape.org/namespaces/inkscape"
   xmlns:sodipodi="http://sodipodi.sourceforge.net/DTD/sodipodi-0.dtd"
   xmlns="http://www.w3.org/2000/svg"
   xmlns:svg="http://www.w3.org/2000/svg">
  <defs
     id="defs1062" />
  <sodipodi:namedview
     id="namedview1060"
     pagecolor="#ffffff"
     bordercolor="#000000"
     borderopacity="0.25"
     inkscape:showpageshadow="2"
     inkscape:pageopacity="0.0"
     inkscape:pagecheckerboard="0"
     inkscape:deskcolor="#d1d1d1"
     showgrid="false"
     inkscape:zoom="1.6191406"
     inkscape:cx="236.23643"
     inkscape:cy="256.30881"
     inkscape:window-width="1920"
     inkscape:window-height="1009"
     inkscape:window-x="-8"
     inkscape:window-y="-8"
     inkscape:window-maximized="1"
     inkscape:current-layer="svg1058" />
  <g
     transform="matrix(1,0,0,-1,0,896)"
     id="g1056">
    <path
       fill="currentColor"
       d="m 512,651 77,-77 113,113 -44,44 48,48 137,-136 -48,-48 -44,44 -114,-113 78,-78 -78,-77 114,-114 44,45 48,-49 -137,-136 -48,48 44,44 -113,113 -77,-77 -77,77 -114,-113 44,-44 -48,-48 -136,136 48,48 44,-44 114,114 -78,77 78,77 -114,114 -44,-44 -48,48 136,136 48,-48 -44,-44 114,-114 z M 512,309 651,448 512,587 373,448 Z"
       id="path1054" />
  </g>
</svg>
