<?xml version="1.0" standalone="no"?>
<!DOCTYPE svg PUBLIC "-//W3C//DTD SVG 1.1//EN" "http://www.w3.org/Graphics/SVG/1.1/DTD/svg11.dtd" >
<svg xmlns="http://www.w3.org/2000/svg" xmlns:xlink="http://www.w3.org/1999/xlink" version="1.1" viewBox="0 -64 1024 1024" width="512" height="512">
  <g transform="matrix(1 0 0 -1 0 960)">
   <path fill="currentColor"
d="M512 789l-118 -68l34 -59l84 48l84 -48l34 59zM335 687l-119 -68v-137h69v97l84 49zM689 687l-34 -59l84 -49v-97h69v137zM216 414v-137l119 -68l34 59l-84 49v97h-69zM739 414v-97l-84 -49l34 -59l119 68v137h-69zM428 234l-34 -59l118 -68l118 68l-34 59l-84 -49z
M512 585l118 -69v-136l-118 -69l-118 69v136z" />
  </g>

</svg>
