<?xml version="1.0" standalone="no"?>
<!DOCTYPE svg PUBLIC "-//W3C//DTD SVG 1.1//EN" "http://www.w3.org/Graphics/SVG/1.1/DTD/svg11.dtd" >
<svg xmlns="http://www.w3.org/2000/svg" xmlns:xlink="http://www.w3.org/1999/xlink" version="1.1" viewBox="0 -64 1024 1024" width="512" height="512">
  <g transform="matrix(1 0 0 -1 0 960)">
   <path fill="currentColor"
d="M410 687l-35 -68l35 -34h204l35 34l-35 68h-204zM273 550l-102 -136h-34v-68h40q-3 -8 -4.5 -16.5t-1.5 -18.5v0q0 -42 30 -72t72 -30v0q42 0 72 30t30 72v0q0 10 -1.5 18.5t-4.5 16.5h1h40l34 -35h136l34 35h41q-3 -8 -4.5 -16.5t-1.5 -18.5v0q0 -42 30 -72t72 -30v0
q42 0 72 30t30 72v0q0 10 -1.5 18.5t-4.5 16.5v0h40v68h-34l-102 136h-68l-69 -34h-204l-69 34h-68v0z" />
  </g>

</svg>
