<?xml version="1.0" encoding="UTF-8" standalone="no"?>
<svg
   version="1.1"
   viewBox="0 -64 1024 1024"
   width="512"
   height="512"
   id="svg1163"
   sodipodi:docname="vehicle.svg"
   inkscape:version="1.2.2 (732a01da63, 2022-12-09)"
   xmlns:inkscape="http://www.inkscape.org/namespaces/inkscape"
   xmlns:sodipodi="http://sodipodi.sourceforge.net/DTD/sodipodi-0.dtd"
   xmlns="http://www.w3.org/2000/svg"
   xmlns:svg="http://www.w3.org/2000/svg">
  <defs
     id="defs1167" />
  <sodipodi:namedview
     id="namedview1165"
     pagecolor="#ffffff"
     bordercolor="#000000"
     borderopacity="0.25"
     inkscape:showpageshadow="2"
     inkscape:pageopacity="0.0"
     inkscape:pagecheckerboard="0"
     inkscape:deskcolor="#d1d1d1"
     showgrid="false"
     inkscape:zoom="1.6191406"
     inkscape:cx="236.23643"
     inkscape:cy="256.30881"
     inkscape:window-width="1920"
     inkscape:window-height="1009"
     inkscape:window-x="-8"
     inkscape:window-y="-8"
     inkscape:window-maximized="1"
     inkscape:current-layer="svg1163" />
  <g
     transform="matrix(1,0,0,-1,0,896)"
     id="g1161">
    <path
       fill="currentColor"
       d="m 410,687 -35,-68 35,-34 h 204 l 35,34 -35,68 z M 273,550 171,414 h -34 v -68 h 40 q -3,-8 -4.5,-16.5 Q 171,321 171,311 v 0 q 0,-42 30,-72 30,-30 72,-30 v 0 q 42,0 72,30 30,30 30,72 v 0 q 0,10 -1.5,18.5 Q 372,338 369,346 h 1 40 l 34,-35 h 136 l 34,35 h 41 q -3,-8 -4.5,-16.5 Q 649,321 649,311 v 0 q 0,-42 30,-72 30,-30 72,-30 v 0 q 42,0 72,30 30,30 30,72 v 0 q 0,10 -1.5,18.5 Q 850,338 847,346 v 0 h 40 v 68 H 853 L 751,550 H 683 L 614,516 H 410 l -69,34 h -68 z"
       id="path1159" />
  </g>
</svg>
