<?xml version="1.0" encoding="UTF-8" standalone="no"?>
<svg
   version="1.1"
   viewBox="0 -64 1024 1024"
   width="512"
   height="512"
   id="svg1253"
   sodipodi:docname="weapon_mod.svg"
   inkscape:version="1.2.2 (732a01da63, 2022-12-09)"
   xmlns:inkscape="http://www.inkscape.org/namespaces/inkscape"
   xmlns:sodipodi="http://sodipodi.sourceforge.net/DTD/sodipodi-0.dtd"
   xmlns="http://www.w3.org/2000/svg"
   xmlns:svg="http://www.w3.org/2000/svg">
  <defs
     id="defs1257" />
  <sodipodi:namedview
     id="namedview1255"
     pagecolor="#ffffff"
     bordercolor="#000000"
     borderopacity="0.25"
     inkscape:showpageshadow="2"
     inkscape:pageopacity="0.0"
     inkscape:pagecheckerboard="0"
     inkscape:deskcolor="#d1d1d1"
     showgrid="false"
     inkscape:zoom="1.6191406"
     inkscape:cx="236.23643"
     inkscape:cy="256.30881"
     inkscape:window-width="1920"
     inkscape:window-height="1009"
     inkscape:window-x="-8"
     inkscape:window-y="-8"
     inkscape:window-maximized="1"
     inkscape:current-layer="svg1253" />
  <g
     transform="matrix(1,0,0,-1,0.5,896.5)"
     id="g1251">
    <path
       fill="currentColor"
       d="m 817,519 -78,-79 -34,34 -35,-14 -24,-24 44,-44 -122,-122 -44,44 -24,-24 -15,-35 35,-34 -79,-78 49,-48 375,375 z M 329,153 158,324 261,426 329,460 500,631 534,699 636,802 807,631 705,529 636,495 465,324 431,256 Z M 287,566 394,673 441,626 334,519 Z"
       id="path1249" />
  </g>
</svg>
