<?xml version="1.0" encoding="UTF-8" standalone="no"?>
<!-- Created with Inkscape (http://www.inkscape.org/) -->

<svg
   width="120mm"
   height="29.000814mm"
   viewBox="0 0 120 29.000814"
   version="1.1"
   id="svg1"
   xml:space="preserve"
   inkscape:version="1.2.2 (732a01da63, 2022-12-09)"
   sodipodi:docname="lancer_info.svg"
   inkscape:export-filename="DraftSet\StatusBanner.svg"
   inkscape:export-xdpi="96"
   inkscape:export-ydpi="96"
   xmlns:inkscape="http://www.inkscape.org/namespaces/inkscape"
   xmlns:sodipodi="http://sodipodi.sourceforge.net/DTD/sodipodi-0.dtd"
   xmlns="http://www.w3.org/2000/svg"
   xmlns:svg="http://www.w3.org/2000/svg"><sodipodi:namedview
     id="namedview1"
     pagecolor="#ffffff"
     bordercolor="#000000"
     borderopacity="0.25"
     inkscape:showpageshadow="2"
     inkscape:pageopacity="0.0"
     inkscape:pagecheckerboard="0"
     inkscape:deskcolor="#d1d1d1"
     inkscape:document-units="mm"
     inkscape:zoom="1.7009478"
     inkscape:cx="-2.0576763"
     inkscape:cy="67.609364"
     inkscape:window-width="1920"
     inkscape:window-height="1009"
     inkscape:window-x="-8"
     inkscape:window-y="-8"
     inkscape:window-maximized="1"
     inkscape:current-layer="layer1-67"
     showgrid="false" /><defs
     id="defs1" /><g
     inkscape:label="Layer 1"
     inkscape:groupmode="layer"
     id="layer1"
     transform="translate(-28.308007,62.413538)"><g
       inkscape:label="LancerMacros"
       id="layer1-67"
       transform="translate(-0.11304586,-151.22932)"><path
         fill="currentColor"
         d="m 132.36644,113.88997 h -3.19396 v -9.52004 h 1.58146 v 2.10879 l 1.6125,1.08531 z m -1.05432,-21.148364 -1.05431,2.108608 h -5.30258 v 2.10876 l 4.21725,1.05425 v 3.193876 l 2.13964,1.05431 1.05432,3.16306 h 2.10861 l 1.0543,-3.16306 2.13966,-1.05431 v -3.193876 l 4.21723,-1.05425 v -2.10876 h -5.30257 l -1.05432,-2.108608 z m 2.10862,2.108608 2.10861,2.10876 -2.10861,2.108411 -2.10862,-2.108411 z m 1.08531,19.039756 h 3.16296 v -9.52004 h -1.61248 v 2.10879 l -1.55048,1.08531 z m 7.38019,-14.822586 -2.10862,0.558307 v 6.853029 l 2.10862,-1.05425 z m -16.93101,0 2.10861,0.558307 v 6.853029 l -2.10861,-1.05425 z"
         id="path1-1-7"
         style="display:inline;fill:#ffffff;stroke-width:0.0310105"
         inkscape:label="RMech"
         inkscape:transform-center-x="-16.511437"
         inkscape:transform-center-y="-0.34002428" /><rect
         style="display:inline;fill:#4d4d4d;fill-opacity:1;stroke:none;stroke-width:3;stroke-linejoin:bevel;stroke-miterlimit:3.3;stroke-dashoffset:370.663"
         id="rect1-90"
         width="120"
         height="29"
         x="28.421053"
         y="88.815788" /><rect
         style="display:none;opacity:1;fill:#000000;fill-opacity:0.535088;stroke:#000000;stroke-width:0.1;stroke-linejoin:bevel;stroke-miterlimit:3.3;stroke-dasharray:none;stroke-dashoffset:370.663;stroke-opacity:1"
         id="rect11-0"
         width="24.473959"
         height="7.1437497"
         x="76.184074"
         y="99.743912"
         ry="0.9921875" /><rect
         style="display:inline;opacity:1;fill:#7d2477;fill-opacity:1;stroke:#000000;stroke-width:0;stroke-linejoin:bevel;stroke-miterlimit:3.3;stroke-dasharray:none;stroke-dashoffset:370.663;stroke-opacity:1"
         id="rect13-2"
         width="30"
         height="29"
         x="28.421053"
         y="88.815796" /><path
         style="opacity:1;fill:#7d2477;fill-opacity:1;stroke:#000000;stroke-width:0;stroke-linejoin:bevel;stroke-miterlimit:3.3;stroke-dasharray:none;stroke-dashoffset:370.663;stroke-opacity:1"
         d="M 148.42105,98.964228 128.31272,117.81579 H 123.0872 L 148.42105,94.135578 Z"
         id="path11-8" /><path
         style="fill:#7d2477;fill-opacity:1;stroke:#000000;stroke-width:0;stroke-linejoin:bevel;stroke-miterlimit:3.3;stroke-dashoffset:370.663"
         d="m 148.42096,103.94355 -14.84147,13.87305 h 5.21002 l 9.63145,-9.03097 z"
         id="path2-5" /><path
         fill="currentColor"
         d="m 42.424001,113.31579 h -3.020525 v -9.00312 h 1.495589 v 1.99433 l 1.524936,1.02637 z m -0.997062,-20 -0.997065,1.994102 h -5.01463 v 1.994251 l 3.988233,0.997008 v 3.020449 l 2.023462,0.99706 0.997062,2.99132 h 1.994103 l 0.997052,-2.99132 2.023479,-0.99706 v -3.020449 l 3.988226,-0.997008 v -1.994251 h -5.014632 l -0.997073,-1.994103 z m 1.994111,1.994104 1.994106,1.994251 -1.994106,1.993918 -1.994111,-1.993918 z m 1.026377,18.005896 h 2.991208 v -9.00312 h -1.524921 v 1.99433 l -1.466287,1.02637 z m 6.979435,-14.017735 -1.994114,0.528003 V 106.307 l 1.994114,-0.99702 z m -16.011618,0 1.994103,0.528003 V 106.307 l -1.994103,-0.99702 z"
         id="path1-00"
         style="display:none;fill:#ffffff;stroke-width:0.029327"
         inkscape:label="LMech"
         inkscape:transform-center-x="15.63236"
         inkscape:transform-center-y="-0.32154946" /><path
         fill="currentColor"
         d="m 41.426919,93.315797 v 7.008793 h -2.02346 l 4.017595,4.98534 4.017595,-4.98534 H 45.41519 v -7.008793 z m -2.375367,9.736073 -5.630498,2.25806 v 4.01759 l 10,3.98827 9.999998,-3.98827 v -4.01759 l -5.630496,-2.25806 -1.202347,1.52492 4.340177,1.7302 -7.507332,3.02053 -7.507331,-3.02053 4.340176,-1.7302 z"
         id="path1-2-2"
         style="display:none;fill:#ffffff;stroke-width:0.0293256"
         inkscape:label="Deployable" /><path
         fill="currentColor"
         d="m 43.434845,95.315814 q -1.544827,0 -2.662068,1.103447 -1.117241,1.103449 -1.117241,2.648275 0,0.662069 0.220689,1.241384 0.22069,0.5793 0.579311,1.04827 l -2.124138,2.73104 q -0.331035,-0.13793 -0.717241,-0.22069 -0.386207,-0.0828 -0.772414,-0.0828 -1.544827,0 -2.662069,1.10345 -1.117241,1.10344 -1.117241,2.64827 0,1.57242 1.117241,2.67587 1.117242,1.10345 2.662069,1.10345 1.544827,0 2.662069,-1.10345 1.117241,-1.10345 1.117241,-2.67587 0,-0.63448 -0.220689,-1.21379 -0.220691,-0.57931 -0.579311,-1.04828 l 2.124137,-2.73103 q 0.331035,0.13793 0.717242,0.22069 0.386207,0.0828 0.772413,0.0828 0.386208,0 0.772414,-0.0828 0.386206,-0.0828 0.71724,-0.24828 l 2.124138,2.75862 q -0.35862,0.46897 -0.579308,1.04828 -0.220691,0.57931 -0.220691,1.21379 0,1.57242 1.117243,2.67587 1.11724,1.10345 2.662067,1.10345 1.544828,0 2.648275,-1.10345 1.103449,-1.10345 1.103449,-2.67587 0,-1.54483 -1.103449,-2.64827 -1.103447,-1.10345 -2.648275,-1.10345 -0.386206,0 -0.772413,0.0828 -0.386208,0.0828 -0.717243,0.22069 l -2.124138,-2.73104 q 0.358623,-0.46897 0.565518,-1.04827 0.206897,-0.579315 0.206897,-1.241384 0,-1.544826 -1.103449,-2.648275 -1.103446,-1.103447 -2.648275,-1.103447 z m 0,1.875861 q 0.8,0 1.337931,0.551723 0.537932,0.551726 0.537932,1.324138 0,0.8 -0.537932,1.351724 -0.537931,0.55172 -1.337931,0.55172 -0.8,0 -1.337931,-0.55172 -0.537931,-0.551724 -0.537931,-1.351724 0,-0.772412 0.537931,-1.324138 0.537931,-0.551723 1.337931,-0.551723 z m -6.593102,8.468965 q 0.8,0 1.337931,0.55173 0.537931,0.55172 0.537931,1.32413 0,0.8 -0.537931,1.35172 -0.537931,0.55173 -1.337931,0.55173 -0.8,0 -1.33793,-0.55173 -0.537932,-0.55172 -0.537932,-1.35172 0,-0.77241 0.537932,-1.32413 0.53793,-0.55173 1.33793,-0.55173 z m 13.186205,0 q 0.8,0 1.337932,0.55173 0.537931,0.55172 0.537931,1.32413 0,0.8 -0.537931,1.35172 -0.537932,0.55173 -1.337932,0.55173 -0.800001,0 -1.33793,-0.55173 -0.537931,-0.55172 -0.537931,-1.35172 0,-0.77241 0.537931,-1.32413 0.537929,-0.55173 1.33793,-0.55173 z"
         id="path1-3-73"
         style="display:none;fill:#ffffff;stroke-width:0.0275862"
         inkscape:label="NPC" /><path
         fill="currentColor"
         d="m 32.006826,95.315797 v 10.276153 l 2.276151,2.30962 v 3.41422 h 18.276152 v -3.41422 l 2.27615,-2.30962 V 95.315797 Z m 10.276151,2.27615 h 2.276151 v 3.447703 h 3.447699 v 2.27615 h -3.447699 v 3.41422 h -2.276151 v -3.41422 h -3.447698 v -2.27615 h 3.447698 z"
         id="path1-0-4"
         style="display:none;fill:#ffffff;stroke-width:0.0334729"
         inkscape:label="NPCFeature" /><path
         fill="currentColor"
         d="m 43.421058,92.315794 q -1.146809,0 -2.235106,0.233792 -1.088298,0.233795 -2.071277,0.654624 -0.304256,-0.374071 -0.737234,-0.596175 -0.432979,-0.222103 -0.924468,-0.222103 -0.865958,0 -1.48617,0.619553 -0.620213,0.619554 -0.620213,1.484591 0,0.280552 0.08191,0.561105 0.08192,0.280552 0.22234,0.514347 -0.748936,0.748139 -1.357447,1.613177 -0.585106,0.888417 -1.006383,1.88204 -0.421275,0.993625 -0.655319,2.069085 -0.210638,1.07544 -0.210638,2.19765 0,2.2678 0.865957,4.27843 0.865958,1.98725 2.36383,3.48353 1.497873,1.49627 3.510639,2.36131 1.989361,0.86505 4.259574,0.86505 2.293617,0 4.282979,-0.86505 2.012765,-0.86504 3.498935,-2.36131 1.48617,-1.49628 2.352129,-3.48353 0.865957,-2.01063 0.865957,-4.27843 0,-2.2678 -0.865957,-4.278424 -0.865959,-1.987247 -2.352129,-3.483528 -1.48617,-1.496281 -3.498935,-2.384696 -1.989362,-0.865038 -4.259574,-0.865038 z m 0.0234,0.911795 q 2.082977,0 3.931915,0.794899 1.848936,0.7949 3.218084,2.162594 1.369149,1.367693 2.164894,3.214664 0.795745,1.846974 0.795745,3.927734 0,2.10414 -0.795745,3.95112 -0.795745,1.82359 -2.164894,3.20297 -1.369148,1.37939 -3.218084,2.15091 -1.848938,0.79489 -3.931915,0.79489 -2.106384,0 -3.95532,-0.79489 -1.848936,-0.77152 -3.229787,-2.15091 -1.380851,-1.37938 -2.176595,-3.20297 -0.795745,-1.84698 -0.795745,-3.95112 0,-1.02868 0.210638,-2.034 0.187234,-0.98194 0.573404,-1.882044 0.38617,-0.900105 0.947872,-1.718384 0.538298,-0.81828 1.217021,-1.496281 0.257448,0.187036 0.561703,0.280552 0.304256,0.09352 0.655319,0.09352 0.865958,0 1.474468,-0.607863 0.60851,-0.607866 0.60851,-1.472902 0,-0.116898 -0.01171,-0.233793 -0.01171,-0.116897 -0.0351,-0.233795 0.912766,-0.397449 1.907446,-0.596174 0.994681,-0.198725 2.024469,-0.198725 z m -0.0234,2.431457 q -1.59149,0 -3.019149,0.607863 -1.404256,0.607863 -2.457447,1.659937 -1.053192,1.052071 -1.661702,2.454834 -0.60851,1.42615 -0.60851,3.01594 0,1.61318 0.60851,3.01594 0.60851,1.40276 1.661702,2.45484 1.053191,1.05207 2.457447,1.65994 1.427659,0.60786 3.019149,0.60786 1.240425,0 2.363829,-0.36238 1.123404,-0.36238 2.059575,-1.01701 0.257447,0.14028 0.549999,0.2221 0.292554,0.0818 0.596809,0.0818 0.936171,0 1.591489,-0.65462 0.65532,-0.65462 0.65532,-1.56643 0,-0.46758 -0.175533,-0.85334 -0.17553,-0.38575 -0.456381,-0.68969 0.280851,-0.678 0.421276,-1.40276 0.140426,-0.72477 0.140426,-1.49628 0,-1.5898 -0.608512,-3.01594 -0.60851,-1.402767 -1.661702,-2.454838 -1.053191,-1.052074 -2.457446,-1.659937 -1.404256,-0.607863 -3.019149,-0.607863 z m 0,0.888416 q 1.42766,0 2.69149,0.537726 1.240424,0.537726 2.176595,1.461211 0.93617,0.923486 1.474469,2.185971 0.538296,1.23911 0.538296,2.66525 0,0.63125 -0.105319,1.22742 -0.105318,0.59617 -0.315958,1.15728 -0.210637,-0.0935 -0.432978,-0.14027 -0.22234,-0.0468 -0.456383,-0.0468 -0.936171,0 -1.591489,0.65463 -0.655319,0.65463 -0.655319,1.5898 0,0.35069 0.117021,0.68969 0.117022,0.339 0.327659,0.61955 -0.819149,0.53773 -1.767021,0.82997 -0.947872,0.29224 -2.001063,0.29224 -1.42766,0 -2.668085,-0.53772 -1.263829,-0.53773 -2.2,-1.4729 -0.936171,-0.93518 -1.474468,-2.17429 -0.538298,-1.26248 -0.538298,-2.68863 0,-1.42614 0.538298,-2.66525 0.538297,-1.262485 1.474468,-2.185968 0.936171,-0.923485 2.2,-1.461211 1.240425,-0.537726 2.668085,-0.537726 z m -0.04681,0.911795 q -0.257447,1.12221 -0.760638,2.139216 -0.503192,1.017007 -1.252127,1.765147 -0.725533,0.72476 -1.685107,1.16897 -0.959575,0.44421 -2.082979,0.70137 1.123404,0.28056 2.14149,0.77152 1.018085,0.49097 1.743617,1.23911 0.748935,0.74814 1.193616,1.70669 0.444681,0.95856 0.702128,2.08077 0.257447,-1.12221 0.702127,-2.08077 0.444681,-0.95855 1.193618,-1.70669 0.748936,-0.74814 1.755318,-1.23911 1.006383,-0.49096 2.129787,-0.77152 -1.123404,-0.25716 -2.071276,-0.70137 -0.947872,-0.44421 -1.696809,-1.16897 -0.748936,-0.74814 -1.252127,-1.765147 -0.503191,-1.017006 -0.760638,-2.139216 z m 0,4.044633 q 0.725531,0 1.240425,0.51435 0.514895,0.51435 0.514895,1.21572 0,0.72477 -0.514895,1.23911 -0.514894,0.51435 -1.240425,0.51435 -0.702128,0 -1.217021,-0.51435 -0.514894,-0.51434 -0.514894,-1.23911 0,-0.70137 0.514894,-1.21572 0.514893,-0.51435 1.217021,-0.51435 z"
         id="path192"
         style="fill:#ffffff;stroke-width:0.0233919" /></g></g></svg>
