<?xml version="1.0" encoding="UTF-8" standalone="no"?>
<!-- Created with Inkscape (http://www.inkscape.org/) -->

<svg
   width="120mm"
   height="29.000814mm"
   viewBox="0 0 120 29.000814"
   version="1.1"
   id="svg1"
   xml:space="preserve"
   inkscape:version="1.3.1 (91b66b0783, 2023-11-16)"
   sodipodi:docname="MechBanner3.svg"
   inkscape:export-filename="DraftSet\StatusBanner.svg"
   inkscape:export-xdpi="96"
   inkscape:export-ydpi="96"
   xmlns:inkscape="http://www.inkscape.org/namespaces/inkscape"
   xmlns:sodipodi="http://sodipodi.sourceforge.net/DTD/sodipodi-0.dtd"
   xmlns="http://www.w3.org/2000/svg"
   xmlns:svg="http://www.w3.org/2000/svg"><sodipodi:namedview
     id="namedview1"
     pagecolor="#ffffff"
     bordercolor="#000000"
     borderopacity="0.25"
     inkscape:showpageshadow="2"
     inkscape:pageopacity="0.0"
     inkscape:pagecheckerboard="0"
     inkscape:deskcolor="#d1d1d1"
     inkscape:document-units="mm"
     inkscape:zoom="0.85047391"
     inkscape:cx="122.87267"
     inkscape:cy="-300.42074"
     inkscape:window-width="1920"
     inkscape:window-height="1009"
     inkscape:window-x="1912"
     inkscape:window-y="-8"
     inkscape:window-maximized="1"
     inkscape:current-layer="layer1" /><defs
     id="defs1" /><g
     inkscape:label="Layer 1"
     inkscape:groupmode="layer"
     id="layer1"
     transform="translate(-28.619108,2.6821301)"><g
       inkscape:label="NPCs"
       id="layer1-8"
       transform="translate(0.1980552,-91.497919)"><path
         fill="currentColor"
         d="m 132.36644,113.88997 h -3.19396 v -9.52004 h 1.58146 v 2.10879 l 1.6125,1.08531 z m -1.05432,-21.148364 -1.05431,2.108608 h -5.30258 v 2.10876 l 4.21725,1.05425 v 3.193876 l 2.13964,1.05431 1.05432,3.16306 h 2.10861 l 1.0543,-3.16306 2.13966,-1.05431 v -3.193876 l 4.21723,-1.05425 v -2.10876 h -5.30257 l -1.05432,-2.108608 z m 2.10862,2.108608 2.10861,2.10876 -2.10861,2.108411 -2.10862,-2.108411 z m 1.08531,19.039756 h 3.16296 v -9.52004 h -1.61248 v 2.10879 l -1.55048,1.08531 z m 7.38019,-14.822586 -2.10862,0.558307 v 6.853029 l 2.10862,-1.05425 z m -16.93101,0 2.10861,0.558307 v 6.853029 l -2.10861,-1.05425 z"
         id="path1-1-1"
         style="display:inline;fill:#ffffff;stroke-width:0.0310105"
         inkscape:label="RMech"
         inkscape:transform-center-x="-16.511437"
         inkscape:transform-center-y="-0.34002428" /><rect
         style="display:inline;fill:#4d4d4d;fill-opacity:1;stroke:none;stroke-width:3;stroke-linejoin:bevel;stroke-miterlimit:3.3;stroke-dashoffset:370.663"
         id="rect1-64"
         width="120"
         height="29"
         x="28.421053"
         y="88.815788" /><rect
         style="display:none;opacity:1;fill:#000000;fill-opacity:0.535088;stroke:#000000;stroke-width:0.1;stroke-linejoin:bevel;stroke-miterlimit:3.3;stroke-dasharray:none;stroke-dashoffset:370.663;stroke-opacity:1"
         id="rect11-6"
         width="24.473959"
         height="7.1437497"
         x="76.184074"
         y="99.743912"
         ry="0.9921875" /><rect
         style="display:inline;opacity:1;fill:#991e2a;fill-opacity:1;stroke:#000000;stroke-width:0;stroke-linejoin:bevel;stroke-miterlimit:3.3;stroke-dasharray:none;stroke-dashoffset:370.663;stroke-opacity:1"
         id="rect13-0"
         width="30"
         height="29"
         x="28.421053"
         y="88.815796" /><path
         style="opacity:1;fill:#991e2a;fill-opacity:1;stroke:#000000;stroke-width:0;stroke-linejoin:bevel;stroke-miterlimit:3.3;stroke-dasharray:none;stroke-dashoffset:370.663;stroke-opacity:1"
         d="M 148.42105,98.964228 128.31272,117.81579 H 123.0872 L 148.42105,94.135578 Z"
         id="path11-53" /><path
         style="fill:#991e2a;fill-opacity:1;stroke:#000000;stroke-width:0;stroke-linejoin:bevel;stroke-miterlimit:3.3;stroke-dashoffset:370.663"
         d="m 148.42096,103.94355 -14.84147,13.87305 h 5.21002 l 9.63145,-9.03097 z"
         id="path2-41" /><path
         fill="currentColor"
         d="m 42.424001,113.31579 h -3.020525 v -9.00312 h 1.495589 v 1.99433 l 1.524936,1.02637 z m -0.997062,-20 -0.997065,1.994102 h -5.01463 v 1.994251 l 3.988233,0.997008 v 3.020449 l 2.023462,0.99706 0.997062,2.99132 h 1.994103 l 0.997052,-2.99132 2.023479,-0.99706 v -3.020449 l 3.988226,-0.997008 v -1.994251 h -5.014632 l -0.997073,-1.994103 z m 1.994111,1.994104 1.994106,1.994251 -1.994106,1.993918 -1.994111,-1.993918 z m 1.026377,18.005896 h 2.991208 v -9.00312 h -1.524921 v 1.99433 l -1.466287,1.02637 z m 6.979435,-14.017735 -1.994114,0.528003 V 106.307 l 1.994114,-0.99702 z m -16.011618,0 1.994103,0.528003 V 106.307 l -1.994103,-0.99702 z"
         id="path1-9"
         style="display:none;fill:#ffffff;stroke-width:0.029327"
         inkscape:label="LMech"
         inkscape:transform-center-x="15.63236"
         inkscape:transform-center-y="-0.32154946" /><path
         fill="currentColor"
         d="m 41.426919,93.315797 v 7.008793 h -2.02346 l 4.017595,4.98534 4.017595,-4.98534 H 45.41519 v -7.008793 z m -2.375367,9.736073 -5.630498,2.25806 v 4.01759 l 10,3.98827 9.999998,-3.98827 v -4.01759 l -5.630496,-2.25806 -1.202347,1.52492 4.340177,1.7302 -7.507332,3.02053 -7.507331,-3.02053 4.340176,-1.7302 z"
         id="path1-2-0"
         style="display:none;fill:#ffffff;stroke-width:0.0293256"
         inkscape:label="Deployable" /><path
         fill="currentColor"
         d="m 35.025467,95.315798 -0.29303,0.293038 -2.31502,2.285706 v 10.842398 l 2.60805,2.57885 h 16.820478 l 2.578744,-2.57885 V 97.894542 l -2.578744,-2.578744 z m 0.820514,1.992664 h 15.179445 l 1.406598,1.406598 v 9.20142 l -1.406598,1.40657 H 35.845981 l -1.406594,-1.40657 v -9.20142 z m 1.699632,1.28937 -1.406594,1.435908 3.28204,3.28206 -3.28204,3.28198 1.406594,1.43595 4.717929,-4.71793 z m 7.941369,0.351656 -2.989002,8.029232 1.875454,0.67402 2.989003,-7.999949 z m 4.01464,0 -3.018302,8.029232 1.875453,0.67402 3.0183,-7.999949 z"
         id="path1-6-6"
         style="display:none;fill:#ffffff;stroke-width:0.0293038"
         inkscape:label="LancerMacros" /><path
         fill="currentColor"
         d="m 43.434845,95.315814 q -1.544827,0 -2.662068,1.103447 -1.117241,1.103449 -1.117241,2.648275 0,0.662069 0.220689,1.241384 0.22069,0.5793 0.579311,1.04827 l -2.124138,2.73104 q -0.331035,-0.13793 -0.717241,-0.22069 -0.386207,-0.0828 -0.772414,-0.0828 -1.544827,0 -2.662069,1.10345 -1.117241,1.10344 -1.117241,2.64827 0,1.57242 1.117241,2.67587 1.117242,1.10345 2.662069,1.10345 1.544827,0 2.662069,-1.10345 1.117241,-1.10345 1.117241,-2.67587 0,-0.63448 -0.220689,-1.21379 -0.220691,-0.57931 -0.579311,-1.04828 l 2.124137,-2.73103 q 0.331035,0.13793 0.717242,0.22069 0.386207,0.0828 0.772413,0.0828 0.386208,0 0.772414,-0.0828 0.386206,-0.0828 0.71724,-0.24828 l 2.124138,2.75862 q -0.35862,0.46897 -0.579308,1.04828 -0.220691,0.57931 -0.220691,1.21379 0,1.57242 1.117243,2.67587 1.11724,1.10345 2.662067,1.10345 1.544828,0 2.648275,-1.10345 1.103449,-1.10345 1.103449,-2.67587 0,-1.54483 -1.103449,-2.64827 -1.103447,-1.10345 -2.648275,-1.10345 -0.386206,0 -0.772413,0.0828 -0.386208,0.0828 -0.717243,0.22069 l -2.124138,-2.73104 q 0.358623,-0.46897 0.565518,-1.04827 0.206897,-0.579315 0.206897,-1.241384 0,-1.544826 -1.103449,-2.648275 -1.103446,-1.103447 -2.648275,-1.103447 z m 0,1.875861 q 0.8,0 1.337931,0.551723 0.537932,0.551726 0.537932,1.324138 0,0.8 -0.537932,1.351724 -0.537931,0.55172 -1.337931,0.55172 -0.8,0 -1.337931,-0.55172 -0.537931,-0.551724 -0.537931,-1.351724 0,-0.772412 0.537931,-1.324138 0.537931,-0.551723 1.337931,-0.551723 z m -6.593102,8.468965 q 0.8,0 1.337931,0.55173 0.537931,0.55172 0.537931,1.32413 0,0.8 -0.537931,1.35172 -0.537931,0.55173 -1.337931,0.55173 -0.8,0 -1.33793,-0.55173 -0.537932,-0.55172 -0.537932,-1.35172 0,-0.77241 0.537932,-1.32413 0.53793,-0.55173 1.33793,-0.55173 z m 13.186205,0 q 0.8,0 1.337932,0.55173 0.537931,0.55172 0.537931,1.32413 0,0.8 -0.537931,1.35172 -0.537932,0.55173 -1.337932,0.55173 -0.800001,0 -1.33793,-0.55173 -0.537931,-0.55172 -0.537931,-1.35172 0,-0.77241 0.537931,-1.32413 0.537929,-0.55173 1.33793,-0.55173 z"
         id="path1-3-3"
         style="fill:#ffffff;stroke-width:0.0275862" /></g></g></svg>
