<?xml version="1.0" encoding="UTF-8" standalone="no"?>
<svg
   id="Layer_1"
   data-name="Layer 1"
   viewBox="0 0 250 250"
   version="1.1"
   sodipodi:docname="powered_by_Lancer-white-on-black-icon.svg"
   width="250"
   height="250"
   inkscape:version="1.2.2 (732a01da63, 2022-12-09)"
   xmlns:inkscape="http://www.inkscape.org/namespaces/inkscape"
   xmlns:sodipodi="http://sodipodi.sourceforge.net/DTD/sodipodi-0.dtd"
   xmlns="http://www.w3.org/2000/svg"
   xmlns:svg="http://www.w3.org/2000/svg">
  <sodipodi:namedview
     id="namedview45"
     pagecolor="#ffffff"
     bordercolor="#000000"
     borderopacity="0.25"
     inkscape:showpageshadow="2"
     inkscape:pageopacity="0.0"
     inkscape:pagecheckerboard="0"
     inkscape:deskcolor="#d1d1d1"
     showgrid="false"
     inkscape:zoom="2.4624527"
     inkscape:cx="104.16444"
     inkscape:cy="116.55046"
     inkscape:window-width="1920"
     inkscape:window-height="1009"
     inkscape:window-x="-8"
     inkscape:window-y="-8"
     inkscape:window-maximized="1"
     inkscape:current-layer="Layer_1"
     showguides="true">
    <sodipodi:guide
       position="127.51514,124.92145"
       orientation="0,-1"
       id="guide710"
       inkscape:locked="false" />
  </sodipodi:namedview>
  <defs
     id="defs4">
    <style
       id="style2">.cls-1{fill:#fff;}</style>
  </defs>
  <rect
     style="fill:#000000;stroke-width:0.707107"
     id="rect203"
     width="250"
     height="250"
     x="0"
     y="0" />
  <g
     id="g277"
     transform="matrix(0.5,0,0,0.5,2.1332954,58.771909)">
    <path
       class="cls-1"
       d="m 333.31,80.64 a 1.66,1.66 0 0 1 1.38,-0.85 c 0.71,-0.05 1.42,-0.14 2.13,-0.14 h 30.25 a 8.58,8.58 0 0 1 1.75,0.17 1.78,1.78 0 0 1 1.63,1.8 13.39,13.39 0 0 1 0,1.9 c -0.06,1.06 0,2.12 0,3.17 -0.05,2.46 0,4.92 -0.19,7.37 a 11.39,11.39 0 0 0 0.19,3 2.3,2.3 0 0 0 1.55,1.73 6,6 0 0 0 1.88,0.32 q 14.75,0 29.51,0 a 5,5 0 0 0 2,-0.39 2.86,2.86 0 0 0 1.67,-2.58 78.5,78.5 0 0 0 0.11,-8.26 8.41,8.41 0 0 0 -0.55,-3.31 A 14.91,14.91 0 0 0 404.9,82 l -0.7,-1 a 1,1 0 0 1 0.68,-1.67 7.88,7.88 0 0 1 1.53,-0.17 h 31.35 a 5.69,5.69 0 0 1 1.24,0.16 1.57,1.57 0 0 1 1.24,1.69 1.68,1.68 0 0 1 -0.07,0.5 c -0.29,1.09 -0.58,2.19 -0.89,3.27 q -0.91,3.23 -1.86,6.43 c -0.32,1.06 -0.66,2.11 -1,3.17 a 7.16,7.16 0 0 0 -0.32,2.68 2,2 0 0 0 1.38,1.75 6.4,6.4 0 0 0 2.53,0.4 h 18.44 a 10.87,10.87 0 0 1 1.4,0 5.12,5.12 0 0 1 1.34,0.37 0.93,0.93 0 0 1 0.47,1.35 2.12,2.12 0 0 1 -1.94,1.36 c -1.27,0.09 -2.55,0.15 -3.82,0.15 H 430 a 20.63,20.63 0 0 1 -2.35,-0.17 1.54,1.54 0 0 1 -1.34,-1.92 c 0.19,-0.86 0.41,-1.72 0.65,-2.57 0.3,-1.11 0.65,-2.21 1,-3.32 0.49,-1.72 1,-3.45 1.44,-5.17 a 2.84,2.84 0 0 0 0.1,-0.65 2.4,2.4 0 0 0 -2.39,-2.64 54.35,54.35 0 0 0 -6.63,-0.12 7,7 0 0 0 -1.81,0.26 2.41,2.41 0 0 0 -1.89,1.77 6.71,6.71 0 0 0 -0.28,1.66 c 0,3.15 0,6.3 0,9.44 a 8,8 0 0 1 -0.18,1.76 1.75,1.75 0 0 1 -1.55,1.46 14.11,14.11 0 0 1 -1.83,0.15 q -20,0 -40.06,0 c -1.27,0 -2.54,0.2 -3.82,0.24 a 18.21,18.21 0 0 1 -4,-0.11 2.36,2.36 0 0 1 -2.07,-1.83 c -0.31,-1.34 -0.61,-2.68 -0.89,-4 -0.54,-2.57 -1,-5.15 -1.61,-7.71 a 3.2,3.2 0 0 0 -2.66,-2.63 8,8 0 0 0 -1.45,-0.17 c -2,0 -4.09,0 -6.13,0 a 11.11,11.11 0 0 0 -1.9,0.18 2.61,2.61 0 0 0 -2.16,2.14 A 6.09,6.09 0 0 0 346,90 c 0,2.91 0,5.81 0,8.71 0,0.49 0,1 0,1.48 a 2.11,2.11 0 0 1 -2.27,2.32 c -0.59,0 -1.18,0 -1.77,0 q -21.51,0 -43,0 c -1.57,0 -3.15,0.13 -4.71,0.11 a 15.24,15.24 0 0 1 -2.4,-0.34 1.48,1.48 0 0 1 -1.05,-0.86 6.93,6.93 0 0 1 -0.59,-1.57 c -0.61,-2.9 -1.17,-5.82 -1.78,-8.73 a 22.07,22.07 0 0 0 -0.71,-2.62 3.16,3.16 0 0 0 -3.21,-2.22 c -2.63,0 -5.27,0 -7.9,0 a 4.07,4.07 0 0 0 -1.62,0.43 2.58,2.58 0 0 0 -1.48,2.29 c -0.08,0.87 -0.14,1.76 -0.15,2.64 0,2.11 0,4.23 0,6.34 0,0.57 0.1,1.13 0.11,1.69 a 4.12,4.12 0 0 1 -0.46,2.48 1.76,1.76 0 0 1 -1.2,0.79 10.37,10.37 0 0 1 -1.75,0.17 q -22.32,0 -44.64,0 h -78.65 a 16.35,16.35 0 0 1 -2,-0.16 2.06,2.06 0 0 1 -1.58,-1.57 14.11,14.11 0 0 1 -0.15,-1.83 c 0,-3.35 0,-6.69 0,-10 a 3.58,3.58 0 0 0 -0.62,-2.08 2.16,2.16 0 0 0 -1.35,-1 11.55,11.55 0 0 0 -2.18,-0.3 c -1.87,0 -3.74,0 -5.61,0 a 12,12 0 0 0 -1.89,0.21 2.58,2.58 0 0 0 -2.23,2.32 8.19,8.19 0 0 0 -0.14,1.39 q 0,5.31 0,10.63 a 2.22,2.22 0 0 1 -1.24,2.09 0.89,0.89 0 0 1 -0.41,0.15 c -0.7,0.07 -1.41,0.16 -2.12,0.16 h -91.4 a 8.39,8.39 0 0 1 -2.68,-0.37 2.33,2.33 0 0 1 -1.39,-1.34 1.08,1.08 0 0 1 0.85,-1.54 9.35,9.35 0 0 1 1.37,-0.16 h 15.51 a 10.8,10.8 0 0 0 2,-0.22 A 2.71,2.71 0 0 0 51.86,97 9.83,9.83 0 0 0 52,95.71 c 0,-2.63 0,-5.26 0,-7.89 a 6.48,6.48 0 0 0 -0.82,-3.33 c -0.33,-0.54 -0.74,-1 -1.12,-1.55 C 49.68,82.39 49.31,82 49,81.54 a 1.31,1.31 0 0 1 -0.21,-0.6 c -0.06,-0.7 0.17,-1 0.86,-1.13 a 9.93,9.93 0 0 1 1.54,-0.16 q 3.39,0 6.78,0 a 12.21,12.21 0 0 1 1.91,0.16 2.22,2.22 0 0 1 1.58,1.92 7.3,7.3 0 0 1 0,0.81 c 0,4.55 0,9.1 0,13.65 a 5.13,5.13 0 0 0 0.15,1.24 2.67,2.67 0 0 0 2.68,2.11 c 1.47,0.11 2.94,0.15 4.41,0.15 q 22.91,0 45.82,0 a 16,16 0 0 0 2.92,-0.3 2.28,2.28 0 0 0 1.88,-1.76 8.69,8.69 0 0 0 0.26,-1.89 c 0,-4.2 0,-8.41 0,-12.61 a 15.08,15.08 0 0 1 0.18,-1.9 2,2 0 0 1 1.93,-1.72 c 1,-0.07 2,-0.14 3,-0.14 3.67,0 7.33,0 11,0 3.67,0 7.56,0 11.34,0 1,0 1.92,0.06 2.87,0.14 a 1.86,1.86 0 0 1 1.81,1.57 5.72,5.72 0 0 1 0.15,1.31 c 0,4.32 0,8.65 0,13 a 10.23,10.23 0 0 0 0.18,1.83 2.9,2.9 0 0 0 2.81,2.37 c 3.78,0.29 7.57,0.11 11.35,0.13 7.72,0 15.44,0 23.17,0 a 11.52,11.52 0 0 0 2.55,-0.28 2.59,2.59 0 0 0 2.14,-2.24 7.29,7.29 0 0 0 0.14,-1.31 c 0,-2.34 0,-4.68 0,-7 a 6.53,6.53 0 0 0 -1.59,-4.41 17.31,17.31 0 0 1 -1.46,-2 1,1 0 0 1 0.57,-1.57 9.3,9.3 0 0 1 2,-0.3 c 1.4,0 2.81,0 4.21,0 a 2.73,2.73 0 0 1 2.91,2.12 c 0.62,1.83 1.15,3.7 1.71,5.56 0.22,0.73 0.43,1.46 0.64,2.19 0.51,1.72 1,3.44 1.53,5.15 a 13.4,13.4 0 0 0 0.8,2 3.52,3.52 0 0 0 3,2 c 2.63,0.23 5.26,0.08 7.89,0.11 a 10.15,10.15 0 0 0 2.11,-0.26 2.64,2.64 0 0 0 2.14,-2.26 11,11 0 0 0 0.17,-1.9 c 0,-2.26 0,-4.53 0,-6.79 0,-1.5 -0.1,-3 -0.12,-4.49 a 9.38,9.38 0 0 1 0.18,-1.83 1.86,1.86 0 0 1 1.43,-1.51 3.65,3.65 0 0 1 0.87,-0.12 c 2,0 3.94,0 5.9,0 a 6.49,6.49 0 0 1 1.24,0.17 0.85,0.85 0 0 1 0.69,1 2.46,2.46 0 0 1 -0.62,1.31 l -1.24,1.55 a 6.7,6.7 0 0 0 -1.37,4 c 0,0.51 0,1 0,1.55 -0.05,1.81 -0.11,3.63 -0.13,5.44 a 8.7,8.7 0 0 0 0.19,1.76 2.8,2.8 0 0 0 2.78,2.29 c 1.44,0.08 2.89,0.14 4.34,0.14 q 12.06,0 24.12,0 a 12.77,12.77 0 0 0 2.55,-0.28 2.62,2.62 0 0 0 2.14,-2.5 21.68,21.68 0 0 0 0.15,-2.42 c 0,-1.72 0,-3.44 0,-5.17 0,-0.9 -0.05,-1.81 -0.15,-2.71 a 5.25,5.25 0 0 0 -1,-2.43 c -0.54,-0.76 -1.13,-1.48 -1.68,-2.24 a 3,3 0 0 1 -0.37,-0.79 0.73,0.73 0 0 1 0.34,-0.89 2.61,2.61 0 0 1 1.37,-0.46 c 0.3,0 0.59,0 0.89,0 h 31.77 a 4.92,4.92 0 0 1 1.09,0.11 2,2 0 0 1 1.78,2 c 0,1.18 -0.06,2.36 -0.09,3.53 0,0.25 0,0.49 0,0.74 0,1.5 0,3 0,4.5 0,1.5 -0.11,3.24 -0.12,4.86 a 5.6,5.6 0 0 0 0.23,1.52 2.49,2.49 0 0 0 1.92,1.84 7.23,7.23 0 0 0 1.6,0.2 h 31.09 a 6.21,6.21 0 0 0 1.6,-0.2 c 1.51,-0.39 2.06,-1.19 2.3,-2.87 a 3.27,3.27 0 0 0 0,-0.44 c 0,-2.68 0,-5.36 0,-8 a 5.67,5.67 0 0 0 -0.8,-3.09 19.36,19.36 0 0 0 -1.54,-2.06 3.81,3.81 0 0 1 -0.85,-1.9 z"
       id="path6" />
    <path
       class="cls-1"
       d="m 231.13,183.87 -0.44,0.82 a 14.36,14.36 0 0 1 -1.76,0.3 c -1,0 -2.07,0 -3.1,0 a 22.24,22.24 0 0 1 -2.7,-0.27 2.4,2.4 0 0 1 -1.94,-1.62 c -0.43,-1.17 -0.84,-2.36 -1.22,-3.55 -0.66,-2 -1.29,-4 -1.92,-6 -0.38,-1.19 -0.73,-2.39 -1.11,-3.59 -0.46,-1.5 -0.94,-3 -1.41,-4.49 -0.37,-1.17 -0.73,-2.34 -1.1,-3.51 -0.48,-1.52 -1,-3 -1.45,-4.56 -0.45,-1.56 -1,-3.09 -1.45,-4.63 -0.56,-1.78 -1.13,-3.55 -1.69,-5.33 L 209,144.69 c -0.39,-1.24 -0.79,-2.48 -1.18,-3.72 -0.65,-2.08 -1.27,-4.17 -1.95,-6.25 -0.68,-2.08 -1.33,-3.95 -2.07,-5.91 a 3.73,3.73 0 0 0 -1.1,-1.79 c -0.21,-0.16 -0.44,-0.29 -0.64,-0.43 a 1.66,1.66 0 0 0 -1,1.17 6.43,6.43 0 0 0 -0.29,1.37 c -0.09,1 -0.16,2 -0.16,2.93 0,11.91 0,23.81 -0.06,35.71 0,4.92 0,9.83 -0.1,14.74 a 3.24,3.24 0 0 1 -0.14,0.94 2,2 0 0 1 -1.77,1.45 40.74,40.74 0 0 1 -5.3,0.12 8.2,8.2 0 0 1 -1.31,-0.14 1,1 0 0 1 -0.86,-1.36 2.91,2.91 0 0 1 0.45,-0.83 c 0.45,-0.62 0.91,-1.23 1.39,-1.82 a 6,6 0 0 0 1.33,-4 q 0,-9 0,-17.93 v -43.22 a 12,12 0 0 1 0.17,-1.9 2,2 0 0 1 1.61,-1.6 5,5 0 0 1 0.87,-0.11 c 3.44,0 6.88,0 10.33,0 a 2.81,2.81 0 0 1 2.36,1 3.63,3.63 0 0 1 0.58,1 c 0.3,0.81 0.57,1.62 0.81,2.45 1,3.32 1.93,6.65 2.91,10 0.98,3.35 2,6.69 3,10 q 0.59,1.94 1.29,3.84 a 5.54,5.54 0 0 0 1.2,2.09 c 0.45,0.45 0.66,0.43 1.11,0 a 2.6,2.6 0 0 0 0.62,-1.76 68.26,68.26 0 0 0 0.15,-7.15 c 0,-1.6 0.07,-3.2 0,-4.79 -0.22,-3.74 -0.07,-7.47 -0.14,-11.2 0,-0.32 -0.12,-0.64 -0.11,-0.95 0,-1 0,-2 0.16,-2.94 a 1.66,1.66 0 0 1 1.1,-1.28 2.72,2.72 0 0 1 0.93,-0.24 13.17,13.17 0 0 1 2.35,0 2.28,2.28 0 0 1 2.21,2.48 c 0,0.3 0,0.59 0,0.89 v 58.13 c 0,0.81 0,1.63 0,2.44 a 19.3,19.3 0 0 0 0.33,2.84 6.47,6.47 0 0 0 1.38,2.41 c 0.36,0.47 0.75,0.91 1.08,1.39 a 9.18,9.18 0 0 1 0.59,1.11 z"
       id="path8" />
    <path
       class="cls-1"
       d="m 151.3,140.74 c 0,8.83 0.06,17.66 0,26.49 0,2.87 -0.08,5.74 -0.08,8.62 a 8.87,8.87 0 0 0 0.41,3.19 4.79,4.79 0 0 0 0.55,1.11 c 0.53,0.74 1.13,1.42 1.66,2.15 a 5.6,5.6 0 0 1 0.66,1.23 c 0.17,0.44 0.05,0.68 -0.39,0.89 a 2,2 0 0 1 -0.83,0.27 25,25 0 0 1 -3,0.08 31.9,31.9 0 0 0 -3.53,-0.07 c -0.74,0 -1.48,-0.07 -2.2,-0.15 a 2.19,2.19 0 0 1 -2,-2.21 c 0,-0.45 0,-0.89 0,-1.33 q 0,-20.47 0,-40.95 a 8.89,8.89 0 0 0 -0.39,-3 1.54,1.54 0 0 0 -2.22,-1 5.42,5.42 0 0 0 -1.51,1 q -3.73,3.66 -7.41,7.4 a 5.45,5.45 0 0 0 -1.75,3.86 c 0,1.25 -0.12,2.5 -0.12,3.75 q 0,14.43 0,28.85 a 11.19,11.19 0 0 1 -0.14,1.83 1.85,1.85 0 0 1 -1.95,1.72 c -0.45,0 -0.89,0 -1.33,0 -2,0 -4.08,0 -6.12,0 a 16.81,16.81 0 0 1 -2.13,-0.15 1.11,1.11 0 0 1 -0.86,-1.87 13,13 0 0 1 1.24,-1.63 6.41,6.41 0 0 0 1.71,-4.65 c 0,-0.32 0,-0.64 0,-1 0.33,-20.14 0.06,-40.28 0.15,-60.42 0,-0.56 0.12,-1.12 0.13,-1.68 a 2.09,2.09 0 0 1 2,-2 c 1.74,0 3.49,0 5.24,0 a 2.06,2.06 0 0 1 2,2 18.44,18.44 0 0 1 0.13,2 c 0,5.32 0,10.63 0,15.94 a 15.88,15.88 0 0 0 0.15,1.68 1.93,1.93 0 0 0 0.85,1.33 1.08,1.08 0 0 0 1,0.21 4.31,4.31 0 0 0 1.77,-1 c 2,-2 4,-3.94 6.06,-5.93 0.69,-0.69 1.37,-1.41 2,-2.16 a 5.61,5.61 0 0 0 1.27,-3.23 c 0.25,-2.7 0.05,-5.41 0.14,-8.11 a 5.7,5.7 0 0 1 0.21,-1.29 1.61,1.61 0 0 1 1.41,-1.22 9.85,9.85 0 0 1 1.32,-0.14 c 1,0 2.06,0 3.1,0 a 10.32,10.32 0 0 1 1.23,0.15 1.6,1.6 0 0 1 1.4,1.34 7.86,7.86 0 0 1 0.18,1.61 v 26.41 z"
       id="path10" />
    <path
       class="cls-1"
       d="m 416.49,164.59 q 0,8.08 0,16.16 a 12.56,12.56 0 0 1 -0.16,1.83 2.15,2.15 0 0 1 -2.14,1.68 c -0.22,0 -0.44,0 -0.66,0 -2,0 -4,0 -6,0 a 11.21,11.21 0 0 1 -1.83,-0.16 1,1 0 0 1 -0.78,-1.66 c 0.39,-0.66 0.82,-1.28 1.23,-1.93 a 5.51,5.51 0 0 0 0.9,-2.76 c 0.29,-6.29 0.06,-12.59 0.12,-18.88 0,-2.75 0,-5.5 0,-8.26 0,-2.35 0,-4.71 0,-7.06 0,-2.35 0,-4.91 0,-7.36 0,-2.45 0,-4.87 0,-7.3 v -7.38 c 0,-2.44 0,-4.87 0,-7.3 a 5.94,5.94 0 0 1 0.15,-1.46 1.76,1.76 0 0 1 1.46,-1.38 8.2,8.2 0 0 1 1.31,-0.14 c 1.08,0 2.16,0 3.25,0 a 12.9,12.9 0 0 1 1.38,0.14 1.8,1.8 0 0 1 1.55,1.49 6.54,6.54 0 0 1 0.18,1.6 c 0,1.47 0,3 0,4.43 0,1.25 0.06,2.5 0.17,3.74 a 7.42,7.42 0 0 0 0.44,1.71 0.81,0.81 0 0 0 1.46,0.24 6.4,6.4 0 0 0 1.15,-2.21 c 0.69,-2 1.3,-4.06 1.93,-6.1 0.33,-1 0.66,-2.06 1,-3.1 a 2.64,2.64 0 0 1 2.58,-2 16,16 0 0 1 4.26,0.11 2.28,2.28 0 0 1 0.83,0.29 1.33,1.33 0 0 1 0.69,1.36 c -0.1,0.53 -0.14,1.07 -0.28,1.59 q -1.12,4 -2.28,8 c -0.31,1.09 -0.65,2.17 -1,3.25 a 10.41,10.41 0 0 0 -0.19,5.59 c 0.67,2.8 1.31,5.6 2,8.39 0.73,3 1.48,6 2.21,9 0.55,2.29 1.07,4.59 1.62,6.88 0.36,1.48 0.75,3 1.11,4.43 0.57,2.39 1.12,4.78 1.68,7.17 0.21,0.88 0.44,1.76 0.66,2.64 0.22,0.88 0.42,1.72 0.64,2.57 a 18.18,18.18 0 0 0 0.53,1.92 3.46,3.46 0 0 0 3.19,2.42 q 2.1,0.06 4.2,0.15 a 3.79,3.79 0 0 1 1,0.14 c 1,0.32 1.13,0.88 0.89,1.85 a 5.49,5.49 0 0 1 -0.59,1.25 c -0.53,0.91 -1.07,1.81 -1.63,2.71 a 3.37,3.37 0 0 1 -2.93,1.55 c -3,0.09 -6,0.12 -9.07,0.16 a 2.47,2.47 0 0 1 -2.2,-0.95 3.94,3.94 0 0 1 -0.6,-1.34 c -0.53,-2.26 -1,-4.54 -1.53,-6.82 l -1.17,-5.32 q -1,-4.31 -1.9,-8.63 c -0.79,-3.59 -1.57,-7.19 -2.37,-10.78 -0.38,-1.7 -0.79,-3.4 -1.19,-5.09 a 3.32,3.32 0 0 0 -0.89,-1.59 1.52,1.52 0 0 0 -1.55,-0.43 3,3 0 0 0 -1.79,1.22 5.55,5.55 0 0 0 -1.05,3.31 q 0,8.22 0,16.45 z"
       id="path12" />
    <path
       class="cls-1"
       d="m 333.29,183.27 a 2.85,2.85 0 0 1 0.71,-1.61 13.12,13.12 0 0 0 1.57,-2.22 6,6 0 0 0 0.64,-2.93 q 0,-8.59 0,-17.18 0,-22 0,-44 c 0,-0.68 0.08,-1.37 0.13,-2 a 1.9,1.9 0 0 1 2,-1.91 c 1.74,-0.09 3.49,-0.05 5.23,0 a 2,2 0 0 1 2,1.68 8.53,8.53 0 0 1 0.19,1.75 c 0,3.07 0,6.15 0,9.22 a 3,3 0 0 0 1,2.43 2,2 0 0 0 0.74,0.45 10.08,10.08 0 0 0 2.09,0.37 14.17,14.17 0 0 0 3.38,-0.13 3.36,3.36 0 0 0 2.72,-2.48 c 0.27,-0.89 0.46,-1.81 0.7,-2.71 a 3.24,3.24 0 0 1 1.49,-2.26 2,2 0 0 1 2.88,1.13 3.48,3.48 0 0 1 0.24,1.13 q 0,10.25 0,20.5 a 4.49,4.49 0 0 1 -0.28,1.44 1.78,1.78 0 0 1 -2,1.17 2.46,2.46 0 0 1 -2.15,-1.66 c -0.34,-0.95 -0.63,-1.92 -1,-2.86 a 3.82,3.82 0 0 0 -1.65,-2.1 3.64,3.64 0 0 0 -1.82,-0.52 20.35,20.35 0 0 0 -3.9,0.1 3,3 0 0 0 -2.39,2.39 11.23,11.23 0 0 0 -0.18,1.83 q 0,15.27 0,30.54 a 7.79,7.79 0 0 0 0.16,1.53 2.41,2.41 0 0 0 1.81,2 10.6,10.6 0 0 0 2.09,0.34 c 2,0 4.08,0 6.12,0 a 8.54,8.54 0 0 0 1.75,-0.21 3.25,3.25 0 0 0 2.57,-2.64 c 0.41,-1.72 0.76,-3.45 1.14,-5.17 0.34,-1.56 0.66,-3.12 1,-4.68 a 10.18,10.18 0 0 1 0.39,-1.18 2.06,2.06 0 0 1 1.53,-1.36 7.79,7.79 0 0 1 4,0 2.19,2.19 0 0 1 1.46,2.17 c 0.07,2 0.11,3.93 0.16,5.89 0.05,1.96 0,4.13 0.17,6.18 0.17,2.05 0.06,4.13 0.12,6.19 a 1.89,1.89 0 0 1 -0.78,1.73 2.2,2.2 0 0 1 -0.91,0.44 9.38,9.38 0 0 1 -1.83,0.18 q -15.08,0 -30.17,0 a 18.46,18.46 0 0 1 -2,-0.16 1.61,1.61 0 0 1 -1.12,-0.81 z"
       id="path14" />
    <path
       class="cls-1"
       d="m 272.16,143.72 q 0,14.53 0,29.06 c 0,0.56 0.08,1.13 0.13,1.69 a 3,3 0 0 0 3,2.42 h 4.58 c 1.08,0 2.16,0 3.24,0 a 3.26,3.26 0 0 0 3.42,-2.49 c 0.45,-1.37 0.68,-2.81 1,-4.23 0.46,-2.11 0.89,-4.22 1.39,-6.32 a 2.49,2.49 0 0 1 1.51,-2 5.66,5.66 0 0 1 1.29,-0.25 c 0.66,0 1.33,0 2,0 a 2.34,2.34 0 0 1 2.52,2.46 c 0.06,2.23 0.1,4.47 0.16,6.7 0.06,2.23 0,4.23 0.18,6.33 0.12,1.63 0.08,3.24 0.1,4.86 0,1.92 -1,2.38 -2.4,2.52 a 4.51,4.51 0 0 1 -0.52,0 h -31.59 a 6,6 0 0 1 -1.46,-0.17 c -0.95,-0.23 -1.19,-0.9 -0.64,-1.72 a 19,19 0 0 1 1.25,-1.73 6.34,6.34 0 0 0 1.4,-4.23 q 0,-7.53 0,-15.05 0,-23.38 0,-46.77 a 8,8 0 0 1 0.2,-1.68 1.7,1.7 0 0 1 1.4,-1.35 8.62,8.62 0 0 1 1.6,-0.18 c 1,0 2,0 3,0 a 10.3,10.3 0 0 1 1.46,0.14 1.94,1.94 0 0 1 1.74,2 c 0,0.42 0,0.84 0,1.25 v 28.85 z"
       id="path16" />
    <path
       class="cls-1"
       d="m 52,148.05 q 0,-16.35 0,-32.69 a 16.67,16.67 0 0 1 0.16,-2.12 1.82,1.82 0 0 1 1.72,-1.56 26.05,26.05 0 0 1 5.37,-0.13 2,2 0 0 1 2.19,2.11 59.92,59.92 0 0 1 0.11,6.7 c 0,0.56 0,1.11 0,1.68 0,0.57 -0.1,1.32 -0.1,2 q 0,24 0,48 a 13.59,13.59 0 0 0 0.14,1.69 2.61,2.61 0 0 0 2.18,2.27 7.82,7.82 0 0 0 1.75,0.19 q 3,0 6,0 a 11.74,11.74 0 0 0 2,-0.26 2.78,2.78 0 0 0 2,-1.52 12.31,12.31 0 0 0 1,-3.16 c 0.52,-2.25 1,-4.51 1.51,-6.75 a 12.3,12.3 0 0 1 0.43,-1.34 2.15,2.15 0 0 1 1.54,-1.5 4.24,4.24 0 0 1 2.18,0 2.17,2.17 0 0 1 1.53,2.34 c 0.09,2.08 0.12,4.17 0.17,6.26 0.05,2.09 0,4.13 0.17,6.18 0.15,1.87 0.08,3.73 0.11,5.6 a 3.92,3.92 0 0 1 -0.15,1 1.69,1.69 0 0 1 -1.7,1.36 c -1,0.09 -2.06,0.15 -3.09,0.15 q -11.68,0 -23.39,0 a 13.74,13.74 0 0 1 -2.46,-0.34 1.54,1.54 0 0 1 -1.21,-1.43 16,16 0 0 1 -0.15,-2.19 Q 52,164.32 52,148.05 Z"
       id="path18" />
    <path
       class="cls-1"
       d="m 82.9,39.14 c 0,0.75 -0.9,1.36 -2,1.36 H 51.35 c -1.1,0 -2,-0.61 -2,-1.36 0,-0.75 0.9,-1.36 2,-1.36 H 80.9 c 1.1,0 2,0.62 2,1.36 z"
       id="path20" />
    <path
       class="cls-1"
       d="m 188.87,47.3 c -1.32,0 -1.68,-0.26 -2,-1.54 -0.49,-1.93 -0.94,-3.86 -1.42,-5.79 a 6.74,6.74 0 0 0 -0.38,-1.15 c -0.08,-0.17 -0.31,-0.27 -0.48,-0.4 -0.11,0.15 -0.29,0.28 -0.34,0.45 -0.29,1 -0.56,2 -0.81,3 -0.34,1.35 -0.66,2.71 -1,4.07 -0.25,1 -0.55,1.26 -1.59,1.35 a 4.45,4.45 0 0 1 -0.73,0 c -1.09,-0.07 -1.38,-0.29 -1.62,-1.36 -0.82,-3.59 -1.61,-7.19 -2.42,-10.79 -0.17,-0.79 -0.35,-1.58 -0.53,-2.37 -0.18,-0.79 0.08,-1.31 1,-1.4 a 5.44,5.44 0 0 1 1.14,0 c 0.7,0.08 1,0.56 1.11,1.19 0.39,2 0.77,4.06 1.17,6.09 a 10,10 0 0 0 0.34,1.41 c 0.07,0.2 0.29,0.34 0.45,0.5 0.14,-0.15 0.35,-0.29 0.4,-0.47 0.31,-1.16 0.6,-2.32 0.88,-3.48 0.32,-1.34 0.61,-2.68 0.94,-4 0.27,-1 0.63,-1.28 1.76,-1.27 1.13,0.01 1.4,0.29 1.65,1.33 0.51,2.1 1,4.22 1.48,6.33 a 7.75,7.75 0 0 0 0.35,1.16 c 0.06,0.16 0.27,0.38 0.4,0.37 0.13,-0.01 0.33,-0.22 0.39,-0.39 a 6.72,6.72 0 0 0 0.31,-1.17 c 0.39,-2 0.81,-4 1.14,-6 0.27,-1.74 1.29,-1.81 2.86,-1.45 a 1,1 0 0 1 0.48,0.78 8.7,8.7 0 0 1 -0.28,1.67 c -0.86,3.92 -1.74,7.83 -2.61,11.75 -0.28,1.28 -0.65,1.59 -2.04,1.58 z"
       id="path22" />
    <path
       class="cls-1"
       d="m 336,39.24 q 0,-3.19 0,-6.39 c 0,-1.15 0.27,-1.52 1.4,-1.52 2.05,0 4.09,0.06 6.13,0.21 a 5.09,5.09 0 0 1 2.05,0.69 4,4 0 0 1 0.93,6 c -0.55,0.64 -0.58,0.94 0,1.44 a 4.11,4.11 0 0 1 1.12,4.45 3.87,3.87 0 0 1 -3.47,2.88 66.1,66.1 0 0 1 -6.9,0.22 c -0.92,0 -1.23,-0.43 -1.24,-1.38 0,-2.21 0,-4.41 0,-6.62 z m 3.38,3.18 v 0 c 0,0.4 0,0.81 0,1.21 a 0.87,0.87 0 0 0 0.89,0.89 14.7,14.7 0 0 0 2.3,0 2.0410353,2.0410353 0 0 0 -0.13,-4.08 c -0.65,0 -1.3,0 -1.94,0 -0.81,0 -1.11,0.35 -1.13,1.18 0.02,0.23 0.02,0.51 0.02,0.8 z m 0,-6.39 c 0,0.34 0,0.69 0,1 a 0.81,0.81 0 0 0 0.79,0.85 12.26,12.26 0 0 0 2.64,-0.17 1.84,1.84 0 0 0 -0.13,-3.53 7.3,7.3 0 0 0 -1.32,-0.14 C 339.5,34 339.39,34.16 339.41,36 Z"
       id="path24" />
    <path
       class="cls-1"
       d="m 235.08,39.32 v -6.07 a 7.92,7.92 0 0 1 0,-0.85 1,1 0 0 1 1.07,-1 c 1.62,0 3.24,-0.07 4.86,0 a 10.43,10.43 0 0 1 2.79,0.45 4.72,4.72 0 0 1 1.84,7.63 c -0.19,0.21 -0.4,0.4 -0.61,0.6 -0.71,0.68 -0.77,0.91 -0.33,1.81 0.62,1.23 1.29,2.43 1.93,3.65 a 5.41,5.41 0 0 1 0.34,0.78 0.66,0.66 0 0 1 -0.52,0.92 2.55,2.55 0 0 1 -3.29,-1.36 c -0.56,-1.1 -1.12,-2.2 -1.69,-3.3 a 1.81,1.81 0 0 0 -1.88,-1.06 c -0.81,0.06 -1.15,0.34 -1.17,1.15 -0.02,0.81 -0.05,1.87 0,2.8 0.09,2 -1.15,2.07 -2.69,1.7 -0.24,-0.06 -0.47,-0.43 -0.58,-0.71 a 3.14,3.14 0 0 1 -0.1,-1 c 0.03,-2.09 0.03,-4.11 0.03,-6.14 z m 3.4,-3 v 0 c 0,0.48 0,1 0,1.45 a 0.83,0.83 0 0 0 0.77,0.87 14,14 0 0 0 2.59,-0.09 2,2 0 0 0 1.63,-2 c 0,-1.25 -0.45,-2.07 -1.54,-2.28 a 13.77,13.77 0 0 0 -2.65,-0.14 0.85,0.85 0 0 0 -0.81,0.9 c -0.01,0.43 0.01,0.87 0.01,1.32 z"
       id="path26" />
    <path
       class="cls-1"
       d="m 291.84,47.34 c -0.77,0 -1.48,-0.05 -2.18,-0.11 a 1,1 0 0 1 -1,-1 9.07,9.07 0 0 1 -0.06,-0.91 q 0,-6 0,-12 c 0,-1.8 0.28,-2.09 2.08,-2.08 1.14,0 2.27,0 3.4,0.09 a 7,7 0 0 1 6.66,6.4 10.34,10.34 0 0 1 -0.67,5.42 6.68,6.68 0 0 1 -5.5,4 c -0.92,0.16 -1.86,0.15 -2.73,0.19 z m 0.14,-8 v 0 c 0,1.38 0,2.76 0,4.13 0,0.51 0.18,1 0.72,1 a 3.63,3.63 0 0 0 4.13,-1.92 8.62,8.62 0 0 0 0.33,-5.6 3.45,3.45 0 0 0 -3.78,-2.89 c -1.1,0 -1.4,0.29 -1.41,1.41 C 292,36.75 292,38 292,39.3 Z"
       id="path28" />
    <path
       class="cls-1"
       d="m 262.69,39.31 c 0,-2.13 0,-4.26 0,-6.38 0,-1.19 0.31,-1.58 1.49,-1.6 2.59,0 5.19,0 7.78,0 1.11,0 1.42,0.39 1.41,1.38 -0.01,0.99 -0.37,1.29 -1.28,1.34 -1.47,0 -2.95,0 -4.43,0 -1.48,0 -1.59,0.25 -1.6,1.61 0,2 0.07,2.07 2.09,2.07 1,0 1.91,0 2.86,0 0.95,0 1.31,0.45 1.27,1.45 0,0.8 -0.43,1.16 -1.37,1.17 -1.18,0 -2.35,0 -3.53,0 -1,0 -1.29,0.33 -1.31,1.32 0,0.51 0,1 0,1.52 0,1 0.31,1.3 1.33,1.31 h 4 a 7,7 0 0 1 0.79,0 1.37,1.37 0 0 1 1.07,2.13 1.09,1.09 0 0 1 -0.59,0.46 3.48,3.48 0 0 1 -1,0.12 q -3.56,0 -7.11,0 c -1.46,0 -1.8,-0.34 -1.8,-1.79 -0.08,-1.98 -0.07,-4.05 -0.07,-6.11 z"
       id="path30" />
    <path
       class="cls-1"
       d="m 209.17,39.27 v -6.39 c 0,-1.2 0.29,-1.54 1.5,-1.56 q 3.79,-0.06 7.59,0 c 1.21,0 1.63,0.48 1.59,1.5 a 1.1,1.1 0 0 1 -1.1,1.21 6.87,6.87 0 0 1 -0.79,0 h -4.07 c -1,0 -1.32,0.3 -1.34,1.35 0,0.41 0,0.81 0,1.22 0,0.74 0.34,1.06 1.09,1.08 1,0 2.07,0 3.1,0 a 6,6 0 0 1 0.85,0 c 0.91,0.12 1.21,0.5 1.16,1.44 0,0.78 -0.44,1.15 -1.32,1.17 h -3.1 c -1.62,0 -1.79,0.18 -1.79,1.83 0,0.42 0,0.85 0,1.27 a 1,1 0 0 0 1.07,1 c 1.33,0 2.67,0 4,0 a 7.88,7.88 0 0 1 1,0 1.33,1.33 0 0 1 1.11,2 1.18,1.18 0 0 1 -0.63,0.51 3.56,3.56 0 0 1 -1.08,0.13 h -7 -0.54 c -1,-0.1 -1.3,-0.42 -1.3,-1.4 0,-2.21 0,-4.42 0,-6.62 z"
       id="path32" />
    <path
       class="cls-1"
       d="m 119.77,39.28 q 0,-3.26 0,-6.51 c 0,-1.07 0.23,-1.41 1.28,-1.42 a 47.28,47.28 0 0 1 6.19,0.12 A 5.07,5.07 0 0 1 127,41.6 c -0.87,0.09 -1.74,0.08 -2.61,0.11 -0.87,0.03 -1.23,0.38 -1.26,1.24 -0.03,0.86 0,1.94 0,2.91 0,0.97 -0.33,1.35 -1.33,1.43 a 4.15,4.15 0 0 1 -0.79,0 c -0.89,-0.11 -1.17,-0.4 -1.17,-1.31 -0.07,-2.25 -0.06,-4.48 -0.07,-6.7 z m 5.42,-0.36 c 0.36,0 0.73,0 1.09,0 a 2.2,2.2 0 0 0 2.25,-2.23 2.37,2.37 0 0 0 -2.15,-2.57 14,14 0 0 0 -2.24,0 1,1 0 0 0 -1,1 c 0,0.58 0,1.17 0,1.76 -0.07,1.92 0.08,2.12 2.05,2.04 z"
       id="path34" />
    <path
       class="cls-1"
       d="m 370.19,44.1 c 0,0.69 0,1.38 0,2.07 a 1,1 0 0 1 -0.95,1.07 h -0.42 c -1.53,0.12 -1.93,-0.25 -1.94,-1.79 v -2.32 a 6.44,6.44 0 0 0 -0.78,-3.14 c -1.23,-2.3 -2.41,-4.64 -3.6,-7 a 3.57,3.57 0 0 1 -0.29,-0.67 c -0.13,-0.5 0.08,-0.9 0.58,-0.94 a 5.47,5.47 0 0 1 2,0 2,2 0 0 1 1,1 c 0.67,1.29 1.22,2.65 1.87,3.95 a 5.83,5.83 0 0 0 0.88,1.06 4.84,4.84 0 0 0 0.89,-1 c 0.64,-1.29 1.21,-2.61 1.82,-3.92 a 2.54,2.54 0 0 1 3.29,-1.12 0.7,0.7 0 0 1 0.3,1 c -0.23,0.56 -0.5,1.11 -0.78,1.65 -1,1.85 -1.86,3.73 -2.9,5.55 a 8.22,8.22 0 0 0 -0.97,4.55 z"
       id="path36" />
    <path
       class="cls-1"
       d="m 153.87,31.16 a 6.36,6.36 0 0 1 6.24,4.58 c 0.33,1.13 0,1.53 -1.15,1.62 a 2,2 0 0 1 -2.28,-1.43 2.82,2.82 0 0 0 -2.84,-2 3,3 0 0 0 -2.91,2 c -0.61,1.32 -1.11,1.59 -2.57,1.38 -0.83,-0.13 -1.07,-0.48 -0.88,-1.31 a 6.37,6.37 0 0 1 5.84,-4.85 c 0.19,0 0.37,0.01 0.55,0.01 z"
       id="path38" />
    <path
       class="cls-1"
       d="m 153.79,47.45 a 6.33,6.33 0 0 1 -6.31,-4.82 c -0.21,-0.78 0.05,-1.21 0.87,-1.3 a 6.64,6.64 0 0 1 1.26,0 1.36,1.36 0 0 1 1.18,0.91 5.62,5.62 0 0 0 0.89,1.5 3,3 0 0 0 4.91,-0.81 c 0,-0.1 0.09,-0.19 0.13,-0.28 a 2,2 0 0 1 2.65,-1.33 0.89,0.89 0 0 1 0.8,1.27 6.25,6.25 0 0 1 -6.38,4.86 z"
       id="path40" />
    <path
       class="cls-1"
       d="m 438.26,38.93 c 0,0.75 -0.9,1.36 -2,1.36 h -29.55 c -1.1,0 -2,-0.61 -2,-1.36 0,-0.75 0.9,-1.36 2,-1.36 h 29.55 c 1.1,0 2,0.62 2,1.36 z"
       id="path42" />
  </g>
</svg>
