<?xml version="1.0" encoding="UTF-8" standalone="no"?>
<svg
   xmlns:dc="http://purl.org/dc/elements/1.1/"
   xmlns:cc="http://creativecommons.org/ns#"
   xmlns:rdf="http://www.w3.org/1999/02/22-rdf-syntax-ns#"
   xmlns:svg="http://www.w3.org/2000/svg"
   xmlns="http://www.w3.org/2000/svg"
   xmlns:sodipodi="http://sodipodi.sourceforge.net/DTD/sodipodi-0.dtd"
   xmlns:inkscape="http://www.inkscape.org/namespaces/inkscape"
   version="1.1"
   viewBox="0 -64 1024 1024"
   width="512"
   height="512"
   id="svg6"
   sodipodi:docname="activate.svg"
   inkscape:version="0.92.4 (5da689c313, 2019-01-14)">
  <metadata
     id="metadata12">
    <rdf:RDF>
      <cc:Work
         rdf:about="">
        <dc:format>image/svg+xml</dc:format>
        <dc:type
           rdf:resource="http://purl.org/dc/dcmitype/StillImage" />
      </cc:Work>
    </rdf:RDF>
  </metadata>
  <defs
     id="defs10" />
  <sodipodi:namedview
     pagecolor="#ffffff"
     bordercolor="#666666"
     borderopacity="1"
     objecttolerance="10"
     gridtolerance="10"
     guidetolerance="10"
     inkscape:pageopacity="0"
     inkscape:pageshadow="2"
     inkscape:window-width="716"
     inkscape:window-height="480"
     id="namedview8"
     showgrid="false"
     inkscape:zoom="0.4609375"
     inkscape:cx="256"
     inkscape:cy="256"
     inkscape:window-x="0"
     inkscape:window-y="0"
     inkscape:window-maximized="0"
     inkscape:current-layer="svg6" />
  <rect
     style="opacity:0.25;fill:#ffffff;fill-opacity:1;stroke-width:2"
     id="rect822"
     width="1019.661"
     height="1015.322"
     x="2.1694946"
     y="-59.661011" />
  <g
     transform="matrix(1,0,0,-1,0,896)"
     id="g4">
    <path
       d="M 512,838 122,448 147,424 512,58 902,448 Z M 512,741 805,448 512,155 219,448 Z M 444,604 Q 399,584 370,542 341,500 341,448 341,378 391.5,327.5 442,277 512,277 582,277 632.5,327.5 683,378 683,448 q 0,52 -29,94 -29,42 -74,62 v -80 q 16,-14 25,-33.5 9,-19.5 9,-42.5 0,-43 -29.5,-72.5 Q 555,346 512,346 469,346 439.5,375.5 410,405 410,448 q 0,23 9,42.5 9,19.5 25,33.5 z m 34,49 V 448 h 68 v 205 z"
       id="path2"
       inkscape:connector-curvature="0"
       style="fill:currentColor" />
  </g>
</svg>
