<?xml version="1.0" encoding="UTF-8" standalone="no"?>
<svg
   xmlns:dc="http://purl.org/dc/elements/1.1/"
   xmlns:cc="http://creativecommons.org/ns#"
   xmlns:rdf="http://www.w3.org/1999/02/22-rdf-syntax-ns#"
   xmlns:svg="http://www.w3.org/2000/svg"
   xmlns="http://www.w3.org/2000/svg"
   xmlns:sodipodi="http://sodipodi.sourceforge.net/DTD/sodipodi-0.dtd"
   xmlns:inkscape="http://www.inkscape.org/namespaces/inkscape"
   version="1.1"
   viewBox="0 -64 1024 1024"
   width="512"
   height="512"
   id="svg854"
   sodipodi:docname="condition_shredded.svg"
   inkscape:version="0.92.4 (5da689c313, 2019-01-14)">
  <metadata
     id="metadata860">
    <rdf:RDF>
      <cc:Work
         rdf:about="">
        <dc:format>image/svg+xml</dc:format>
        <dc:type
           rdf:resource="http://purl.org/dc/dcmitype/StillImage" />
        <dc:title />
      </cc:Work>
    </rdf:RDF>
  </metadata>
  <defs
     id="defs858" />
  <sodipodi:namedview
     pagecolor="#ffffff"
     bordercolor="#666666"
     borderopacity="1"
     objecttolerance="10"
     gridtolerance="10"
     guidetolerance="10"
     inkscape:pageopacity="0"
     inkscape:pageshadow="2"
     inkscape:window-width="1920"
     inkscape:window-height="1017"
     id="namedview856"
     showgrid="false"
     inkscape:zoom="0.4609375"
     inkscape:cx="256"
     inkscape:cy="256"
     inkscape:window-x="-8"
     inkscape:window-y="-8"
     inkscape:window-maximized="1"
     inkscape:current-layer="svg854" />
  <rect
     style="opacity:0.25;fill:#ffffff;fill-opacity:1;stroke-width:2"
     id="rect822"
     width="1019.661"
     height="1015.322"
     x="2.1694946"
     y="-59.661011" />
  <g
     transform="matrix(1,0,0,-1,0,878.5)"
     id="g852">
    <path
       d="M 444,788 Q 397,766 332,743.5 267,721 205,721 l 2,-30 q 0,0 6,-73 6,-73 10,-90 7,-47 16,-80 17,-63 40,-125 23,-62 62,-114 33,-43 76.5,-77 43.5,-34 94.5,-59 51,25 94.5,59 43.5,34 76.5,77 39,52 62,114 23,62 40,125 9,33 16,80 6,47 10,90 4,43 6,73 l 2,30 Q 757,721 692,743.5 627,766 580,788 V 687 L 512,585 683,482 478,346 614,243 512,141 546,243 375,346 546,482 341,585 444,687 Z"
       id="path850"
       inkscape:connector-curvature="0"
       style="fill:currentColor" />
  </g>
</svg>
