<?xml version="1.0" encoding="UTF-8" standalone="no"?>
<!-- Created with Inkscape (http://www.inkscape.org/) -->

<svg
   xmlns:dc="http://purl.org/dc/elements/1.1/"
   xmlns:cc="http://creativecommons.org/ns#"
   xmlns:rdf="http://www.w3.org/1999/02/22-rdf-syntax-ns#"
   xmlns:svg="http://www.w3.org/2000/svg"
   xmlns="http://www.w3.org/2000/svg"
   xmlns:sodipodi="http://sodipodi.sourceforge.net/DTD/sodipodi-0.dtd"
   xmlns:inkscape="http://www.inkscape.org/namespaces/inkscape"
   width="206.24452mm"
   height="208.30185mm"
   viewBox="0 0 206.24452 208.30185"
   version="1.1"
   id="svg7454"
   inkscape:version="0.92.4 (5da689c313, 2019-01-14)"
   sodipodi:docname="d20-framed.svg">
  <defs
     id="defs7448" />
  <sodipodi:namedview
     id="base"
     pagecolor="#ffffff"
     bordercolor="#666666"
     borderopacity="1.0"
     inkscape:pageopacity="0.0"
     inkscape:pageshadow="2"
     inkscape:zoom="0.175"
     inkscape:cx="-1051.8891"
     inkscape:cy="952.99743"
     inkscape:document-units="mm"
     inkscape:current-layer="layer1"
     showgrid="false"
     inkscape:window-width="1920"
     inkscape:window-height="1017"
     inkscape:window-x="-8"
     inkscape:window-y="-8"
     inkscape:window-maximized="1" />
  <metadata
     id="metadata7451">
    <rdf:RDF>
      <cc:Work
         rdf:about="">
        <dc:format>image/svg+xml</dc:format>
        <dc:type
           rdf:resource="http://purl.org/dc/dcmitype/StillImage" />
        <dc:title />
      </cc:Work>
    </rdf:RDF>
  </metadata>
  <g
     inkscape:label="Layer 1"
     inkscape:groupmode="layer"
     id="layer1"
     transform="translate(-60.919402,-152.02765)">
    <rect
       style="opacity:0.25;fill:#ffffff;fill-opacity:1;stroke-width:0.26458332"
       id="rect822"
       width="200"
       height="200"
       x="64.041664"
       y="156.17857" />
    <path
       id="path6029"
       d="m 138.75084,246.82766 -20.03337,29.5879 c -0.58458,0.949 0.0191,2.1827 1.1255,2.30417 l 39.52772,4.18888 z m -18.85471,19.05021 14.29002,-23.22201 -14.54626,-8.72698 c -0.50676,-0.30368 -1.15019,0.0607 -1.15019,0.651 v 30.9013 c 0,0.7649 1.00404,1.0496 1.40643,0.39669 z m 2.05741,20.53065 36.8971,16.63784 c 1.00593,0.46502 2.15422,-0.27141 2.15422,-1.37793 v -12.46416 l -38.63375,-4.23253 c -0.84461,-0.0949 -1.18244,1.06097 -0.41757,1.43678 z m 15.41556,-48.9266 15.17069,-27.12999 c 0.82373,-1.33997 -0.68138,-2.89445 -2.04603,-2.11436 l -28.62373,18.71616 c -0.4688,0.30747 -0.45362,0.99835 0.0247,1.28683 z m 26.67257,1.93217 H 184.7697 L 166.62863,207.4556 c -0.59407,-0.9642 -1.59051,-1.44629 -2.58696,-1.44629 -0.99647,0 -1.99291,0.48209 -2.58698,1.44629 l -18.14107,31.95849 z m 44.40175,-5.48521 -14.54625,8.72888 14.29002,23.22202 c 0.40048,0.6529 1.40642,0.36821 1.40642,-0.3986 v -30.9013 c 0,-0.59027 -0.64342,-0.95468 -1.15019,-0.651 z m -17.7292,3.55304 15.47439,-9.24324 c 0.48019,-0.28851 0.49348,-0.97938 0.0247,-1.28685 l -28.6237,-18.71426 c -1.36466,-0.78009 -2.86977,0.77439 -2.04605,2.11436 z m 14.99799,47.48982 -38.63375,4.23064 v 12.46414 c 0,1.10843 1.1483,1.84297 2.15422,1.37795 l 36.89709,-16.63785 c 0.76489,-0.37391 0.42705,-1.52979 -0.41756,-1.43488 z m -16.37972,-38.14408 -20.61796,36.08095 39.52772,-4.18888 c 1.10653,-0.12338 1.71008,-1.35517 1.1255,-2.30417 z m -25.29082,-1.33998 h -19.0616 l 19.0616,33.35731 19.06159,-33.35731 z"
       inkscape:connector-curvature="0"
       style="display:inline;stroke-width:0.1897998" />
    <path
       sodipodi:type="star"
       style="display:inline;fill:none;fill-opacity:1;stroke:#000000;stroke-width:18;stroke-linecap:square;stroke-linejoin:miter;stroke-miterlimit:4;stroke-dasharray:none;stroke-opacity:1;paint-order:normal"
       id="path5867-8-0"
       sodipodi:sides="4"
       sodipodi:cx="-67.18116"
       sodipodi:cy="151.35423"
       sodipodi:r1="91.359955"
       sodipodi:r2="64.601242"
       sodipodi:arg1="1.5707963"
       sodipodi:arg2="2.3561945"
       inkscape:flatsided="true"
       inkscape:rounded="0"
       inkscape:randomized="0"
       d="M -67.181158,242.71419 -158.54111,151.35424 -67.181162,59.994278 24.178795,151.35423 Z"
       transform="matrix(0.99072308,0,0,1.0006057,230.59959,104.73266)" />
  </g>
</svg>
