<?xml version="1.0" encoding="UTF-8" standalone="no"?>
<svg
   xmlns:dc="http://purl.org/dc/elements/1.1/"
   xmlns:cc="http://creativecommons.org/ns#"
   xmlns:rdf="http://www.w3.org/1999/02/22-rdf-syntax-ns#"
   xmlns:svg="http://www.w3.org/2000/svg"
   xmlns="http://www.w3.org/2000/svg"
   xmlns:sodipodi="http://sodipodi.sourceforge.net/DTD/sodipodi-0.dtd"
   xmlns:inkscape="http://www.inkscape.org/namespaces/inkscape"
   version="1.1"
   viewBox="0 -64 1024 1024"
   width="512"
   height="512"
   id="svg1427"
   sodipodi:docname="damage_heat.svg"
   inkscape:version="0.92.4 (5da689c313, 2019-01-14)">
  <metadata
     id="metadata1433">
    <rdf:RDF>
      <cc:Work
         rdf:about="">
        <dc:format>image/svg+xml</dc:format>
        <dc:type
           rdf:resource="http://purl.org/dc/dcmitype/StillImage" />
        <dc:title />
      </cc:Work>
    </rdf:RDF>
  </metadata>
  <defs
     id="defs1431" />
  <sodipodi:namedview
     pagecolor="#ffffff"
     bordercolor="#666666"
     borderopacity="1"
     objecttolerance="10"
     gridtolerance="10"
     guidetolerance="10"
     inkscape:pageopacity="0"
     inkscape:pageshadow="2"
     inkscape:window-width="1920"
     inkscape:window-height="1017"
     id="namedview1429"
     showgrid="false"
     inkscape:zoom="0.4609375"
     inkscape:cx="-96.542373"
     inkscape:cy="256"
     inkscape:window-x="-8"
     inkscape:window-y="-8"
     inkscape:window-maximized="1"
     inkscape:current-layer="svg1427" />
  <rect
     style="opacity:0.25;fill:#ffffff;fill-opacity:1;stroke-width:2"
     id="rect822"
     width="1019.661"
     height="1015.322"
     x="2.1694946"
     y="-59.661011" />
  <g
     transform="matrix(1,0,0,-1,-68,896)"
     id="g1425">
    <path
       d="M 512,858 Q 469,858 439.5,828 410,798 410,755 V 345 q -33,-24 -51,-60 -18,-36 -18,-76 0,-71 50,-121 50,-50 121,-50 71,0 121,50 50,50 50,121 0,40 -18,76 -18,36 -51,60 v 410 q 0,43 -29.5,73 Q 555,858 512,858 Z M 478,550 h 68 V 305 Q 577,295 595.5,268.5 614,242 614,209 q 0,-42 -30,-72 -30,-30 -72,-30 -42,0 -72,30 -30,30 -30,72 0,33 18.5,59.5 Q 447,295 478,305 Z M 683,516 H 819 V 448 H 683 Z m 0,171 H 819 V 619 H 683 Z"
       id="path1423"
       inkscape:connector-curvature="0"
       style="fill:currentColor" />
  </g>
</svg>
