<?xml version="1.0" encoding="UTF-8" standalone="no"?>
<svg
   xmlns:dc="http://purl.org/dc/elements/1.1/"
   xmlns:cc="http://creativecommons.org/ns#"
   xmlns:rdf="http://www.w3.org/1999/02/22-rdf-syntax-ns#"
   xmlns:svg="http://www.w3.org/2000/svg"
   xmlns="http://www.w3.org/2000/svg"
   xmlns:sodipodi="http://sodipodi.sourceforge.net/DTD/sodipodi-0.dtd"
   xmlns:inkscape="http://www.inkscape.org/namespaces/inkscape"
   version="1.1"
   viewBox="0 -64 1024 1024"
   width="512"
   height="512"
   id="svg6"
   sodipodi:docname="reaction.svg"
   inkscape:version="0.92.4 (5da689c313, 2019-01-14)">
  <metadata
     id="metadata12">
    <rdf:RDF>
      <cc:Work
         rdf:about="">
        <dc:format>image/svg+xml</dc:format>
        <dc:type
           rdf:resource="http://purl.org/dc/dcmitype/StillImage" />
      </cc:Work>
    </rdf:RDF>
  </metadata>
  <defs
     id="defs10" />
  <sodipodi:namedview
     pagecolor="#ffffff"
     bordercolor="#666666"
     borderopacity="1"
     objecttolerance="10"
     gridtolerance="10"
     guidetolerance="10"
     inkscape:pageopacity="0"
     inkscape:pageshadow="2"
     inkscape:window-width="716"
     inkscape:window-height="480"
     id="namedview8"
     showgrid="false"
     inkscape:zoom="0.4609375"
     inkscape:cx="256"
     inkscape:cy="256"
     inkscape:window-x="0"
     inkscape:window-y="0"
     inkscape:window-maximized="0"
     inkscape:current-layer="svg6" />
  <rect
     style="opacity:0.25;fill:#ffffff;fill-opacity:1;stroke-width:2"
     id="rect822"
     width="1019.661"
     height="1015.322"
     x="2.1694946"
     y="-59.661011" />
  <g
     transform="matrix(1,0,0,-1,0,913)"
     id="g4">
    <path
       d="M 478,721 V 565 Q 446,562 414.5,552.5 383,543 352,527 l -51,77 -56,-38 48,-73 q -23,-16 -46,-34 -23,-18 -45,-40 l -50,25 -31,-61 91,-45 17,18 q 34,33 67,58.5 33,25.5 65,43.5 -9,-18 -14.5,-37.5 Q 341,401 341,380 341,309 391.5,259 442,209 512,209 q 70,0 120.5,50 50.5,50 50.5,121 0,21 -5.5,40.5 Q 672,440 663,458 695,440 728,414.5 761,389 795,356 l 17,-18 91,45 -31,61 -50,-25 q -22,22 -45,40 -23,18 -46,34 l 48,73 -56,38 -51,-77 Q 641,543 609.5,552.5 578,562 546,565 v 156 z m 34,-273 q 29,0 48.5,-20 Q 580,408 580,380 580,351 560.5,331.5 541,312 512,312 483,312 463.5,331.5 444,351 444,380 q 0,28 19.5,48 19.5,20 48.5,20 z"
       id="path2"
       inkscape:connector-curvature="0"
       style="fill:currentColor" />
  </g>
</svg>
