<?xml version="1.0" encoding="UTF-8" standalone="no"?>
<svg
   xmlns:dc="http://purl.org/dc/elements/1.1/"
   xmlns:cc="http://creativecommons.org/ns#"
   xmlns:rdf="http://www.w3.org/1999/02/22-rdf-syntax-ns#"
   xmlns:svg="http://www.w3.org/2000/svg"
   xmlns="http://www.w3.org/2000/svg"
   xmlns:sodipodi="http://sodipodi.sourceforge.net/DTD/sodipodi-0.dtd"
   xmlns:inkscape="http://www.inkscape.org/namespaces/inkscape"
   version="1.1"
   viewBox="0 -64 1024 1024"
   width="512"
   height="512"
   id="svg6"
   sodipodi:docname="reticule.svg"
   inkscape:version="0.92.4 (5da689c313, 2019-01-14)">
  <metadata
     id="metadata12">
    <rdf:RDF>
      <cc:Work
         rdf:about="">
        <dc:format>image/svg+xml</dc:format>
        <dc:type
           rdf:resource="http://purl.org/dc/dcmitype/StillImage" />
      </cc:Work>
    </rdf:RDF>
  </metadata>
  <defs
     id="defs10" />
  <sodipodi:namedview
     pagecolor="#ffffff"
     bordercolor="#666666"
     borderopacity="1"
     objecttolerance="10"
     gridtolerance="10"
     guidetolerance="10"
     inkscape:pageopacity="0"
     inkscape:pageshadow="2"
     inkscape:window-width="716"
     inkscape:window-height="480"
     id="namedview8"
     showgrid="false"
     inkscape:zoom="0.4609375"
     inkscape:cx="256"
     inkscape:cy="256"
     inkscape:window-x="0"
     inkscape:window-y="0"
     inkscape:window-maximized="0"
     inkscape:current-layer="svg6" />
  <rect
     style="opacity:0.25;fill:#ffffff;fill-opacity:1;stroke-width:2"
     id="rect822"
     width="1019.661"
     height="1015.322"
     x="2.1694946"
     y="-59.661011" />
  <g
     transform="matrix(1,0,0,-1,0.5,897)"
     id="g4">
    <path
       d="M 530,921 V 805 q 69,-3 129,-31 60,-27 105,-72.5 45,-45.5 73,-105.5 27,-60 31,-128 h 115 q -3,92 -40,173 -36,81 -97,142 -61,61 -142,98 -81,36 -174,40 z m -37,0 Q 401,917 320,880 239,844 178,783 117,722 80,641 44,560 40,468 h 117 q 3,68 31,128 27,60 72,105 45,45 105,73 60,27 128,31 z M 512,706 Q 464,706 421,689.5 378,673 344,644 l 45,-45 q 18,15 40,25.5 22,10.5 47,15.5 l 37,-141 38,140 q 24,-4 45.5,-14.5 Q 618,614 636,599 l 44,45 Q 647,673 604,689.5 561,706 512,706 Z M 707,617 662,573 Q 677,555 687.5,533 698,511 702,487 L 562,450 702,412 Q 698,388 687.5,366 677,344 662,326 l 44,-45 q 30,34 46.5,77 16.5,43 16.5,92 0,48 -16.5,91 -16.5,43 -45.5,76 z m -390,0 Q 288,583 271.5,540.5 255,498 255,450 255,401 271.5,358 288,315 318,281 l 45,45 Q 348,345 337.5,366.5 327,388 322,412 l 142,38 -141,38 q 4,23 14.5,44.5 Q 348,554 362,572 Z M 40,430 q 4,-92 41,-173 36,-80 97,-141 61,-61 142,-98 81,-37 173,-41 V 94 q -68,4 -127,31 -60,28 -105,73 -45,45 -73,105 -27,59 -31,127 z m 828,0 Q 864,362 837,302 809,243 763.5,197.5 718,152 658,125 599,97 530,94 V -23 q 93,4 174,41 80,36 141,97 61,61 98,142 37,81 40,173 z M 513,401 475,258 q -24,5 -46,15.5 -22,10.5 -40,26.5 l -45,-45 q 34,-30 77,-46.5 43,-16.5 91,-16.5 49,0 91.5,16.5 Q 646,225 680,254 l -45,45 Q 617,284 596,273.5 575,263 551,259 Z"
       id="path2"
       inkscape:connector-curvature="0"
       style="fill:currentColor" />
  </g>
</svg>
