<?xml version="1.0" encoding="UTF-8" standalone="no"?>
<svg
   version="1.1"
   viewBox="0 -64 1024 1024"
   width="512"
   height="512"
   id="svg2267"
   sodipodi:docname="sensor.svg"
   inkscape:version="1.2.2 (b0a8486541, 2022-12-01)"
   xmlns:inkscape="http://www.inkscape.org/namespaces/inkscape"
   xmlns:sodipodi="http://sodipodi.sourceforge.net/DTD/sodipodi-0.dtd"
   xmlns="http://www.w3.org/2000/svg"
   xmlns:svg="http://www.w3.org/2000/svg">
  <defs
     id="defs2271" />
  <sodipodi:namedview
     id="namedview2269"
     pagecolor="#ffffff"
     bordercolor="#000000"
     borderopacity="0.25"
     inkscape:showpageshadow="2"
     inkscape:pageopacity="0.0"
     inkscape:pagecheckerboard="0"
     inkscape:deskcolor="#d1d1d1"
     showgrid="false"
     inkscape:zoom="0.97734777"
     inkscape:cx="143.24481"
     inkscape:cy="221.51787"
     inkscape:window-width="1448"
     inkscape:window-height="1008"
     inkscape:window-x="0"
     inkscape:window-y="0"
     inkscape:window-maximized="0"
     inkscape:current-layer="svg2267" />
  <rect
     style="opacity:0.25;fill:#ffffff;fill-opacity:1;stroke-width:2"
     id="rect822"
     width="1019.661"
     height="1015.322"
     x="2.1700001"
     y="-59.661999" />
  <g
     transform="matrix(1,0,0,-1,0.06060606,896.02564)"
     id="g2265">
    <path
       fill="currentColor"
       d="M 507,789 Q 447,788 388.5,768 330,748 280,709 q -38,-30 -67,-68 -28,-37 -46,-80 -18,-43 -26,-89 -7,-46 -3,-92 h 69 q -9,78 21,151.5 30,73.5 95,124.5 40,32 88,48 48,16 97,17 49,1 97,-14 48,-16 90,-47 34,-25 59,-56 25,-32 40.5,-68.5 Q 810,499 816,459 q 6,-39 1,-79 h 69 q 4,48 -4,95 -8,47 -27,90.5 -19,43.5 -49,81.5 -30,39 -70,68 -51,38 -110,56.5 Q 567,790 507,789 Z m 3,-136 Q 472,652 434.5,639.5 397,627 365,602 313,562 290,502 267,442 276,380 h 69 q -10,47 6.5,92.5 16.5,45.5 55.5,75.5 46,36 104,36.5 58,0.5 104,-34.5 40,-30 57,-76.5 17,-46.5 7,-93.5 h 69 q 9,63 -15,123.5 Q 709,564 657,604 624,629 586.5,641 549,653 510,653 Z m 2,-137 q -42,0 -72,-30 -30,-30 -30,-72 0,-34 19.5,-61 Q 449,326 482,316 V 209 l -72,-68 v -34 h 204 v 34 l -72,68 v 107 q 33,10 52.5,37 19.5,27 19.5,61 0,42 -30,72 -30,30 -72,30 z"
       id="path2263" />
  </g>
</svg>
