<?xml version="1.0" encoding="UTF-8" standalone="no"?>
<svg
   xmlns:dc="http://purl.org/dc/elements/1.1/"
   xmlns:cc="http://creativecommons.org/ns#"
   xmlns:rdf="http://www.w3.org/1999/02/22-rdf-syntax-ns#"
   xmlns:svg="http://www.w3.org/2000/svg"
   xmlns="http://www.w3.org/2000/svg"
   xmlns:sodipodi="http://sodipodi.sourceforge.net/DTD/sodipodi-0.dtd"
   xmlns:inkscape="http://www.inkscape.org/namespaces/inkscape"
   version="1.1"
   viewBox="0 -64 1024 1024"
   width="512"
   height="512"
   id="svg6"
   sodipodi:docname="sword_array.svg"
   inkscape:version="0.92.4 (5da689c313, 2019-01-14)">
  <metadata
     id="metadata12">
    <rdf:RDF>
      <cc:Work
         rdf:about="">
        <dc:format>image/svg+xml</dc:format>
        <dc:type
           rdf:resource="http://purl.org/dc/dcmitype/StillImage" />
      </cc:Work>
    </rdf:RDF>
  </metadata>
  <defs
     id="defs10" />
  <sodipodi:namedview
     pagecolor="#ffffff"
     bordercolor="#666666"
     borderopacity="1"
     objecttolerance="10"
     gridtolerance="10"
     guidetolerance="10"
     inkscape:pageopacity="0"
     inkscape:pageshadow="2"
     inkscape:window-width="716"
     inkscape:window-height="480"
     id="namedview8"
     showgrid="false"
     inkscape:zoom="0.4609375"
     inkscape:cx="256"
     inkscape:cy="256"
     inkscape:window-x="0"
     inkscape:window-y="0"
     inkscape:window-maximized="0"
     inkscape:current-layer="svg6" />
  <rect
     style="opacity:0.25;fill:#ffffff;fill-opacity:1;stroke-width:2"
     id="rect822"
     width="1019.661"
     height="1015.322"
     x="2.1694946"
     y="-59.661011" />
  <g
     transform="matrix(1,0,0,-1,-9,880)"
     id="g4">
    <path
       d="m 404,903 q -13,0 -22.5,-9.5 Q 372,884 372,870 q 0,-13 9,-22.5 9,-9.5 23,-9.5 6,0 11.5,2 5.5,2 9.5,5 l 117,-43 -21,-60 35,-13 9,27 320,-116 104,19 -66,82 -320,117 9,27 -35,12 -22,-60 -120,44 q -3,10 -11.5,16 -8.5,6 -19.5,6 z m 186,-80 248,-90 22,-27 -30,-7 -252,92 z M 327,761 q -14,0 -23.5,-9.5 Q 294,742 294,728 q 0,-13 9.5,-22.5 9.5,-9.5 23.5,-9.5 3,0 5.5,0.5 2.5,0.5 4.5,0.5 v 0 l 105,-74 -36,-53 30,-21 16,23 279,-195 106,-8 -42,96 -280,196 16,23 -31,22 -36,-53 -105,73 v 1.5 0.5 q 0,14 -9.5,23.5 Q 340,761 327,761 Z M 221,633 q -13,0 -22.5,-9.5 Q 189,614 189,600 189,587 198.5,577.5 208,568 221,568 h 3 3 l 74,-88 -49,-41 24,-29 21,19 220,-262 99,-33 -16,104 -219,260 21,19 -24,28 -49,-41 -76,91 q 1,1 1,2.5 v 2.5 q 0,14 -9.5,23.5 Q 235,633 221,633 Z m 272,-3 215,-150 14,-31 -31,2 -217,152 z M 86,545 Q 72,545 62.5,535.5 53,526 53,512 q 0,-11 7,-20 7,-9 18,-11 l 48,-104 -58,-27 16,-33 26,12 144,-310 87,-58 11,105 -144,309 26,11 -16,34 -58,-27 -47,101 q 2,4 3.5,8.5 1.5,4.5 1.5,10.5 0,13 -9.5,22.5 Q 99,545 86,545 Z m 266,-71 168,-200 6,-33 -31,10 -169,202 z M 174,359 284,124 281,90 254,107 144,344 Z"
       id="path2"
       inkscape:connector-curvature="0"
       style="fill:currentColor" />
  </g>
</svg>
